<?xml version="1.0" standalone="no"?>
<!DOCTYPE svg PUBLIC "-//W3C//DTD SVG 1.1//EN" "http://www.w3.org/Graphics/SVG/1.1/DTD/svg11.dtd" >
<svg xmlns="http://www.w3.org/2000/svg">
<metadata>
Created by FontForge 20100429 at Mon Jan 28 03:15:00 2013
 By root
Copyright (C) 2012 by original authors @ fontello.com
</metadata>
<defs>
<font id="yulan-icons" horiz-adv-x="1030" >
  <font-face 
    font-family="yulan-icons"
    font-weight="500"
    font-stretch="normal"
    units-per-em="1000"
    panose-1="2 0 6 3 0 0 0 0 0 0"
    ascent="850"
    descent="-150"
    x-height="846"
    cap-height="775"
    bbox="13.8763 -190 1410 890"
    underline-thickness="50"
    underline-position="-100"
    unicode-range="U+0021-1F6AB"
  />
<missing-glyph horiz-adv-x="364" 
d="M33 0v666h265v-666h-265zM66 33h199v600h-199v-600z" />
    <glyph glyph-name=".notdef" horiz-adv-x="364" 
d="M33 0v666h265v-666h-265zM66 33h199v600h-199v-600z" />
    <glyph glyph-name=".null" horiz-adv-x="0" 
 />
    <glyph glyph-name="nonmarkingreturn" horiz-adv-x="333" 
 />
    <glyph glyph-name="exclam" unicode="!" 
d="M15 318q0 13 9 21.5t22 8.5h250q14 0 23 -8.5t9 -21.5t-9.5 -22.5t-22.5 -9.5h-250q-13 0 -22 9.5t-9 22.5zM15 443q0 13 9 21.5t22 8.5h125q13 0 22 -8.5t9 -21.5t-9 -22.5t-22 -9.5h-125q-13 0 -22 9.5t-9 22.5zM78 568q0 13 9 21.5t22 8.5h125q13 0 22 -8.5t9 -21.5
t-9 -22.5t-22 -9.5h-125q-13 0 -22 9.5t-9 22.5zM1015 518q0 -82 -56.5 -138.5t-138.5 -56.5q-14 0 -34 2q-63 -39 -135 -39q-73 0 -136 39q-20 -2 -35 -2q-81 0 -137 56q-57 57 -57 139q0 78 55 134t131 59q74 77 179 77q104 0 178 -77q76 -3 131 -59t55 -134zM515 38
q-26 0 -44.5 18.5t-18.5 43.5q0 35 63 125l16 -23q17 -26 31 -55q16 -34 16 -47q0 -25 -18.5 -43.5t-44.5 -18.5zM702 -25q0 35 63 125l16 -23q17 -26 31 -55q16 -34 16 -47q0 -25 -19 -44t-44 -19t-44 19t-19 44z" />
    <glyph glyph-name="quotedbl" unicode="&#x22;" 
d="M515 850q80 0 145 -35t105 -92q18 2 31 2q91 0 155 -64t64 -155q0 -90 -64 -154t-155 -64q-43 0 -78 13q-88 -76 -203 -76t-203 76q-35 -13 -78 -13q-91 0 -155 64t-64 154q0 91 64 155t155 64q13 0 31 -2q40 57 105 92t145 35zM515 -150q-14 0 -24.5 10t-10.5 25v41
q-18 7 -31 18l-36 -20q-21 -11 -39 1.5t-11 36.5q5 16 15 21l35 21q-3 18 0 37l-35 20q-27 19 -12 48q6 12 19 16t28 -4l36 -21q15 14 31 20v41q0 13 11 24t24 11t24 -11t11 -24v-41q16 -6 31 -20l36 21q21 11 39 -2t11 -37q-5 -15 -15 -21l-35 -20q3 -19 0 -37l35 -21
q10 -6 14.5 -19.5t-2.5 -27.5q-16 -27 -47 -12l-36 20q-13 -11 -31 -18v-41q0 -15 -10.5 -25t-24.5 -10zM480 23q0 -14 10.5 -24t24.5 -10t24.5 10.5t10.5 23.5q0 14 -10.5 24t-24.5 10t-24.5 -10t-10.5 -24z" />
    <glyph glyph-name="numbersign" unicode="#" horiz-adv-x="817" 
d="M799 506h-153l-28 -223h181v-112h-195l-28 -223h-112l28 223h-223l-28 -223h-111l27 223h-139v112h154l27 223h-181v112h196l27 223h112l-28 -223h223l28 223h112l-28 -223h139v-112zM506 283l28 223h-223l-28 -223h223z" />
    <glyph glyph-name="dollar" unicode="$" 
d="M515 850q80 0 145 -35t105 -92q18 2 31 2q91 0 155 -64t64 -155q0 -90 -64 -154t-155 -64q-43 0 -78 13q-88 -76 -203 -76t-203 76q-35 -13 -78 -13q-91 0 -155 64t-64 154q0 91 64 155t155 64q13 0 31 -2q40 57 105 92t145 35zM140 162q0 26 18.5 44.5t43.5 18.5
q24 0 43.5 -19.5t19.5 -43.5q0 -25 -18.5 -43.5t-44.5 -18.5t-44 18t-18 44zM265 -88q0 26 18.5 44.5t44.5 18.5q24 0 43 -19.5t19 -43.5q0 -26 -18 -44t-44 -18t-44.5 18.5t-18.5 43.5zM452 100q0 25 18.5 43.5t44.5 18.5q24 0 43.5 -19t19.5 -43q0 -25 -18.5 -43.5
t-44.5 -18.5t-44.5 18.5t-18.5 43.5zM640 -88q0 26 18.5 44.5t43.5 18.5q24 0 43.5 -19.5t19.5 -43.5q0 -25 -18.5 -43.5t-44.5 -18.5t-44 18t-18 44zM765 162q0 26 18.5 44.5t44.5 18.5q24 0 42 -20q20 -18 20 -43q0 -26 -18 -44t-44 -18t-44.5 18.5t-18.5 43.5z" />
    <glyph glyph-name="percent" unicode="%" 
d="M15 234q0 91 64 155q65 65 155 65q16 0 31 -4l1 2q1 2 1 3q-2 20 -2 30q0 69 51 122q51 52 123 52q5 0 13 -2q71 89 188 89t188 -89q8 2 13 2q72 0 123 -52t51 -122q0 -67 -47 -117q47 -61 47 -133q0 -93 -64 -156q-65 -63 -155 -63q-41 0 -78 14q-88 -76 -203 -76
t-203 76q-37 -14 -78 -14q-91 0 -155 63t-64 155z" />
    <glyph glyph-name="ampersand" unicode="&#x26;" 
d="M15 336q0 91 64 155t155 64q13 0 31 -2q1 4 4 4q-4 16 -4 29q0 72 51 123t123 51h13q72 90 188 90t188 -90h13q72 0 123 -51t51 -123q0 -65 -47 -117q47 -59 47 -133q0 -90 -64 -154t-155 -64q-43 0 -78 13q-80 -71 -193 -74l-10 -19l63 -63l-188 -125l62 125l-62 63
l45 29q-73 20 -123 64q-35 -13 -78 -13q-91 0 -155 64t-64 154z" />
    <glyph glyph-name="quotesingle" unicode="'" horiz-adv-x="280" 
d="M15 38q0 73 63 107v574q0 28 18 48.5t44 20.5t44 -20.5t18 -48.5v-574q63 -34 63 -107q0 -51 -37.5 -88.5t-88.5 -37.5t-87.5 37.5t-36.5 88.5z" />
    <glyph glyph-name="parenleft" unicode="(" 
d="M161 704q146 146 354 146t354 -146t146 -354t-146 -354t-354 -146t-354 146t-146 354t146 354zM250 85q110 -110 265 -110t264 109q111 111 111 266t-110 265t-265 110t-265 -110t-110 -265t110 -265zM328 162l124 250l250 126l-124 -250z" />
    <glyph glyph-name="parenright" unicode=")" horiz-adv-x="827" 
d="M15 524h63q83 -119 144 -219h2v219h68v-344h-62l-86 129l-59 88h-2v-217h-68v344zM443 541h51l-127 -382h-51zM622 524h71l119 -344h-74l-22 70h-119l-23 -70h-73zM615 307h84l-21 67l-20 68h-2q-31 -100 -41 -135z" />
    <glyph glyph-name="asterisk" unicode="*" horiz-adv-x="476" 
d="M21 424q-14 31 1 60.5t40 37.5q32 14 61.5 -1t40.5 -40q6 -12 6 -27q0 -49 -48 -69q-33 -13 -61.5 0.5t-39.5 38.5zM58 454q0 -14 10.5 -24t24.5 -10t24 10t10 24t-10 23.5t-24 9.5t-24.5 -9.5t-10.5 -23.5zM224 284v128q0 52 40 82t91 30q70 0 106 -33l-33 -53
q-26 23 -71 23q-29 0 -46.5 -16.5t-17.5 -45.5v-100q0 -29 17.5 -45.5t46.5 -16.5q41 0 73 23l31 -53q-44 -35 -104 -35q-53 0 -93 31.5t-40 80.5z" />
    <glyph glyph-name="plus" unicode="+" horiz-adv-x="610" 
d="M565 400q30 0 30 -50t-30 -50h-210v-210q0 -30 -50 -30t-50 30v210h-210q-30 0 -30 50t30 50h210v210q0 30 50 30t50 -30v-210h210z" />
    <glyph glyph-name="comma" unicode="," horiz-adv-x="1136" 
d="M15 677v21l2 2h249l2 -2v-20q0 -8 -10 -8l-26 -1q-33 -1 -33 -20q0 -14 7 -28q52 -128 222 -484l6 -1l111 221q-3 6 -11 23.5t-11 25.5l-96 190q-24 48 -34 60q-8 10 -33 14q-14 2 -14 7v21l3 2h197l5 -1v-21q0 -8 -10 -8l-15 -2q-7 -1 -10 -1.5t-7.5 -2.5t-5.5 -5t-1 -8
q0 -6 4 -18l14 -30l73 -150l81 162q9 17 10.5 27t-6 16t-16.5 8t-29 4q-10 0 -10 9v19l3 2q57 2 186 0l2 -2v-20q0 -8 -9 -8q-22 -1 -30 -4.5t-17 -15.5q-22 -34 -30 -48l-105 -196l-3 -7l128 -262l8 -3l202 481q11 27 -2 40t-40 14l-19 1q-3 0 -6.5 3t-3.5 6v20l3 2h229
l2 -2v-20q0 -7 -9 -9q-44 -2 -64.5 -17t-35.5 -51l-250 -567q-21 -48 -46 -30q-13 10 -23 31q-40 80 -122 263q-100 -205 -131 -264q-41 -71 -71 -1q-13 30 -128 280.5t-132 290.5q-16 42 -28 52q-10 10 -52 13q-14 2 -14 7z" />
    <glyph glyph-name="hyphen" unicode="-" horiz-adv-x="610" 
d="M565 400q30 0 30 -50t-30 -50h-520q-30 0 -30 50t30 50h520z" />
    <glyph glyph-name="slash" unicode="/" horiz-adv-x="1339" 
d="M670 625q-29 0 -49.5 -20.5t-20.5 -48.5v-417q0 -121 -86 -205t-206 -84q-121 0 -207 86t-86 207v181h224v-179q0 -29 20.5 -49t48.5 -20q29 0 49.5 20.5t20.5 48.5v423q0 118 86 200t206 82q118 0 206 -83q86 -82 86 -201v-92l-134 -40l-89 42v80q0 28 -20.5 48.5
t-48.5 20.5zM739 140v183l89 -42l134 40v-184q0 -29 20.5 -49.5t48.5 -20.5t48.5 20.5t20.5 49.5v187h224v-181q0 -121 -86 -207t-206 -86q-122 0 -207 85q-86 86 -86 205z" />
    <glyph glyph-name="zero" unicode="0" 
d="M78 336q0 -64 46 -110t110 -46q51 0 90 29q22 -27 50 -45l-56 -37l-6 4q-35 -13 -78 -13q-91 0 -155 64t-64 154q0 91 64 155t155 64q13 0 31 -2q1 4 4 4q-4 16 -4 29q0 72 51 123t123 51h13q72 90 188 90t188 -90h13q72 0 123 -51t51 -123q0 -65 -47 -117
q47 -59 47 -133q0 -90 -64 -154t-155 -64q-40 0 -78 15q-39 -35 -92 -56l-35 35l12 23q62 25 103 74q39 -29 90 -29q64 0 110 46t46 110t-45.5 110.5t-110.5 46.5l-25 -2q-14 -2 -33 -10q-32 60 -89.5 98.5t-133.5 38.5q-104 0 -178 -77q-27 -27 -41 -54q-2 -4 -4 -6
q-27 12 -58 12q-64 0 -110 -46.5t-46 -110.5zM640 788q-54 0 -96 -28t-62 -70q-22 8 -43 8q-38 0 -66 -22t-40 -55q83 59 182 59q80 0 145 -35t105 -92q18 2 31 2q70 0 129 -41q27 32 27 72q0 47 -32.5 79.5t-78.5 32.5q-21 0 -43 -8q-20 42 -62 70t-96 28zM390 -150l62 188
l-62 62l188 125l-63 -125l63 -62z" />
    <glyph glyph-name="one" unicode="1" horiz-adv-x="842" 
d="M15 350q0 14 8.5 22.5t22.5 8.5h63q13 0 22 -8.5t9 -22.5t-9 -22.5t-22 -8.5h-63q-14 0 -22.5 8.5t-8.5 22.5zM134 108l45 43q21 21 43 0t0 -43l-43 -45q-24 -21 -45 0t0 45zM134 592q-21 24 0 45t45 0l43 -45q22 -22 0 -43t-43 0zM267 504q65 65 154 65q90 0 155 -65
q64 -64 64 -154t-64 -154q-65 -65 -155 -65q-89 0 -154 65t-65 154t65 154zM421 -56q-13 0 -22 9t-9 22v63q0 14 9 22.5t22 8.5t22 -8.5t9 -22.5v-63q0 -13 -9 -22t-22 -9zM421 631q-13 0 -22 8.5t-9 22.5v63q0 13 9 22t22 9t22 -9t9 -22v-63q0 -14 -9 -22.5t-22 -8.5z
M663 151l45 -43q21 -24 0 -45t-45 0l-43 45q-24 21 -1 43q23 21 44 0zM620 592l43 45q24 21 45 0t0 -45l-45 -43q-21 -21 -44 0q-23 22 1 43zM702 350q0 13 9 22t23 9h62q14 0 23 -9t9 -22t-9 -22t-23 -9h-62q-14 0 -23 9t-9 22z" />
    <glyph glyph-name="two" unicode="2" horiz-adv-x="456" 
d="M15 357q0 91 64 155q36 33 82 51q-21 -73 -5.5 -130.5t56.5 -98.5t99 -56t130 6q-18 -46 -51 -82q-65 -65 -155 -65q-91 0 -156 65q-64 64 -64 155z" />
    <glyph glyph-name="three" unicode="3" 
d="M77 283q61 63 149 67q-24 45 -24 94q0 89 65 154q64 64 154 64q91 0 154 -62q62 -61 65 -152q76 -34 125 -100q18 2 31 2q91 0 155 -64t64 -155q0 -90 -64 -154q-65 -65 -155 -65q-41 0 -78 14q-88 -76 -203 -76t-203 76q-37 -14 -78 -14q-90 0 -155 65q-64 64 -64 154
q0 88 62 152zM15 444q0 14 8.5 22.5t22.5 8.5h63q13 0 22 -8.5t9 -22.5t-9 -23t-22 -9h-63q-13 0 -22 9t-9 23zM134 686q-21 24 0 45t45 0l43 -45q22 -22 0 -43t-43 0zM421 600q-64 0 -110 -46t-46 -110q0 -38 20 -73q92 104 230 104q28 0 61 -6q-9 55 -52.5 93t-102.5 38z
M421 725q-13 0 -22 8.5t-9 22.5v63q0 13 9 22t22 9t22 -9t9 -22v-63q0 -14 -9 -22.5t-22 -8.5zM620 686l43 45q24 21 45 0t0 -45l-45 -43q-21 -21 -43 0t0 43zM702 444q0 13 9 22t23 9h62q14 0 23 -9t9 -22q0 -14 -9 -23t-23 -9h-62q-14 0 -23 9t-9 23z" />
    <glyph glyph-name="four" unicode="4" 
d="M865 338q64 -20 107 -76.5t43 -130.5q0 -90 -64 -154q-65 -65 -155 -65q-41 0 -78 14q-88 -76 -203 -76t-203 76q-37 -14 -78 -14q-90 0 -155 65q-64 64 -64 154q0 91 64 155t155 64q13 0 31 -2q77 107 211 125q-20 69 0 133.5t62 106.5q39 39 94 59q19 7 33 -7t8 -32
q-32 -85 12 -156.5t121 -89.5q52 -12 105 8q18 6 32.5 -8.5t7.5 -32.5q-27 -75 -86 -116zM533 577q-12 -57 7 -104q135 -9 219 -117q66 15 104 64q-112 -6 -192 74q-79 79 -72 190q-51 -39 -66 -107z" />
    <glyph glyph-name="five" unicode="5" 
d="M15 319q0 90 64 154q65 65 155 65q13 0 31 -2q40 56 105 91t145 35t145 -35t105 -91q18 2 31 2q90 0 155 -65q64 -64 64 -154q0 -91 -64 -155t-155 -64q-41 0 -78 14q-88 -76 -203 -76t-203 76q-37 -14 -78 -14q-91 0 -155 64t-64 155z" />
    <glyph glyph-name="six" unicode="6" 
d="M15 506q0 91 64 155t155 64q13 0 31 -2q40 57 105 92t145 35t145 -35t105 -92q18 2 31 2q91 0 155 -64t64 -155q0 -90 -64 -154t-155 -64q-43 0 -78 13q-74 -65 -182 -74l-21 -65l63 -62l-188 -188l62 188l-62 62l68 69q-81 15 -146 70q-35 -13 -78 -13q-91 0 -155 64
t-64 154z" />
    <glyph glyph-name="seven" unicode="7" 
d="M515 788q80 0 145 -35t105 -92q9 1 31 1q91 0 155 -64t64 -154q0 -91 -64 -155t-155 -64q-41 0 -78 14q-89 -77 -203 -77t-203 77q-37 -14 -78 -14q-91 0 -155 64t-64 155q0 90 64 154t155 64q22 0 31 -1q40 57 105 92t145 35zM452 -25q0 35 63 125l16 -23q17 -26 31 -55
q16 -34 16 -47q0 -25 -19 -44t-44 -19t-44 19t-19 44z" />
    <glyph glyph-name="eight" unicode="8" 
d="M515 850q80 0 145 -35t105 -92q18 2 31 2q91 0 155 -64t64 -155q0 -90 -64 -154t-155 -64q-43 0 -78 13q-88 -76 -203 -76t-203 76q-35 -13 -78 -13q-91 0 -155 64t-64 154q0 91 64 155t155 64q13 0 31 -2q40 57 105 92t145 35zM265 38q-26 0 -44.5 18.5t-18.5 43.5
q0 35 63 125l16 -23q17 -26 31 -55q16 -34 16 -47q0 -25 -18.5 -43.5t-44.5 -18.5zM517 -150q-26 0 -44.5 18.5t-18.5 43.5q0 36 63 126l16 -24q17 -26 31 -55q15 -31 15 -47q0 -26 -18.5 -44t-43.5 -18zM702 -25q0 35 63 125l16 -23q17 -26 31 -55q16 -34 16 -47
q0 -25 -19 -44t-44 -19t-44 19t-19 44z" />
    <glyph glyph-name="nine" unicode="9" 
d="M15 131q0 13 8.5 22t22.5 9h250q14 0 23 -9t9 -22t-9 -22t-23 -9h-250q-14 0 -22.5 9t-8.5 22zM15 256q0 14 9 23t22 9h125q13 0 22 -9t9 -23t-9 -22.5t-22 -8.5h-125q-14 0 -22.5 8.5t-8.5 22.5zM78 381q0 13 9 22t22 9h125q14 0 22.5 -9t8.5 -22t-8.5 -22t-22.5 -9
h-125q-13 0 -22 9t-9 22zM286 330q0 78 55 135.5t131 60.5q73 76 179 76q105 0 178 -76q76 -3 131 -60.5t55 -135.5q0 -79 -57 -136t-138 -57q-14 0 -34 2q-64 -41 -135 -41q-72 0 -136 41q-20 -2 -35 -2q-80 0 -137 57t-57 136z" />
    <glyph glyph-name="colon" unicode=":" horiz-adv-x="232" 
d="M116 622q40 0 69 -28.5t29 -68.5q0 -41 -29 -69t-69 -28q-41 0 -69 28t-28 69q0 40 28 68.5t69 28.5zM19 175q0 40 28 68.5t69 28.5q40 0 69 -28.5t29 -68.5q0 -41 -29 -69t-69 -28q-41 0 -69 28t-28 69z" />
    <glyph glyph-name="semicolon" unicode=";" horiz-adv-x="240" 
d="M116 671q40 0 69 -28.5t29 -68.5q0 -42 -29 -70t-69 -28q-41 0 -69 28t-28 70q0 40 28 68.5t69 28.5zM19 40q72 35 82 101q-30 7 -47.5 28.5t-17.5 50.5q0 36 24.5 60.5t60.5 24.5q44 0 72 -32t28 -81q0 -67 -55 -117t-147 -46v11z" />
    <glyph glyph-name="equal" unicode="=" 
d="M192 -31q-79 68 -128 165t-49 216q0 144 70 256.5t179 176.5q115 67 251 67q144 0 256.5 -70t176.5 -179q67 -115 67 -251q0 -207 -145 -352q-57 69 -141 112t-187 43q-113 0 -203.5 -51.5t-146.5 -132.5zM179 494q0 -17 12.5 -29.5t29.5 -12.5q7 0 9 1q143 58 298 58
t298 -58q1 0 4.5 -0.5t4.5 -0.5q17 0 29.5 13t12.5 29q0 25 -23 37q-159 63 -326 63q-171 0 -329 -64q-20 -14 -20 -36zM231 329q7 -13 23 -13q1 0 9 2q126 55 265 55q138 0 267 -56q6 -2 7 -2q16 0 23 13l5 17q0 14 -10 21q-139 62 -292 62q-152 0 -293 -62
q-10 -10 -10 -21zM304 185q108 51 224 51q112 0 219 -48q24 -14 35 12q9 25 -14 38q-108 53 -240 53q-130 0 -244 -55q-18 -10 -11 -35q10 -25 31 -16zM334 -116q80 104 208 104q113 0 193 -86q-103 -52 -220 -52q-95 0 -181 34z" />
    <glyph glyph-name="greater" unicode="&#x3e;" horiz-adv-x="1235" 
d="M1220 350q0 -49 -27.5 -87.5t-68.5 -58.5q0 -195 -260 -303q-46 -21 -68 -27t-79 -15q-59 -9 -93 -9q-118 0 -231 35q-3 3 -72 38q-97 52 -153 116q-57 65 -57 156h-5q-33 17 -59 50l-9 12q-15 27 -19 43.5t-4 52.5q0 63 49 106q50 44 113 44q61 0 105 -36h5
q133 82 335 82l5 4l70 267l242 -36q0 -1 2 -1q1 0 0 1q2 1 14 18l12 16q35 32 82 32q49 0 82.5 -32.5t33.5 -81.5t-34 -84t-82 -35q-55 0 -86 38t-31 97q-2 -1 -97.5 13t-109.5 17h-3l-16 -54l-23 -84q-19 -69 -25 -88v-3l5 -4q77 0 153 -22.5t128 -57.5q1 1 2 1t2 1l16 11
l16 12q3 2 13.5 8t18 7.5t19 3.5t25.5 2q68 0 116 -48.5t48 -116.5zM173 472q-48 0 -86 -41t-38 -90q0 -65 57 -112q5 59 48 116q46 60 101 101q-38 26 -82 26zM151 195q0 -107 111 -189q99 -73 207 -94q78 -14 146 -14q133 0 241 43t177 119h-3q28 35 43 68q13 29 13 73
q0 109 -96 187q-150 122 -373 122q-157 0 -301 -72q-71 -35 -118 -97.5t-47 -145.5zM337 268q0 37 22.5 59.5t59.5 22.5t62 -23t25 -59t-25.5 -60t-61.5 -24t-59 24t-23 60zM608 12q62 0 113 25.5t81 66.5h41q-25 -62 -93 -96q-67 -34 -142 -34q-74 0 -142 34q-69 34 -93 96
h44q25 -44 79 -68t112 -24zM709 268q0 38 23 60t61 22q34 0 58 -24t24 -58t-24 -59t-58 -25q-37 0 -60.5 23.5t-23.5 60.5zM964 736q0 -34 25 -59.5t60 -25.5q36 0 59 24.5t23 60.5q0 34 -24 58t-58 24q-33 0 -59 -24.5t-26 -57.5zM978 455q53 -35 94 -91t57 -121
q59 44 59 96q0 58 -36 100t-92 42q-44 0 -82 -26z" />
    <glyph glyph-name="question" unicode="?" horiz-adv-x="790" 
d="M15 108q0 22 12 64q23 87 87.5 158.5t146.5 102.5q-79 63 -79 161q0 87 62 146q63 60 149 60t149 -60q62 -59 62 -146q0 -97 -77 -160q101 -36 174.5 -124t73.5 -201q0 -93 -73 -106q-3 -10 -13 -26q-7 -18 -30.5 -31.5t-40.5 -17.5l-50 -12q-8 -2 -48.5 -8t-47.5 -6
q-1 0 -7 -1t-7 -1h-120q-53 0 -129 16q-79 17 -89 45q-18 18 -25 42q-25 5 -42 21q-38 15 -38 84z" />
    <glyph glyph-name="at" unicode="@" horiz-adv-x="928" 
d="M851 171h-163q-54 0 -88 46q-60 -47 -136 -47q-92 0 -157.5 65.5t-65.5 158t65.5 158t157.5 65.5h224v-334h90l1 -1q20 54 20 113q0 139 -98.5 236.5t-236.5 97.5t-236 -97.5t-98 -237t98 -237t236 -97.5q141 0 237 98l79 -79q-131 -131 -315.5 -131t-315.5 131
t-131 315.5t131 315.5t315.5 131t315.5 -131t131 -315q0 -120 -60 -224zM576 393v112h-112q-45 0 -78 -33t-33 -78.5t33 -78.5t78.5 -33t78.5 33t33 78z" />
    <glyph glyph-name="A" unicode="A" horiz-adv-x="626" 
d="M15 521q0 11 11 22t22 11q10 0 23 -11l43 -45q10 -10 10 -21t-11 -21.5t-21 -10.5l-21 10l-45 43q-11 13 -11 23zM94 194q0 14 9 22.5t22 8.5h375q14 0 23 -9t9 -22q0 -14 -9 -23t-23 -9h-375q-13 0 -22 9t-9 23zM98 287q12 78 72 133t143 55t143 -54.5t72 -132.5h-63
q-9 53 -51.5 88.5t-100.5 35.5t-100.5 -36t-51.5 -89h-63zM157 69q0 13 8.5 22t22.5 9h250q14 0 22.5 -9t8.5 -22t-8.5 -22t-22.5 -9h-250q-14 0 -22.5 9t-8.5 22zM313 538q-13 0 -22 9t-9 22v62q0 13 9 22t22 9t22 -9t9 -22v-62q0 -13 -9 -22t-22 -9zM512 455
q-11 11 -11 22q0 10 11 21l43 45q13 11 23 11q11 0 22 -11t11 -22q0 -10 -11 -23l-45 -43q-10 -10 -21 -10z" />
    <glyph glyph-name="B" unicode="B" horiz-adv-x="842" 
d="M15 350q0 14 8.5 22.5t22.5 8.5h63q13 0 22 -8.5t9 -22.5t-9 -22.5t-22 -8.5h-63q-14 0 -22.5 8.5t-8.5 22.5zM156 52q-11 0 -22 11t-11 22q0 10 11 23l45 43q11 12 22 12l21 -11q11 -11 11 -22t-11 -22l-43 -45q-13 -11 -23 -11zM123 615q0 11 11 22t22 11q10 0 23 -11
l43 -45q11 -11 11 -21q0 -11 -11 -22t-21 -11l-22 11l-45 43q-11 13 -11 23zM267 504q65 65 154 65q90 0 155 -65q64 -64 64 -154t-64 -154q-65 -65 -155 -65q-89 0 -154 65t-65 154t65 154zM265 350q0 -64 46 -110t110 -46t110.5 46.5t46.5 109.5q0 64 -46.5 110t-110.5 46
t-110 -46t-46 -110zM421 -56q-13 0 -22 9t-9 22v63q0 14 9 22.5t22 8.5t22 -8.5t9 -22.5v-63q0 -13 -9 -22t-22 -9zM421 631q-13 0 -22 8.5t-9 22.5v63q0 13 9 22t22 9t22 -9t9 -22v-63q0 -14 -9 -22.5t-22 -8.5zM719 85q0 -11 -11 -22t-22 -11q-10 0 -23 11l-43 45
q-10 10 -10 21t11 22t21 11l21 -11l45 -43q11 -13 11 -23zM686 648q11 0 22 -11t11 -22q0 -10 -11 -23l-45 -43q-11 -11 -21 -11l-22 11q-10 10 -10 22q0 11 10 21l43 45q13 11 23 11zM702 350q0 13 9 22t23 9h62q14 0 23 -9t9 -22t-9 -22t-23 -9h-62q-14 0 -23 9t-9 22z
" />
    <glyph glyph-name="C" unicode="C" horiz-adv-x="518" 
d="M472 315q12 0 21.5 -10t9.5 -21q0 -2 -2 -10q-20 -56 -58 -94q-74 -74 -178 -74t-177 73t-73 177t74 178q38 38 94 58q8 2 10 2q12 0 21.5 -10t9.5 -22q0 -3 -2 -11q-10 -29 -10 -61q0 -79 54 -133q38 -38 91 -50q19 -4 42 -4q32 0 61 10q8 2 12 2zM78 357q0 -79 54 -134
q54 -54 131 -54q93 0 148 72q-3 0 -9 -0.5t-10 -0.5q-99 0 -171 72t-72 171q0 3 0.5 9t0.5 10q-12 -7 -18 -13q-54 -54 -54 -132z" />
    <glyph glyph-name="D" unicode="D" horiz-adv-x="780" 
d="M15 321q0 13 8.5 22t22.5 9h63q13 0 22 -9t9 -22q0 -14 -9 -23t-22 -9h-63q-13 0 -22 9t-9 23zM156 23q-11 0 -22 11t-11 22q0 10 11 23l45 42q11 13 22 13l21 -12q11 -11 11 -22q0 -10 -11 -21l-43 -45q-13 -11 -23 -11zM123 586q0 11 11 22t22 11q10 0 23 -11l43 -45
q11 -11 11 -22t-10.5 -21.5t-21.5 -10.5l-22 11l-45 43q-11 13 -11 23zM267 475q64 64 154 64q35 0 63 -9q28 9 62 9q91 0 155 -64t64 -154q0 -91 -64 -155t-155 -64q-31 0 -62 10q-31 -10 -63 -10q-90 0 -154 64q-65 65 -65 155q0 89 65 154zM390 473q-52 -9 -88.5 -52.5
t-36.5 -99.5q0 -57 37 -100.5t88 -52.5q-62 62 -62 153q0 90 62 152zM421 -86q-13 0 -22 9t-9 23v62q0 14 9 22.5t22 8.5t22 -8.5t9 -22.5v-62q0 -14 -9 -23t-22 -9zM390 633v63q0 14 9 22.5t22 8.5t22 -8.5t9 -22.5v-63q0 -13 -9 -22t-22 -9t-22 9t-9 22z" />
    <glyph glyph-name="E" unicode="E" horiz-adv-x="968" 
d="M15 258q0 14 11 22.5t26 8.5h168q-11 34 -14 63h-97q-13 0 -22 9t-9 22t9 22t22 9h97q3 29 14 63h-174q-14 0 -22.5 8.5t-8.5 22.5t8.5 22.5t22.5 8.5h203q38 54 99 89.5t136 35.5q108 0 186 -72q79 -73 91 -178h160q13 0 22 -9t9 -22t-9 -22t-22 -9h-160q-3 -29 -14 -63
h43q16 0 27 -8.5t11 -22.5t-11 -22.5t-27 -8.5h-72q-38 -54 -98.5 -89.5t-135.5 -35.5t-136 35.5t-99 89.5h-197q-15 0 -26 8.5t-11 22.5zM286 289h395q13 30 18 63h-430q5 -36 17 -63zM515 508q0 -14 -8.5 -22.5t-22.5 -8.5h-198q-12 -27 -17 -63h430q-12 78 -72 133
t-143 55q-88 0 -153 -63h153q14 0 22.5 -8.5t8.5 -22.5zM331 227q65 -63 153 -63t152 63h-305z" />
    <glyph glyph-name="F" unicode="F" horiz-adv-x="842" 
d="M15 194q0 14 12 22.5t29 8.5h490q39 0 66.5 -27.5t27.5 -66.5t-27.5 -66t-66.5 -27t-66.5 27t-27.5 66q0 16 6 31h-402q-17 0 -29 9t-12 23zM15 319q0 13 8.5 22t22.5 9h600q-6 15 -6 31q0 39 27.5 66.5t66.5 27.5t66.5 -27.5t27.5 -66.5t-27.5 -66t-66.5 -27h-688
q-14 0 -22.5 9t-8.5 22zM15 444q0 14 8.5 22.5t22.5 8.5h287q-5 13 -5 31q0 39 27 66.5t66 27.5t66.5 -27.5t27.5 -66.5t-27.5 -66.5t-66.5 -27.5h-375q-13 0 -22 9t-9 23z" />
    <glyph glyph-name="G" unicode="G" horiz-adv-x="588" 
d="M80 163q-27 0 -46 17t-19 44q0 11 2 17q6 25 29 39l64 37q-4 15 -4 33q0 19 4 35l-64 35q-31 21 -31 56q0 28 17.5 45t45.5 17q16 0 30 -8l65 -37q31 23 58 33v74q0 25 18.5 43.5t44.5 18.5t44 -18t18 -44v-74q29 -11 59 -33l64 37q13 7 29 7q27 0 46 -17t19 -44
q0 -35 -31 -56l-65 -37q4 -15 4 -33t-4 -33l65 -37q31 -21 31 -56q0 -27 -19 -44t-46 -17q-16 0 -29 7l-64 37q-27 -21 -59 -33v-74q0 -26 -18 -44t-44 -18t-44.5 18.5t-18.5 43.5v74q-27 10 -58 33l-65 -37q-13 -7 -28 -7zM231 350q0 -26 18 -45q18 -17 45 -17q26 0 44 18
t18 44t-18 44t-44 18t-44.5 -18.5t-18.5 -43.5z" />
    <glyph glyph-name="H" unicode="H" 
d="M77 283q61 63 149 67q-24 45 -24 94q0 89 65 154q64 64 154 64q91 0 154 -62q62 -61 65 -152q76 -34 125 -100q18 2 31 2q91 0 155 -64t64 -155q0 -90 -64 -154q-65 -65 -155 -65q-41 0 -78 14q-88 -76 -203 -76t-203 76q-37 -14 -78 -14q-90 0 -155 65q-64 64 -64 154
q0 88 62 152zM15 444q0 14 8.5 22.5t22.5 8.5h63q13 0 22 -8.5t9 -22.5t-9 -23t-22 -9h-63q-13 0 -22 9t-9 23zM78 131q0 -64 46 -110t110 -46q51 0 90 29q77 -92 191 -92t191 92q39 -29 90 -29q64 0 110 46t46 110t-46 110.5t-110 46.5q-31 0 -58 -12q-37 69 -108 107
q-33 17 -58 22q-27 7 -57 7q-115 0 -191 -89q-20 -23 -32 -47q-2 0 -15 4q-24 8 -43 8q-64 0 -110 -46.5t-46 -110.5zM123 709q0 11 11 22t22 11q10 0 23 -11l43 -45q11 -11 11 -22q0 -10 -10.5 -21t-21.5 -11l-22 11l-45 43q-11 13 -11 23zM421 600q-64 0 -110 -46
t-46 -110q0 -38 20 -73q92 104 230 104q28 0 61 -6q-9 55 -52.5 93t-102.5 38zM421 725q-13 0 -22 8.5t-9 22.5v63q0 13 9 22t22 9t22 -9t9 -22v-63q0 -14 -9 -22.5t-22 -8.5zM686 742q11 0 22 -11t11 -22q0 -10 -11 -23l-45 -43q-11 -11 -21 -11l-22 11q-10 10 -10 21
q0 12 10 22l43 45q13 11 23 11zM702 444q0 13 9 22t23 9h62q14 0 23 -9t9 -22q0 -14 -9 -23t-23 -9h-62q-14 0 -23 9t-9 23z" />
    <glyph glyph-name="I" unicode="I" 
d="M865 338q64 -20 107 -76.5t43 -130.5q0 -90 -64 -154q-65 -65 -155 -65q-41 0 -78 14q-88 -76 -203 -76t-203 76q-37 -14 -78 -14q-90 0 -155 65q-64 64 -64 154q0 91 64 155t155 64q13 0 31 -2q77 107 211 125q-9 32 -9 64q0 105 71 176q39 39 94 59q7 3 13 3
q11 0 20.5 -10.5t9.5 -21.5q0 -2 -2 -10q-12 -33 -12 -66q0 -73 54 -129q56 -56 131 -56q29 0 65 13q4 1 11 1q11 0 21 -9.5t10 -20.5q0 -7 -2 -12q-27 -75 -86 -116zM78 131q0 -64 46 -110t110 -46q51 0 90 29q77 -92 191 -92t191 92q39 -29 90 -29q64 0 110 46t46 110
t-46 110.5t-110 46.5q-31 0 -58 -12q-8 8 -8 13q-27 41 -59 69q-72 54 -156 54q-14 0 -14 -1q-71 -3 -124.5 -40.5t-84.5 -94.5q-27 12 -58 12q-64 0 -110 -46.5t-46 -110.5zM533 577q-5 -23 -5 -41q0 -33 12 -63q135 -9 219 -117q66 15 104 64h-15q-101 0 -177 74
q-73 73 -73 170q0 4 0.5 10t0.5 10q-51 -39 -66 -107z" />
    <glyph glyph-name="J" unicode="J" horiz-adv-x="842" 
d="M15 8q0 14 8.5 22.5t22.5 8.5h750q14 0 23 -9t9 -22t-9 -22t-23 -9h-750q-14 0 -22.5 8.5t-8.5 22.5zM15 133q0 13 8.5 22t22.5 9h750q14 0 23 -9t9 -22t-9 -22t-23 -9h-750q-14 0 -22.5 9t-8.5 22zM15 258q0 14 8.5 22.5t22.5 8.5h750q14 0 23 -9t9 -22t-9 -22t-23 -9
h-750q-14 0 -22.5 8.5t-8.5 22.5zM15 383q0 13 8.5 22t22.5 9h63q13 0 22 -9t9 -22t-9 -22t-22 -9h-63q-14 0 -22.5 9t-8.5 22zM123 648q0 11 11 22t22 11q10 0 23 -11l43 -45q11 -11 11 -21t-10.5 -21t-21.5 -11l-22 10l-45 43q-11 13 -11 23zM421 539q-64 0 -110 -46
t-46 -110q0 -16 4 -31h-63q-4 20 -4 31q0 90 65 155q64 64 154 64q91 0 155 -64t64 -155q0 -11 -4 -31h-62q4 15 4 31q0 64 -46.5 110t-110.5 46zM421 664q-13 0 -22 9t-9 23v62q0 14 9 22.5t22 8.5t22 -8.5t9 -22.5v-62q0 -14 -9 -23t-22 -9zM686 681q11 0 22 -11t11 -22
q0 -10 -11 -23l-45 -43q-10 -10 -21 -10l-22 10q-10 10 -10 22q0 11 10 21l43 45q13 11 23 11zM702 383q0 13 9 22t23 9h62q14 0 23 -9t9 -22t-9 -22t-23 -9h-62q-14 0 -23 9t-9 22z" />
    <glyph glyph-name="K" unicode="K" horiz-adv-x="842" 
d="M15 8q0 14 8.5 22.5t22.5 8.5h750q14 0 23 -9t9 -22t-9 -22t-23 -9h-750q-14 0 -22.5 8.5t-8.5 22.5zM15 133q0 13 8.5 22t22.5 9h750q14 0 23 -9t9 -22t-9 -22t-23 -9h-750q-14 0 -22.5 9t-8.5 22zM15 258q0 14 8.5 22.5t22.5 8.5h750q14 0 23 -9t9 -22t-9 -22t-23 -9
h-750q-14 0 -22.5 8.5t-8.5 22.5zM203 512q7 73 53 129t113 80q8 2 11 2q12 0 21.5 -10t9.5 -21q0 -6 -1 -10q-13 -36 -13 -66q0 -75 55 -130q56 -54 130 -54l66 12q8 2 10 2q12 0 21.5 -10t9.5 -22q0 -3 -2 -11q-11 -29 -24 -51h-82q17 15 18 18q-3 0 -10 -0.5t-10 -0.5
q-98 0 -170 73q-74 76 -74 176v15q-33 -24 -51.5 -63t-18.5 -83q0 -78 57 -135h-80q-40 63 -40 133q0 18 1 27z" />
    <glyph glyph-name="L" unicode="L" 
d="M15 6q0 14 9 23t22 9h938q13 0 22 -9t9 -23t-8.5 -22.5t-22.5 -8.5h-938q-14 0 -22.5 8.5t-8.5 22.5zM15 131q0 13 8.5 22t22.5 9h938q14 0 22.5 -9t8.5 -22t-8.5 -22t-22.5 -9h-938q-14 0 -22.5 9t-8.5 22zM15 256q0 14 9 23t22 9h938q13 0 22 -9t9 -23t-8.5 -22.5
t-22.5 -8.5h-938q-14 0 -22.5 8.5t-8.5 22.5zM15 381q0 91 64 155t155 64q13 0 31 -2q40 57 105 92t145 35t145 -35t105 -92q18 2 31 2q91 0 155 -64t64 -155q0 -11 -4 -31h-62q3 11 3 31q0 64 -46 110.5t-110 46.5q-31 0 -58 -12q-32 59 -89.5 97.5t-133.5 38.5
t-133.5 -38.5t-89.5 -97.5q-27 12 -58 12q-64 0 -110 -46.5t-46 -110.5q0 -20 3 -31h-62q-4 20 -4 31z" />
    <glyph glyph-name="M" unicode="M" horiz-adv-x="655" 
d="M15 194q0 14 8.5 22.5t22.5 8.5h563q13 0 22 -8.5t9 -22.5t-9 -23t-22 -9h-563q-13 0 -22 9t-9 23zM15 319q0 13 8.5 22t22.5 9h563q13 0 22 -9t9 -22t-9 -22t-22 -9h-563q-14 0 -22.5 9t-8.5 22zM15 444q0 14 8.5 22.5t22.5 8.5h563q13 0 22 -8.5t9 -22.5t-9 -23t-22 -9
h-563q-13 0 -22 9t-9 23zM15 569q0 13 8.5 22t22.5 9h563q13 0 22 -9t9 -22t-9 -22t-22 -9h-563q-14 0 -22.5 9t-8.5 22z" />
    <glyph glyph-name="N" unicode="N" 
d="M515 662q80 0 145 -35t105 -91q18 2 31 2q90 0 155 -65q64 -64 64 -154q0 -91 -64 -155t-155 -64q-41 0 -78 14q-88 -76 -203 -76t-203 76q-37 -14 -78 -14q-91 0 -155 64t-64 155q0 90 64 154q65 65 155 65q13 0 31 -2q40 56 105 91t145 35zM78 319q0 -64 46 -110.5
t110 -46.5q50 0 90 30q77 -92 191 -92t191 92q40 -30 90 -30q64 0 110 46.5t46 110.5t-46 110t-110 46q-31 0 -58 -12q-32 60 -89.5 98.5t-133.5 38.5t-133.5 -38.5t-89.5 -98.5q-27 12 -58 12q-64 0 -110 -46t-46 -110z" />
    <glyph glyph-name="O" unicode="O" 
d="M515 850q80 0 145 -35t105 -92q18 2 31 2q91 0 155 -64t64 -155q0 -90 -64 -154t-155 -64q-43 0 -78 13q-74 -65 -182 -74l-21 -65l63 -62l-188 -188l62 188l-62 62l68 69q-81 15 -146 70q-35 -13 -78 -13q-91 0 -155 64t-64 154q0 91 64 155t155 64q13 0 31 -2
q40 57 105 92t145 35zM78 506q0 -64 46 -110t110 -46q51 0 90 29q76 -91 191 -91l43 5q89 15 148 86q39 -29 90 -29q64 0 110 46t46 110t-46 110t-110 46q-33 0 -58 -11q-32 60 -89.5 98.5t-133.5 38.5t-133.5 -38.5t-89.5 -98.5q-25 11 -58 11q-64 0 -110 -46t-46 -110z
" />
    <glyph glyph-name="P" unicode="P" 
d="M78 506q0 -64 46 -110t110 -46q51 0 90 29q46 -55 117 -78l-49 -49q-47 19 -80 49q-35 -13 -78 -13q-91 0 -155 64t-64 154q0 91 64 155t155 64q13 0 31 -2q40 57 105 92t145 35t145 -35t105 -92q18 2 31 2q91 0 155 -64t64 -155q0 -90 -64 -154t-155 -64q-43 0 -78 13
q-46 -41 -111 -60l25 78q48 29 74 60q39 -29 90 -29q64 0 110 46t46 110t-46 110t-110 46q-33 0 -58 -11q-32 60 -89.5 98.5t-133.5 38.5t-133.5 -38.5t-89.5 -98.5q-25 11 -58 11q-64 0 -110 -46t-46 -110zM390 -88l62 188l-62 62l188 188l-63 -188l63 -62z" />
    <glyph glyph-name="Q" unicode="Q" 
d="M515 788q80 0 145 -35t105 -92q9 1 31 1q91 0 155 -64t64 -154q0 -91 -64 -155t-155 -64q-41 0 -78 14q-89 -77 -203 -77t-203 77q-37 -14 -78 -14q-91 0 -155 64t-64 155q0 90 64 154t155 64q22 0 31 -1q40 57 105 92t145 35zM78 444q0 -64 46 -110t110 -46q51 0 90 29
q77 -92 191 -92t191 92q39 -29 90 -29q64 0 110 46t46 110t-46 110t-110 46q-31 0 -58 -12q-32 60 -89.5 98.5t-133.5 38.5t-133.5 -38.5t-89.5 -98.5q-27 12 -58 12q-64 0 -110 -46t-46 -110zM452 -25q0 35 63 125l16 -23q17 -26 31 -55q16 -34 16 -47q0 -25 -19 -44
t-44 -19t-44 19t-19 44z" />
    <glyph glyph-name="R" unicode="R" 
d="M515 850q80 0 145 -35t105 -92q18 2 31 2q91 0 155 -64t64 -155q0 -90 -64 -154t-155 -64q-43 0 -78 13q-88 -76 -203 -76t-203 76q-35 -13 -78 -13q-91 0 -155 64t-64 154q0 91 64 155t155 64q13 0 31 -2q40 57 105 92t145 35zM78 506q0 -64 46 -110t110 -46q51 0 90 29
q76 -91 191 -91t191 91q39 -29 90 -29q64 0 110 46t46 110t-46 110t-110 46q-33 0 -58 -11q-32 60 -89.5 98.5t-133.5 38.5t-133.5 -38.5t-89.5 -98.5q-25 11 -58 11q-64 0 -110 -46t-46 -110zM265 38q-26 0 -44.5 18.5t-18.5 43.5q0 35 63 125l16 -23q17 -26 31 -55
q16 -34 16 -47q0 -25 -18.5 -43.5t-44.5 -18.5zM517 -150q-26 0 -44.5 18.5t-18.5 43.5q0 36 63 126l16 -24q17 -26 31 -55q15 -31 15 -47q0 -26 -18.5 -44t-43.5 -18zM702 -25q0 35 63 125l16 -23q17 -26 31 -55q16 -34 16 -47q0 -25 -19 -44t-44 -19t-44 19t-19 44z" />
    <glyph glyph-name="S" unicode="S" 
d="M15 131q0 13 8.5 22t22.5 9h250q14 0 23 -9t9 -22t-9 -22t-23 -9h-250q-14 0 -22.5 9t-8.5 22zM15 256q0 14 9 23t22 9h125q13 0 22 -9t9 -23t-9 -22.5t-22 -8.5h-125q-14 0 -22.5 8.5t-8.5 22.5zM78 381q0 13 9 22t22 9h125q14 0 22.5 -9t8.5 -22t-8.5 -22t-22.5 -9
h-125q-13 0 -22 9t-9 22zM480 137q-80 0 -137 57t-57 136q0 78 55 135.5t131 60.5q73 76 179 76q105 0 178 -76q76 -3 131 -60.5t55 -135.5q0 -79 -57 -136t-138 -57q-14 0 -34 2q-64 -41 -135 -41q-72 0 -136 41q-20 -2 -35 -2zM349 330q0 -54 38.5 -92t92.5 -38q27 0 47 7
q55 -46 124 -46q70 0 122 46q21 -7 47 -7q54 0 93 38t39 92t-39 93.5t-93 39.5q-6 0 -18 -2q-56 78 -151 78q-97 0 -152 -78q-12 2 -19 2q-54 0 -92.5 -39.5t-38.5 -93.5z" />
    <glyph glyph-name="T" unicode="T" 
d="M15 318q0 13 9 21.5t22 8.5h250q14 0 23 -8.5t9 -21.5t-9.5 -22.5t-22.5 -9.5h-250q-13 0 -22 9.5t-9 22.5zM15 443q0 13 9 21.5t22 8.5h125q13 0 22 -8.5t9 -21.5t-9 -22.5t-22 -9.5h-125q-13 0 -22 9.5t-9 22.5zM78 568q0 13 9 21.5t22 8.5h125q13 0 22 -8.5t9 -21.5
t-9 -22.5t-22 -9.5h-125q-13 0 -22 9.5t-9 22.5zM1015 518q0 -82 -56.5 -138.5t-138.5 -56.5q-14 0 -34 2q-63 -39 -135 -39q-73 0 -136 39q-20 -2 -35 -2q-81 0 -137 56q-57 57 -57 139q0 78 55 134t131 59q74 77 179 77q104 0 178 -77q76 -3 131 -59t55 -134zM349 518
q0 -54 38.5 -93.5t92.5 -39.5q25 0 47 8q55 -45 124 -45t122 45q24 -8 47 -8q54 0 93 39.5t39 93.5t-39 92.5t-93 38.5h-18q-57 76 -151 76q-95 0 -152 -76h-19q-54 0 -92.5 -38.5t-38.5 -92.5zM515 38q-26 0 -44.5 18.5t-18.5 43.5q0 35 63 125l16 -23q17 -26 31 -55
q16 -34 16 -47q0 -25 -18.5 -43.5t-44.5 -18.5zM702 -25q0 35 63 125l16 -23q17 -26 31 -55q16 -34 16 -47q0 -25 -19 -44t-44 -19t-44 19t-19 44z" />
    <glyph glyph-name="U" unicode="U" 
d="M515 850q80 0 145 -35t105 -92q18 2 31 2q91 0 155 -64t64 -155q0 -90 -64 -154t-155 -64q-43 0 -78 13q-88 -76 -203 -76t-203 76q-35 -13 -78 -13q-91 0 -155 64t-64 154q0 91 64 155t155 64q13 0 31 -2q40 57 105 92t145 35zM78 506q0 -64 46 -110t110 -46q51 0 90 29
q76 -91 191 -91t191 91q39 -29 90 -29q64 0 110 46t46 110t-46 110t-110 46q-33 0 -58 -11q-32 60 -89.5 98.5t-133.5 38.5t-133.5 -38.5t-89.5 -98.5q-25 11 -58 11q-64 0 -110 -46t-46 -110zM515 -150q-14 0 -24.5 10t-10.5 25v41q-18 7 -31 18l-36 -20q-18 -10 -35 -0.5
t-17 28.5q0 2 2 10q5 16 15 21l35 21q-2 12 -2 19q0 6 2 18l-35 20q-17 11 -17 31t16.5 29.5t35.5 -0.5l36 -21q15 14 31 20v41q0 13 11 24t24 11t24 -11t11 -24v-41q16 -6 31 -20l36 21q19 10 35.5 0.5t16.5 -29.5t-17 -31l-35 -20q2 -12 2 -18q0 -7 -2 -19l35 -21
q17 -9 17 -31q0 -19 -17 -28.5t-35 0.5l-36 20q-13 -11 -31 -18v-41q0 -15 -10.5 -25t-24.5 -10zM480 23q0 -14 10.5 -24t24.5 -10t24.5 10.5t10.5 23.5q0 14 -10.5 24t-24.5 10t-24.5 -10t-10.5 -24z" />
    <glyph glyph-name="V" unicode="V" 
d="M78 506q0 -64 46 -110t110 -46q51 0 90 29q0 -1 19 -19q-22 -14 -31 -33q-7 -11 -12 -28q-30 -11 -66 -11q-91 0 -155 64t-64 154q0 91 64 155t155 64q13 0 31 -2q40 57 105 92t145 35t145 -35t105 -92q18 2 31 2q91 0 155 -64t64 -155q0 -90 -64 -154t-155 -64
q-36 0 -66 11q-5 17 -12 28q-9 19 -31 33q2 2 6 5.5t7.5 7t5.5 6.5q39 -29 90 -29q64 0 110 46t46 110t-46 110t-110 46q-33 0 -58 -11q-32 60 -89.5 98.5t-133.5 38.5t-133.5 -38.5t-89.5 -98.5q-25 11 -58 11q-64 0 -110 -46t-46 -110zM515 38q-14 0 -24.5 10t-10.5 25v41
q-20 7 -31 17l-36 -19q-18 -10 -35 -0.5t-17 28.5q0 2 2 10q4 15 15 20l35 22q-2 12 -2 18q0 7 2 19l-35 19q-17 11 -17 31t17 30t35 0l36 -21q13 13 31 19v41q0 14 11 24.5t24 10.5t24 -10.5t11 -24.5v-41q18 -6 31 -19l36 21q19 10 35.5 0t16.5 -30t-17 -31l-35 -19
q2 -12 2 -19q0 -6 -2 -18l35 -22q17 -8 17 -30q0 -19 -17 -28.5t-35 0.5l-36 19q-11 -10 -31 -17v-41q0 -15 -10.5 -25t-24.5 -10zM480 210q0 -14 10.5 -24t24.5 -10t24.5 10.5t10.5 23.5q0 14 -10.5 24.5t-24.5 10.5t-24.5 -10.5t-10.5 -24.5z" />
    <glyph glyph-name="W" unicode="W" 
d="M515 850q80 0 145 -35t105 -92q18 2 31 2q91 0 155 -64t64 -155q0 -90 -64 -154t-155 -64q-43 0 -78 13q-88 -76 -203 -76t-203 76q-35 -13 -78 -13q-91 0 -155 64t-64 154q0 91 64 155t155 64q13 0 31 -2q40 57 105 92t145 35zM94 98q-20 0 -20 23q0 13 15 18l24 6
q0 11 6 21l-18 18q-7 7 -7 14q0 8 7 15t15 7q7 0 14 -7l18 -17q9 3 21 6l6 23q5 15 17 15q10 0 17 -5.5t7 -12.5q0 -3 -2 -9l-6 -23q10 -6 16 -16l23 8q1 0 3 0.5t3 0.5q8 0 14.5 -7t6.5 -17q0 -13 -17 -18l-23 -6q0 -11 -6 -21l17 -18q9 -8 9 -15t-8 -14t-15 -7q-8 0 -15 7
l-15 17q-3 -1 -10.5 -2.5t-11.5 -2.5l-8 -24q-3 -16 -16 -16q-24 0 -24 19q0 6 1 9l6 23q-6 2 -16 16l-23 -8h-5zM78 506q0 -64 46 -110t110 -46q51 0 90 29q76 -91 191 -91t191 91q39 -29 90 -29q64 0 110 46t46 110t-46 110t-110 46q-33 0 -58 -11q-32 60 -89.5 98.5
t-133.5 38.5t-133.5 -38.5t-89.5 -98.5q-25 11 -58 11q-64 0 -110 -46t-46 -110zM173 119l15 6q7 7 7 14t-8 14.5t-15 7.5l-13 -7q-8 -8 -8 -15q0 -6 8 -14q6 -6 14 -6zM515 -150q-14 0 -24.5 10t-10.5 25v41q-18 7 -31 18l-36 -20q-18 -10 -35 -0.5t-17 28.5q0 22 17 31
l35 21q-2 12 -2 19q0 6 2 18l-35 20q-17 11 -17 31t16.5 29.5t35.5 -0.5l36 -21q15 14 31 20v41q0 13 11 24t24 11t24 -11t11 -24v-41q16 -6 31 -20l36 21q21 11 39 -2t11 -37q-5 -15 -15 -21l-35 -20q2 -12 2 -18q0 -7 -2 -19l35 -21q10 -6 14.5 -19.5t-2.5 -27.5
q-16 -27 -47 -12l-36 20q-13 -11 -31 -18v-41q0 -15 -10.5 -25t-24.5 -10zM480 23q0 -14 10.5 -24t24.5 -10t24.5 10.5t10.5 23.5q0 14 -10.5 24t-24.5 10t-24.5 -10t-10.5 -24zM756 96q0 10 5 16.5t13 6.5q6 0 9 -1l23 -6q5 9 16 15l-6 24q-2 6 -2 8q0 8 7 13.5t17 5.5
q12 0 17 -16l6 -23q12 -3 21 -6l18 18q7 7 14 7t14.5 -7.5t7.5 -15.5q0 -7 -7 -14l-18 -17q6 -10 6 -22l24 -5q15 -5 15 -19q0 -23 -20 -23q-1 0 -2.5 0.5t-2.5 0.5l-23 7q-9 -12 -16 -15l6 -24q1 -3 1 -8q0 -19 -24 -19q-13 0 -16 16l-8 23q-16 4 -22 6l-15 -18
q-7 -7 -15 -7q-7 0 -15 7.5t-8 14.5t9 15l17 17q-6 9 -6 22l-23 6q-17 5 -17 17zM842 63q7 -7 15 -7l14 7q7 7 7 13q0 7 -7.5 15t-14.5 8l-14 -8q-7 -7 -7 -14t7 -14z" />
    <glyph glyph-name="X" unicode="X" 
d="M515 850q80 0 145 -35t105 -92q18 2 31 2q91 0 155 -64t64 -155q0 -90 -64 -154t-155 -64q-43 0 -78 13q-88 -76 -203 -76t-203 76q-35 -13 -78 -13q-91 0 -155 64t-64 154q0 91 64 155t155 64q13 0 31 -2q40 57 105 92t145 35zM78 506q0 -64 46 -110t110 -46q28 0 54 10
l36 13l29 -25q71 -60 162 -60t162 60l29 25l36 -13q26 -10 54 -10q64 0 110 46t46 110t-46 110t-110 46q-15 0 -21 -1l-37 -6l-24 31q-74 102 -199 102t-199 -102l-24 -31l-37 6q-6 1 -21 1q-64 0 -110 -46t-46 -110zM140 162q0 26 18.5 44.5t43.5 18.5q24 0 43.5 -19.5
t19.5 -43.5q0 -25 -18.5 -43.5t-44.5 -18.5t-44 18t-18 44zM265 -88q0 26 18.5 44.5t44.5 18.5q24 0 43 -19.5t19 -43.5q0 -26 -18 -44t-44 -18t-44.5 18.5t-18.5 43.5zM452 100q0 25 18.5 43.5t44.5 18.5q24 0 43.5 -19t19.5 -43q0 -25 -18.5 -43.5t-44.5 -18.5t-44.5 18.5
t-18.5 43.5zM640 -88q0 26 18.5 44.5t43.5 18.5q24 0 43.5 -19.5t19.5 -43.5q0 -25 -18.5 -43.5t-44.5 -18.5t-44 18t-18 44zM765 162q0 26 18.5 44.5t44.5 18.5q24 0 42 -20q20 -18 20 -43q0 -26 -18 -44t-44 -18t-44.5 18.5t-18.5 43.5z" />
    <glyph glyph-name="Y" unicode="Y" 
d="M841 555q72 0 123 -51t51 -123q0 -65 -47 -117q47 -61 47 -133q0 -90 -64 -154q-65 -65 -155 -65q-41 0 -78 14q-88 -76 -203 -76t-203 76q-37 -14 -78 -14q-90 0 -155 65q-64 64 -64 154q0 91 64 155t155 64q13 0 31 -2q1 4 4 4q-4 16 -4 29q0 72 51 123t123 51h13
q72 90 188 90t188 -90h13zM78 131q0 -64 46 -110t110 -46q51 0 90 29q77 -92 191 -92t191 92q39 -29 90 -29q64 0 110 46t46 110t-45.5 110.5t-110.5 46.5l-25 -2q-14 -2 -33 -10q-32 59 -89.5 97.5t-133.5 38.5q-105 0 -178 -76q-25 -27 -41 -54q0 -6 -4 -6q-27 12 -58 12
q-64 0 -110 -46.5t-46 -110.5zM333 416q83 59 182 59q80 0 145 -35t105 -92q18 2 31 2q71 0 129 -43q27 33 27 74q0 47 -32.5 79.5t-78.5 32.5q-21 0 -43 -8q-21 41 -63.5 69t-94.5 28t-94.5 -28t-63.5 -69q-22 8 -43 8q-38 0 -66 -22t-40 -55z" />
    <glyph glyph-name="Z" unicode="Z" 
d="M841 760q72 0 123 -51t51 -123q0 -65 -47 -117q47 -59 47 -133q0 -90 -64 -154t-155 -64q-43 0 -78 13q-80 -71 -193 -74l-10 -19l63 -63l-188 -125l62 125l-62 63l45 29q-73 20 -123 64q-35 -13 -78 -13q-91 0 -155 64t-64 154q0 91 64 155t155 64q13 0 31 -2q1 4 4 4
q-4 16 -4 29q0 72 51 123t123 51h13q72 90 188 90t188 -90h13zM78 336q0 -64 46 -110t110 -46q51 0 90 29q72 -88 187 -91l47 5q89 15 148 86q39 -29 90 -29q64 0 110 46t46 110t-45.5 110.5t-110.5 46.5l-25 -2q-14 -2 -33 -10q-32 60 -89.5 98.5t-133.5 38.5
q-104 0 -178 -77q-27 -27 -41 -54q-2 -4 -4 -6q-27 12 -58 12q-64 0 -110 -46.5t-46 -110.5zM333 621q83 59 182 59q80 0 145 -35t105 -92q18 2 31 2q70 0 129 -41q27 32 27 72q0 47 -32.5 79.5t-78.5 32.5q-21 0 -43 -8q-20 42 -62 70t-96 28t-96 -28t-62 -70q-22 8 -43 8
q-38 0 -66 -22t-40 -55z" />
    <glyph glyph-name="bracketright" unicode="]" horiz-adv-x="1067" 
d="M15 638q0 1 3 19l339 -290l-338 -325q-4 12 -4 20v576zM60 697q8 3 17 3h913q9 0 18 -3l-340 -291l-67 -54l-67 -55l-67 55l-67 54zM402 330l132 -107l132 107l341 -327q-7 -3 -17 -3h-913q-9 0 -16 3zM711 367l338 290q3 -9 3 -19v-576q0 -10 -3 -20z" />
    <glyph glyph-name="asciicircum" unicode="^" horiz-adv-x="1136" 
d="M40 212q-25 0 -25 25v151q0 10 7.5 17.5t17.5 7.5h265l-115 -201h-150zM137 -7l66 -38zM149 56l304 528q13 21 34 9l65 -37q9 -5 12 -14.5t-2 -20.5l-303 -528q-5 -8 -14.5 -11t-20.5 2l-65 38q-9 4 -12 15q-3 10 2 19zM570 413h67l94 -201h-276zM533 837q4 35 41 -19
q24 -34 72 -116l66 -112q36 -58 72 -123l90 -169q44 -83 44 -84q11 -19 -2 -36t-31 -24q-21 -9 -25 -9.5t-29 7.5q-29 15 -190 393q-51 111 -85 197q-14 34 -21 71q-3 16 -2 24zM1121 237q0 -10 -7.5 -17.5t-17.5 -7.5h-133q-5 18 -8 23l-24 46l-35 67l-26 48q-7 14 -9 17
h235q10 0 17.5 -7.5t7.5 -17.5v-151zM887 112l37 19q12 5 22.5 1t14.5 -13l31 -60q12 -24 -10 -39l-27 -16q-12 -5 -22 -2t-16 12l-40 62q-6 10 -3 21t13 15zM950 -48q0 6 1 10t1.5 6.5t2 5.5t2.5 4t4.5 4t5.5 5l24 9q62 12 72 -70q3 -35 -1 -76q-5 13 -44 30q-41 18 -55 38
q-13 17 -13 34z" />
    <glyph glyph-name="underscore" unicode="_" horiz-adv-x="1116" 
d="M15 175v350h140v-207h805v207h141v-350h-1086z" />
    <glyph glyph-name="grave" unicode="`" 
d="M16 311q0 3 -0.5 10t-0.5 10q0 148 70 265.5t179 183.5q117 70 251 70q144 0 257 -73t176 -185q67 -119 67 -261q0 -3 -0.5 -10t-0.5 -10q-7 207 -152 353q-144 145 -347 145t-347 -145q-145 -146 -152 -353zM199 312q0 2 -0.5 10t-0.5 10q0 136 93 232q94 97 224 97
t224 -97q93 -96 93 -232q0 -2 -0.5 -10t-0.5 -10q-7 129 -99 219t-217 90t-217 -90t-99 -219zM364 137q0 98 34 131q23 23 51 28q21 4 66 4q71 0 95 -14q31 -17 41 -47q15 -45 15 -102q0 -121 -44 -203q-45 -84 -107 -84t-107 84q-44 82 -44 203zM411 417q0 44 30.5 76
t73.5 32t73.5 -32t30.5 -76t-30.5 -76t-73.5 -32t-73.5 32t-30.5 76z" />
    <glyph glyph-name="a" unicode="a" horiz-adv-x="1130" 
d="M33 75q250 -145 544 -145q213 0 401 79q29 13 38 0q8 -11 -6 -22q-85 -61 -202 -99t-243 -38q-313 0 -544 208q-6 4 -6 10q0 2 2 6q5 9 16 1zM494 177q-80 0 -128 49.5t-48 132.5q0 137 127 192q64 28 221 41v17q0 63 -14 86q-21 30 -66 30h-8q-34 -3 -57.5 -22
t-30.5 -49q-5 -20 -20 -23l-115 14q-17 5 -17 18q0 4 1 7q16 88 83 132q66 43 156 48h25q154 0 210 -101q1 -1 15 -49q4 -16 4 -54v-242q0 -10 1 -19.5t2 -16t5 -15t5.5 -12.5t7 -12.5t7.5 -10.5l8 -12q8 -9 9 -11q6 -9 6 -16q0 -8 -8 -14l-90 -78q-13 -9 -29 -2
q-34 30 -54 59q-12 17 -14 19q-55 -61 -110 -76q-33 -10 -84 -10zM490 379q0 -38 19 -62t53 -24q2 0 8 1t8 1q37 10 61.5 47.5t26.5 84.5v46v25q-56 0 -88 -8q-88 -25 -88 -111zM910 57q1 3 6 8q49 32 122 34q19 2 44 -4.5t29 -11.5t4 -18v-7q0 -35 -19 -82q-20 -50 -53 -77
q-4 -4 -9 -4q-10 0 -7 12q37 86 37 121q0 12 -4 16q-10 12 -56 12q-25 0 -86 -8q-4 0 -7 1.5t-2 4.5q0 2 1 3z" />
    <glyph glyph-name="e" unicode="e" horiz-adv-x="1425" 
d="M506 137q-71 -34 -206 -34q-184 0 -238 51q-27 25 -37 53.5t-10 77.5q0 78 38 113t119 50q54 9 128 9q90 0 148 -13q38 -7 58 -18v-161h-293q0 -74 37 -91q20 -9 50 -9q85 0 85 61h121v-89zM391 319q0 60 -37 72q-20 7 -54 7q-63 0 -77 -30q-10 -22 -10 -49h178zM506 226
h78q-2 -51 -74 -87q-2 -2 -4 -2v89zM808 200q-3 -70 -26 -110t-81 -40q-64 0 -91 50h-1v-42h-103v79q2 0 4 2q72 36 74 87h-78v39h81q1 8 1 23q0 57 -18.5 87.5t-63.5 50.5v183h107v-203h2q32 44 88 44q43 0 69 -26q-40 -28 -40 -102q0 -104 76 -122zM506 426
q45 -20 63.5 -50.5t18.5 -87.5q0 -15 -1 -23h-81v161zM622 146q9 -30 35 -30q28 0 37 30t9 108v5q0 60 -6 89q-7 36 -40 36t-39 -38q-5 -29 -5 -92q0 -78 9 -108zM772 424q17 -19 26 -53t10.5 -55t-0.5 -64v-52q-76 18 -76 122q0 74 40 102zM1041 205q0 6 -2 36t-2 37v102
l-107 218q-45 3 -49 3q-66 0 -101 -26q-40 -25 -40 -94h107q0 32 7.5 46t32.5 14q26 0 35 -13t9 -44v-31h-24q-97 0 -135 -29q17 -19 26 -53q4 -15 6 -25t3 -22t1 -17v-25v-30v-52q5 -1 26 -1q67 0 100 58h2l5 -52h100zM837 327q-11 9 1 20q12 10 5 15q-5 3 0.5 7.5
t11.5 7.5t4 5q-5 2 18 7l7 1l14 2q2 0 17 0.5t16 0.5q0 -6 0.5 -22.5t0.5 -26.5t-1.5 -22.5t-4.5 -19.5q-15 -37 -48 -37q-41 0 -41 62zM904 650h154l100 -232l109 232h143l-189 -359v-190h-141v190l-43 89v91q0 61 -24 90t-83 37zM930 598q59 -8 83 -37t24 -90v-91z" />
    <glyph glyph-name="g" unicode="g" horiz-adv-x="969" 
d="M227 157q82 0 147.5 -43t65.5 -111q0 -64 -62 -108q-63 -45 -151 -45q-89 0 -150 45q-62 45 -62 108q0 84 100 130q-26 40 -26 75q0 39 28 74q-38 23 -63 62t-25 89q0 73 53.5 125.5t127.5 52.5q55 0 101 -31h7q60 0 109 32v-115q-18 -10 -44 -14q7 -21 7 -50
q0 -70 -50 -121t-119 -55q-24 -29 -24 -53q0 -26 24 -48q1 0 3 0.5t3 0.5zM208 515q-29 0 -50.5 -24.5t-21.5 -55.5t21.5 -55.5t50.5 -24.5q30 0 51 24t21 56t-21 56t-51 24zM227 67q-34 0 -61 -17.5t-27 -46.5q0 -28 27 -46t61 -18t61.5 18t27.5 46q0 29 -27 46.5t-62 17.5
zM470 769q0 34 23.5 57.5t57.5 23.5t58 -23.5t24 -57.5t-24 -58t-58 -24t-57.5 24t-23.5 58zM489 601h134v-479h-134v479zM670 499h55v-285q9 -73 91 -99q15 -5 31 -7h20q22 0 45.5 7t32.5 17l7 9l2 99q-40 -13 -65 -13q-31 0 -36 17l-4 13q0 3 -1 4v238h91v102h-91v93h-123
v-93h-55v-102z" />
    <glyph glyph-name="h" unicode="h" horiz-adv-x="896" 
d="M15 -146v992l501 -496zM516 350l134 -133l-635 -367v4zM15 846l501 -496l134 133l-635 367v-4zM516 350l134 133l231 -133l-231 -133z" />
    <glyph glyph-name="i" unicode="i" 
d="M15 350q0 144 70 256.5t179 176.5q115 67 251 67q144 0 256.5 -70t176.5 -179q67 -115 67 -251q0 -144 -70 -256.5t-179 -176.5q-115 -67 -251 -67q-144 0 -256.5 70t-176.5 179q-67 115 -67 251zM232 67q117 -117 283 -117t283 117t117 283t-117 283t-283 117t-283 -117
t-117 -283t117 -283zM298 174q0 -31 21.5 -52.5t52.5 -21.5q33 0 57 24t24 57v269l200 37v-208q-17 5 -28 5q-33 0 -57 -24t-24 -57q0 -31 21 -52.5t52 -21.5t55.5 23.5t25.5 53.5v394l-290 -50v-300q-17 5 -28 5q-33 0 -57.5 -24t-24.5 -57z" />
    <glyph glyph-name="l" unicode="l" horiz-adv-x="1359" 
d="M15 350q0 164 116 280t280 116q132 0 225 -67t141 -177l129 -300q21 -47 38 -74q39 -61 128 -66h7q65 0 111 36.5t47 95.5q0 53 -37 77q-28 19 -100 42q-124 40 -180 89q-55 48 -55 136q0 93 59 146.5t155 53.5q127 0 191 -115l-84 -43q-45 62 -112 62q-45 0 -76 -28.5
t-31 -72.5q0 -30 11 -45q15 -20 29 -30q40 -25 136 -52q109 -36 155 -84q46 -47 46 -140q0 -100 -76 -166q-76 -65 -186 -65h-3q-99 0 -161 47q-61 46 -103 140l-141 321q-32 73 -102.5 122t-160.5 49q-119 0 -203 -84q-85 -85 -85 -204t85 -204q84 -84 203 -84
q85 0 152.5 44t102.5 111l51 -118q-53 -65 -131.5 -105t-174.5 -40q-164 0 -280 116t-116 280z" />
    <glyph glyph-name="m" unicode="m" horiz-adv-x="1232" 
d="M15 800h185l9 -8h825l9 8h174v-900h-171v7h-855v-4h-176v897zM191 35v-80h855v74l-345 259l-79 -65l-86 70zM498 324l-307 252v-481zM622 438l347 298h-695zM739 319l307 -230v484z" />
    <glyph glyph-name="n" unicode="n" 
d="M15 527l316 323v-123l301 -277l187 46l-195 -208l391 -438l-444 392l-188 -192l30 169l-255 316z" />
    <glyph glyph-name="o" unicode="o" horiz-adv-x="1113" 
d="M15 203q-1 125 92 205q86 73 193 106t160 39l26 3v-123q-113 -8 -182 -56q-63 -43 -88 -93q-25 -48 -27 -74l-2 -12q-3 -15 -3 -30q0 -59 45 -100q58 -53 127 -78q70 -25 111 -34l19 -3v-103q-192 20 -302 92q-99 64 -134 138q-32 68 -34 106zM525 -150v902l142 98v-922z
M701 441h5q35 -1 76 -15.5t65 -30.5l21 -16l-83 -34l313 -78v245l-107 -61q-41 44 -112 69q-75 27 -126 31l-52 5v-115z" />
    <glyph glyph-name="q" unicode="q" horiz-adv-x="919" 
d="M693 16q30 -62 114 -83v-76q-34 -7 -67 -7q-50 0 -85 18q-56 29 -91 94q-46 -13 -105 -13q-127 0 -228 63.5t-157 161.5q-59 102 -59 225q0 129 62.5 231.5t158.5 159.5q102 60 223 60q185 0 315 -132q130 -131 130 -319q0 -125 -59.5 -225t-151.5 -158zM236 340
q0 -116 66 -198q66 -83 161 -83q25 0 52 8q-33 49 -75 70q-17 8 -36 10v88q7 1 20 1q119 0 203 -90q63 81 63 194v116q0 116 -66 198q-66 83 -161 83t-161 -83q-66 -82 -66 -198v-116z" />
    <glyph glyph-name="s" unicode="s" horiz-adv-x="1182" 
d="M28 296q5 -3 10 -32.5t5 -42.5q0 -14 -5 -42.5t-10 -31.5q-13 7 -13 74q0 17 3.5 44.5t9.5 30.5zM79 221q0 12 5.5 72t5.5 63q0 6 6 6q4 0 6 -6q12 -129 12 -135q0 -12 -6 -68.5t-6 -61.5q-1 -7 -6 -7q-6 0 -6 7q0 3 -5.5 61t-5.5 69zM160 221q0 7 5 64.5t5 63.5q0 9 7 9
q8 0 8 -9q11 -118 11 -128q0 -9 -11 -136q0 -8 -8 -8q-7 0 -7 8q0 7 -5 67t-5 69zM252 221q0 26 9 257q0 10 9 10q10 0 10 -10q10 -150 10 -257q0 -9 -5 -68.5t-5 -66.5q0 -10 -10 -10q-9 0 -9 10q-9 132 -9 135zM353 88q0 9 -3.5 66t-3.5 67q0 155 7 288q1 12 12 12t12 -12
q0 -5 4 -132t4 -156q0 -10 -1.5 -38.5t-4 -58.5t-2.5 -36q-1 -12 -12 -12t-12 12zM441 221q0 108 6 270q1 15 14 15t14 -15q6 -160 6 -270q0 -3 -6 -130q-1 -15 -14 -15q-12 0 -14 14q-6 129 -6 131zM542 571q2 18 16 18t16 -18q6 -348 6 -351q0 -1 -6 -127q-2 -17 -16 -17
t-16 17q-6 126 -6 127q0 3 6 351zM616 432q0 107 1 156q-2 19 34.5 28t69.5 9q96 0 169 -73t80 -178q27 13 55 13q59 0 99.5 -46.5t41.5 -109.5q1 -62 -40.5 -109t-100.5 -47h-393q-6 0 -10.5 6t-4.5 13q0 41 -0.5 167t-0.5 171z" />
    <glyph glyph-name="t" unicode="t" horiz-adv-x="646" 
d="M15 440v142q59 19 101 55q86 69 102 213h143v-253h237v-157h-237v-256q0 -86 9 -112q10 -27 41.5 -43t68.5 -16q78 0 151 49v-157q-60 -29 -109.5 -42t-118.5 -13q-66 0 -122 17q-106 36 -141 118q-14 36 -14 105v350h-111z" />
    <glyph glyph-name="w" unicode="w" 
d="M15 350q0 144 70 256.5t179 176.5q115 67 251 67q144 0 256.5 -70t176.5 -179q67 -115 67 -251q0 -144 -70 -256.5t-179 -176.5q-115 -67 -251 -67q-144 0 -256.5 70t-176.5 179q-67 115 -67 251zM54 350q0 -141 74.5 -251t185.5 -164l-220 603q-40 -87 -40 -188z
M743 609q0 33 22.5 57.5t55.5 24.5q1 0 3 -0.5t3 -0.5q-130 121 -312 121q-125 0 -225.5 -58.5t-160.5 -149.5h30q48 0 123 6q11 1 17 -8t2 -19t-16 -11l-53 -5l168 -499l101 302l-72 197q-32 4 -48 5q-11 1 -15.5 11t1 19t17.5 8l121 -6q49 0 123 6q11 1 17 -8t2 -19
t-16 -11l-52 -5l166 -496l46 154q36 117 36 149q0 63 -39 128q-22 35 -35 63q-10 21 -10 45zM385 -93q61 -18 130 -18q78 0 153 26q-28 72 -76.5 207.5t-68.5 187.5zM747 -49q100 58 164.5 162.5t64.5 236.5q0 120 -56 221q3 -21 3 -47q0 -62 -35 -165z" />
    <glyph glyph-name="y" unicode="y" horiz-adv-x="771" 
d="M15 262q1 52 9 88q2 17 15 29.5t29 8.5l204 -82q37 -11 37 -46t-36 -46l-204 -62q-18 -6 -31 3t-17 25q-6 26 -6 68v14zM391 414q0 -19 -10.5 -30.5t-28.5 -11.5q-20 0 -37 26q-164 256 -213 340q-5 8 -5 16q0 9 6 18q13 18 38 28q79 31 171 46h5q44 0 49 -38
q25 -307 25 -394zM388 -118q-2 -11 -12 -19.5t-23 -8.5q-6 0 -16 4q-34 5 -85 25t-73 37q-18 14 -18 30q0 13 10 24l139 166q19 20 38 20q41 0 41 -48q0 -7 -1 -10v-220zM501 288q-17 0 -29.5 13.5t-12.5 32.5q0 16 15 32l130 180q8 8 20 8q21 0 36 -20q22 -24 51.5 -69.5
t38.5 -74.5q3 -8 3 -14q0 -26 -27 -32l-209 -54q-10 -2 -16 -2zM477 186q-9 -12 -9 -24q0 -16 13 -32l114 -190q8 -10 24 -10h3q18 1 33 16q25 23 54.5 62.5t42.5 69.5q4 9 4 20q0 25 -22 32l-205 70q-9 4 -19 4q-22 0 -33 -18z" />
    <glyph glyph-name="braceright" unicode="}" horiz-adv-x="891" 
d="M15 138q0 44 32 76t76 32q43 0 75.5 -32t32.5 -76q0 -47 -34 -78q65 -74 163 -74q68 0 115.5 41t47.5 106q0 40 -25 77q-24 39 -60 64q-35 23 -115 57q-74 30 -117 55.5t-78 67.5q-28 34 -46 74q-14 40 -14 79q0 101 81 172q83 71 197 71q79 0 151 -32t117 -81
q37 -31 37 -80q0 -44 -32 -76t-76 -32q-45 0 -76.5 31.5t-31.5 76.5q0 23 10 44q-31 16 -88 16q-64 0 -109.5 -29t-45.5 -82q0 -43 38 -76q43 -35 128 -71q94 -41 141 -73q98 -67 130 -159q0 -1 1 -3t1 -3q-75 -61 -75 -158q0 -54 28 -104q-10 -13 -24 -27q-86 -82 -206 -82
t-208 64q-90 66 -139 194l3 1q-5 17 -5 29zM628 63q0 -52 36 -88.5t88 -36.5t88 36.5t36 88.5q0 51 -36.5 87.5t-87.5 36.5t-87.5 -36.5t-36.5 -87.5z" />
    <glyph glyph-name="asciitilde" unicode="~" horiz-adv-x="694" 
d="M115 835l8 -121h10l5 3q79 133 246 133q130 0 212 -98q83 -100 83 -254q0 -132 -52.5 -221.5t-148.5 -129.5q-57 -23 -116 -23q-71 0 -127 29.5t-85 78.5l-2 3h-11l-3 -7v-378h-113v761q0 87 -6 224h100zM134 422q0 -31 6 -55q18 -66 72 -111t128 -45q106 0 164.5 80
t58.5 201q0 113 -59 191t-159 78q-75 0 -130 -47t-72 -116q-9 -33 -9 -53v-123z" />
    <glyph glyph-name="paragraph" unicode="&#xb6;" horiz-adv-x="705" 
d="M688 841v-112h-112v-781h-112v781h-111v-781h-112v447q-92 0 -157.5 65t-65.5 157.5t65.5 158t157.5 65.5h447z" />
    <glyph glyph-name="Ccedilla" unicode="&#xc7;" horiz-adv-x="1303" 
d="M15 435q0 38 87 65t211 27t211 -27t87 -65v-51q-1 -37 -88 -64t-210 -27t-210 27t-88 64v51zM302 654q1 18 64 32q64 14 149 14t149 -14q62 -14 63 -32h1v-27h-1q-1 -19 -63 -33q-64 -14 -149 -14t-149 14q-63 14 -64 33v27zM513 133v64q5 56 117 95q110 38 271 38
t271 -38q111 -39 116 -95v-64q-3 -55 -116 -94q-112 -39 -271 -39q-161 0 -271 38q-112 39 -117 95zM741 474v42q2 30 75 49q75 20 176 20t176 -20q73 -19 75 -49v-42q0 -29 -73 -50q-74 -21 -178 -21t-178 21q-73 21 -73 50z" />
    <glyph glyph-name="Odieresis" unicode="&#xd6;" horiz-adv-x="746" 
d="M15 136q0 61 25 94.5t77 48.5q-16 39 -16 59q0 32 35 70q38 35 69 35q17 0 40 -9q-46 131 -69 208q-24 81 -24 115q0 47 24 75t67 28q73 0 173 -295l17 -49q6 15 12 33q100 292 180 292q40 0 63.5 -27.5t23.5 -69.5q0 -28 -24 -113q-20 -68 -66 -200q61 -15 85 -58.5
t24 -128.5q0 -179 -106 -291q-108 -113 -274 -113q-65 0 -127 24q-56 20 -107 66.5t-76 98.5q-26 55 -26 107zM135 218q-23 0 -39 -24.5t-16 -52.5q0 -23 14 -59q19 -46 56 -86t80 -62q56 -28 129 -28q129 0 217 97q87 96 87 243q0 44 -4.5 67.5t-20.5 37.5
q-31 27 -113.5 42.5t-160.5 15.5q-22 0 -28 -6q-7 -3 -7 -20q0 -42 46 -58q49 -21 165 -21h28q15 0 23 -11q8 -8 11 -31q-18 -18 -55 -31q-76 -27 -117 -95q-23 -40 -23 -74q0 -22 10 -51q11 -35 11 -43v-6l-4 -15q-78 5 -83 123q-2 -1 -12 -1h-11q1 -3 1 -12
q0 -30 -23.5 -51t-53.5 -21q-47 0 -95 45q-48 46 -48 90q0 8 3 16q2 8 16 22q5 -6 19.5 -25.5t22.5 -28.5l21 -22q13 -14 24.5 -20t22.5 -6q7 0 15 5t8 11q0 8 -12 29q-6 13 -37 53q-30 37 -45 50q-16 14 -22 14zM210 374q-11 0 -25.5 -15.5t-14.5 -26.5q0 -14 16 -45
q13 -26 46 -68t55 -62q25 -20 36 -20q7 0 14 7.5t7 15.5q0 12 -18 58q-43 107 -85 141q-17 15 -31 15zM237 795q-10 0 -16 -9.5t-6 -21.5q0 -34 24 -107q25 -78 66 -190q11 6 28 6q1 0 8 -0.5t9 -0.5q1 0 4.5 -0.5t9.5 -1t12 -0.5l-69 200q-30 84 -44 104q-13 21 -26 21z
M400 204q19 22 40 38q-6 1 -29 5.5t-30 6.5l9 -25zM486 458l67 -12q46 128 69 199q25 79 25 96q0 32 -22 32q-15 0 -31 -27q-18 -27 -43 -101z" />
    <glyph glyph-name="Udieresis" unicode="&#xdc;" 
d="M115 -150q-41 0 -70.5 30t-29.5 70v800q0 40 29.5 70t70.5 30h800q41 0 70.5 -30t29.5 -70v-800q0 -40 -29.5 -70t-70.5 -30h-800zM303 138q88 -88 212 -88t212 88t88 212t-88 212t-212 88t-212 -88t-88 -212t88 -212zM315 350q0 82 59 141t141 59t141 -59t59 -141
t-59 -141t-141 -59t-141 59t-59 141z" />
    <glyph glyph-name="atilde" unicode="&#xe3;" horiz-adv-x="1029" 
d="M491 538q38 -111 88 -176t141 -117q63 7 116 7q178 0 178 -70q0 -9 -5 -24l-3 1q-4 -42 -67 -42q-103 0 -240 72q-221 -23 -389 -82q-147 -257 -235 -257q-15 0 -52 20q-8 8 -8 22q0 51 61 106q63 57 123 89l15 -22q-43 -31 -90 -82t-59 -90q87 27 265 379
q67 135 103 261q-33 107 -33 202q0 115 47 115h20q4 0 12.5 -1.5t13 -4.5t9.5 -9q9 -11 9 -34q0 -15 -3 -28l-27 1q-1 26 -17 41q-12 -19 -12 -69q0 -38 9 -94q9 60 18 107l26 -3q-1 -149 -14 -218zM631 232q-103 73 -164 209q-35 -120 -134 -294q130 53 298 85zM819 197
q91 -35 142 -35q15 0 22 3q0 32 -145 32h-19z" />
    <glyph glyph-name="adieresis" unicode="&#xe4;" horiz-adv-x="905" 
d="M15 282q0 65 20 129.5t49 106.5q30 43 73 82.5t87 63.5q92 47 123 73q43 35 50 113q72 -87 106 -110q16 -10 75 -39t72 -37q28 -16 42.5 -27.5t47.5 -44.5q41 -39 65 -79t44 -102q21 -65 21 -137q0 -186 -128 -305t-306 -119q-125 0 -223 59t-156 152q-62 101 -62 221z
M205 131q-2 -59 33 -86.5t103 -27.5q42 0 97 29l106 59q49 29 70 28q25 -2 78 -56t70 -56q18 -1 34 9q12 8 31 35q33 49 33 117q0 28 -15 54t-47 26q-21 0 -92 -47t-94 -48q-22 0 -61 27q-41 28 -89 56q-49 28 -98 28q-66 -2 -112 -45q-45 -43 -47 -102zM410 -69
q46 -42 165 -31q27 2 57 14.5t44 26.5q4 4 4 16q-3 12 -14 3q-41 -32 -124 -32q-76 0 -110 28q-4 2 -8 2q-6 0 -14 -7q-11 -10 0 -20zM500 3q4 -5 16 2.5t26 18t20 12.5q9 3 27 3q29 0 39 -13q1 -1 4 -7t6 -11t4 -6q2 -1 8 1q11 7 7.5 19t-10.5 22t-12 13q-12 9 -43 9
q-26 0 -41 -6q-20 -9 -44 -32q-14 -12 -7 -25z" />
    <glyph glyph-name="aring" unicode="&#xe5;" horiz-adv-x="1009" 
d="M15 88q18 24 81 45q22 7 40 16q30 0 67 -20q20 -11 25 -12q2 -1 260 -119q13 -5 29 -1.5t23.5 6.5t22.5 12q28 16 101 49q78 35 128 61q37 19 61 24q21 3 39 -3.5t37 -18.5t31 -16q11 -4 16.5 -6.5t11 -9.5t6.5 -17q-10 -13 -32 -24t-50.5 -21.5t-39.5 -16.5l-128 -62
l-129 -61q-6 -2 -23.5 -12.5t-21.5 -12.5q-37 -17 -52 -18q-6 0 -30 2l-264 123q-23 12 -89 39t-95 44q-18 10 -21 17q-4 4 -4 13zM15 356q10 14 30 24.5t52.5 21.5t40.5 14q14 0 29 -4t22 -7t24 -12l19 -10l127 -59l127 -58q19 -5 35 -1.5t41 17.5l25 15l160 72q10 4 31 16
t39.5 20t35.5 11q29 6 69 -18q22 -13 23 -13q5 -3 19 -8t21.5 -11.5t8.5 -19.5q-10 -14 -31.5 -25.5t-52 -22.5t-41.5 -16l-258 -124q-5 -2 -28 -14.5t-27 -14.5q-48 -19 -68 -10q-265 124 -304 141q-84 35 -131 59q-29 14 -34 23q-4 4 -4 14zM15 623q10 15 31.5 26t51.5 22
t42 17l348 162q35 0 56 -7t54 -26q34 -20 274 -131l45 -19q38 -16 46 -20q10 -5 13.5 -7t8.5 -6t6.5 -8.5t2.5 -11.5q-15 -21 -70 -42q-28 -9 -34 -13l-140 -67l-139 -66l-21 -12q-13 -7 -24.5 -12.5t-22.5 -9.5q-17 -6 -27 -6q-17 0 -28 1l-319 146q-48 21 -102 47
q-43 21 -48 30q-4 4 -4 13z" />
    <glyph glyph-name="eacute" unicode="&#xe9;" horiz-adv-x="896" 
d="M142 808q128 42 306 42q180 0 306 -42q127 -42 127 -102q0 -12 -72 -440q-9 -45 -111 -89q-101 -43 -250 -43t-250 43q-103 44 -110 89q-73 411 -73 440q0 60 127 102zM122 129q0 17 15 17q5 0 12 -5q45 -37 122 -58q77 -22 126 -23l51 -3q117 0 227 43q41 16 73 41l11 5
q16 0 16 -17q0 -3 -1 -4l-19 -101q-10 -53 -11 -60q-10 -49 -96 -82q-83 -32 -200 -32t-200 32q-85 33 -95 82q-15 70 -31 161v4zM252 680q81 -18 196 -18q113 0 196 17q82 17 82 41t-82 42q-81 18 -196 18q-113 0 -196 -17q-81 -17 -81 -42q0 -23 81 -41zM310 368
q0 -56 41 -97t97 -41t97 41t41 97t-41 97t-97 41t-97 -41t-41 -97zM379 368q0 -28 20.5 -48.5t48.5 -20.5t48.5 20.5t20.5 48.5t-20.5 48.5t-48.5 20.5t-48.5 -20.5t-20.5 -48.5z" />
    <glyph glyph-name="uni2139" unicode="&#x2139;" horiz-adv-x="490" 
d="M367 850q46 0 73 -26t27 -70q0 -51 -40 -88.5t-94 -37.5q-47 0 -73.5 25.5t-24.5 72.5q0 45 35 85q34 39 97 39zM161 -150q-100 0 -54 178l60 254q14 56 0 56q-12 0 -54 -18q-40 -17 -72 -38l-26 44q90 78 189 126t151 48q78 0 36 -162l-70 -266q-16 -64 6 -64
q45 0 118 60l30 -40q-84 -86 -175 -132t-139 -46z" />
    <glyph glyph-name="uni21B0" unicode="&#x21b0;" horiz-adv-x="880" 
d="M215 350v-90l-200 160l200 170v-100h550q41 0 70.5 -29.5t29.5 -70.5v-280h-140v240h-510z" />
    <glyph glyph-name="uni21B3" unicode="&#x21b3;" horiz-adv-x="774" 
d="M115 200q-41 0 -70.5 29.5t-29.5 70.5v350h140v-310h364v150l240 -220l-240 -220v150h-404z" />
    <glyph glyph-name="uni21C6" unicode="&#x21c6;" 
d="M715 452h-500v-90l-200 160l200 170v-100h500v-140zM1015 172l-200 -160v90h-500v140h500v100z" />
    <glyph glyph-name="infinity" unicode="&#x221e;" 
d="M515 426q54 61 132 102.5t164 41.5q83 0 144 -53q60 -53 60 -167q0 -112 -60 -166t-144 -54q-86 0 -163 42t-133 104q-54 -61 -131.5 -103.5t-162.5 -42.5q-86 0 -146 54t-60 166q0 114 60 167q61 53 146 53q86 0 163.5 -41.5t130.5 -102.5zM461 350q-42 53 -106.5 92.5
t-133.5 39.5q-114 0 -114 -132t114 -132q68 0 133.5 40t106.5 92zM811 218q114 0 114 132t-114 132q-69 0 -134.5 -39.5t-105.5 -92.5q40 -53 105.5 -92.5t134.5 -39.5z" />
    <glyph glyph-name="uni229E" unicode="&#x229e;" horiz-adv-x="830" 
d="M715 750q42 0 71 -29t29 -71v-600q0 -41 -29.5 -70.5t-70.5 -29.5h-600q-40 0 -70 30t-30 70v600q0 41 29.5 70.5t70.5 29.5h600zM665 300v100h-200v200h-100v-200h-200v-100h200v-200h100v200h200z" />
    <glyph glyph-name="uni229F" unicode="&#x229f;" horiz-adv-x="830" 
d="M715 750q42 0 71 -29t29 -71v-600q0 -41 -29.5 -70.5t-70.5 -29.5h-600q-40 0 -70 30t-30 70v600q0 41 29.5 70.5t70.5 29.5h600zM665 300v100h-500v-100h500z" />
    <glyph glyph-name="house" unicode="&#x2302;" horiz-adv-x="930" 
d="M903 336q15 -15 11 -26.5t-27 -11.5h-84v-310q0 -22 -6 -31t-26 -9h-204v310h-204v-310h-194q-25 0 -33.5 8t-8.5 32v310h-84q-23 0 -27 11.5t11 26.5l400 402q16 16 38 16t38 -16z" />
    <glyph glyph-name="uni2328" unicode="&#x2328;" 
d="M945 650q28 0 49 -21t21 -49v-460q0 -29 -20.5 -49.5t-49.5 -20.5h-860q-29 0 -49.5 20.5t-20.5 49.5v460q0 28 21 49t49 21h860zM565 450h100v100h-100v-100zM615 400v-100h100v100h-100zM415 450h100v100h-100v-100zM465 400v-100h100v100h-100zM265 450h100v100h-100
v-100zM315 400v-100h100v100h-100zM115 450h100v100h-100v-100zM165 400v-100h100v100h-100zM215 250h-100v-100h100v100zM765 250h-500v-100h500v100zM915 250h-100v-100h100v100zM865 300v100h-100v-100h100zM915 450v100h-200v-100h200z" />
    <glyph glyph-name="uni232B" unicode="&#x232b;" horiz-adv-x="1032" 
d="M917 700q42 0 71 -29t29 -71v-500q0 -41 -29.5 -70.5t-70.5 -29.5h-478q-39 0 -70 28l-340 296q-29 26 0 54l340 296q31 26 70 26h478zM777 150l72 74l-128 126l128 128l-72 72l-128 -126l-128 126l-72 -72l128 -128l-128 -126l72 -74l128 128z" />
    <glyph glyph-name="uni2387" unicode="&#x2387;" horiz-adv-x="817" 
d="M576 841h112v-108q0 -115 -82 -197l-316 -314q-44 -45 -48 -106h111l-167 -168l-168 168h113q6 111 80 185l316 314q49 50 49 118v108zM686 116h113l-167 -168l-168 168h111q-4 61 -48 106l-63 62l80 79l62 -62q74 -74 80 -185z" />
    <glyph glyph-name="uni2389" unicode="&#x2389;" horiz-adv-x="560" 
d="M545 636v-570q0 -66 -90 -66t-90 66v570q0 64 90 64t90 -64zM105 700q90 0 90 -64v-570q0 -66 -90 -66t-90 66v570q0 64 90 64z" />
    <glyph glyph-name="uni23E9" unicode="&#x23e9;" horiz-adv-x="910" 
d="M881 374q14 -11 14 -24q0 -14 -14 -22l-372 -248q-23 -14 -37.5 -5.5t-14.5 35.5v482q0 27 14.5 35.5t37.5 -5.5zM427 374q14 -11 14 -24q0 -14 -14 -22l-360 -248q-22 -15 -37 -5.5t-15 35.5v482q0 26 15 35.5t37 -5.5z" />
    <glyph glyph-name="uni23EA" unicode="&#x23ea;" horiz-adv-x="910" 
d="M29 374l374 248q22 15 37 5.5t15 -35.5v-482q0 -26 -15 -35.5t-37 5.5l-374 248q-14 8 -14 22q0 13 14 24zM469 350q0 13 14 24l360 248q22 15 37 5.5t15 -35.5v-482q0 -26 -15 -35.5t-37 5.5l-360 248q-14 8 -14 22z" />
    <glyph glyph-name="uni23ED" unicode="&#x23ed;" horiz-adv-x="630" 
d="M427 374q14 -11 14 -24q0 -11 -14 -22l-362 -228q-23 -14 -36.5 -4.5t-13.5 34.5v442q0 25 13.5 34.5t36.5 -4.5zM541 642q74 0 74 -58v-466q0 -58 -74 -58q-76 0 -76 58v466q0 58 76 58z" />
    <glyph glyph-name="uni23EE" unicode="&#x23ee;" horiz-adv-x="630" 
d="M203 374l364 228q22 14 35 4.5t13 -34.5v-442q0 -25 -13 -34.5t-35 4.5l-364 228q-14 11 -14 22q0 13 14 24zM15 584q0 58 76 58q74 0 74 -58v-466q0 -58 -74 -58q-76 0 -76 58v466z" />
    <glyph glyph-name="uni23F3" unicode="&#x23f3;" horiz-adv-x="590" 
d="M527 526q-51 -56 -97 -99q-49 -46 -49 -77q0 -30 49 -76t97 -97t48 -97v-118q0 -34 -86 -73q-85 -39 -194 -39t-194 39q-86 39 -86 73v118q0 46 48 97t97 97t49 76q0 31 -49 77q-46 43 -97 99q-48 52 -48 96v118q0 32 87 71t193 39t193 -39t87 -71v-118q0 -44 -48 -96z
M75 720q-4 -7 4 -14q91 -52 216 -52q131 0 220 50q14 11 -16 30q-96 54 -202 54q-120 0 -204 -54zM321 350q0 38 22 66q20 26 51 56l29 28q92 92 92 122l2 50q-101 -54 -222 -54t-222 54l4 -50q0 -32 90 -122q3 -4 22.5 -22t22.5 -21l19 -19q2 -3 5.5 -7t11 -13.5t11 -15
t0.5 -5.5q-6 1 2 -12q17 -29 15 -33q-1 -2 -5 -2q0 -24 -7 -37q-18 -32 -19 -33l-12 -15l-31 -31l-35 -32q-90 -90 -90 -122v-66q4 2 66 23q58 19 92 43t34 58q0 30 26 30t26 -30q0 -34 33 -58q32 -23 94 -43q63 -20 67 -23v66q0 30 -92 122l-28 28l-33 32q-17 17 -30 42
q-11 19 -11 46z" />
    <glyph glyph-name="filledbox" unicode="&#x25a0;" horiz-adv-x="630" 
d="M541 650q74 0 74 -64v-470q0 -66 -74 -66h-450q-76 0 -76 66v470q0 36 18 50t58 14h450z" />
    <glyph glyph-name="uni25B4" unicode="&#x25b4;" horiz-adv-x="490" 
d="M15 150l230 400l230 -400h-460z" />
    <glyph glyph-name="uni25B6" unicode="&#x25b6;" horiz-adv-x="530" 
d="M501 376q14 -11 14 -26q0 -13 -14 -24l-428 -266q-25 -16 -41.5 -5.5t-16.5 39.5v514q0 29 16.5 39.5t41.5 -5.5z" />
    <glyph glyph-name="uni25B8" unicode="&#x25b8;" horiz-adv-x="430" 
d="M15 580l400 -230l-400 -230v460z" />
    <glyph glyph-name="uni25BE" unicode="&#x25be;" horiz-adv-x="490" 
d="M475 550l-230 -400l-230 400h460z" />
    <glyph glyph-name="uni25C2" unicode="&#x25c2;" horiz-adv-x="430" 
d="M415 580v-460l-400 230z" />
    <glyph glyph-name="uni25D1" unicode="&#x25d1;" 
d="M965 390q19 0 34.5 -11.5t15.5 -28.5q0 -40 -50 -40h-48q-50 0 -50 40q0 17 15.5 28.5t34.5 11.5h48zM710 544q81 -80 81 -194q0 -116 -81 -196q-82 -80 -195 -80q-114 0 -194 80t-80 196q0 114 80 194t194 80q113 0 195 -80zM521 550q-85 0 -146 -59q-60 -59 -60 -141
q0 -84 60.5 -142t145.5 -58v400zM115 390q19 0 34.5 -11.5t15.5 -28.5q0 -40 -50 -40h-50q-50 0 -50 40q0 17 15.5 28.5t34.5 11.5h50zM515 700q-17 0 -28.5 15.5t-11.5 34.5v50q0 19 11.5 34.5t28.5 15.5t28.5 -15.5t11.5 -34.5v-50q0 -19 -11.5 -34.5t-28.5 -15.5zM515 0
q17 0 28.5 -15.5t11.5 -34.5v-50q0 -19 -11.5 -34.5t-28.5 -15.5t-28.5 15.5t-11.5 34.5v50q0 19 11.5 34.5t28.5 15.5zM849 626q-34 -34 -64 -8q-28 28 8 64q6 8 34 36q36 34 64 6t-8 -64zM183 72q12 14 30 17.5t32 -9.5q12 -15 9.5 -33t-15.5 -31l-36 -36q-13 -13 -31 -16
t-31 10q-30 28 6 64q8 6 36 34zM239 682q36 -36 6 -64q-14 -11 -32 -7.5t-30 15.5q-28 28 -36 34q-13 13 -15.5 31t9.5 33q13 13 31 10t31 -16zM793 16q-36 36 -8 64t64 -8l34 -34q36 -36 8 -64t-64 6q-28 28 -34 36z" />
    <glyph glyph-name="uni2600" unicode="&#x2600;" horiz-adv-x="928" 
d="M464.5 618q92.5 0 158 -65.5t65.5 -158t-65.5 -158t-158 -65.5t-158 65.5t-65.5 158t65.5 158t158 65.5zM521 786q0 -24 -17 -40.5t-39.5 -16.5t-39 16.5t-16.5 40.5t16.5 39.5t38.5 15.5q24 0 40.5 -16t16.5 -39zM130 674q0 55 56 55q55 0 55 -55q0 -56 -55 -56
q-56 0 -56 56zM74 451q23 0 39.5 -16t16.5 -40t-16 -40t-40 -16t-40 16.5t-16 39.5q0 24 16 40t40 16zM130 116q0 55 56 55q55 0 55 -55q0 -56 -55 -56q-56 0 -56 56zM409 5q0 22 16.5 38.5t38.5 16.5q24 0 40.5 -16.5t16.5 -39t-17 -39.5t-39.5 -17t-39 16.5t-16.5 40.5z
M704.5 76.5q-15.5 15.5 -15.5 38.5t15.5 39.5t39.5 16.5t39.5 -16.5t15.5 -39.5t-15.5 -38.5t-39.5 -15.5t-39.5 15.5zM856 339q-24 0 -40.5 16.5t-16.5 39.5q0 24 17 40t39.5 16t39 -16t16.5 -40t-16.5 -40t-38.5 -16zM783.5 634.5q-15.5 -16.5 -39.5 -16.5t-39.5 16.5
t-15.5 39.5t15.5 40t39.5 17t39.5 -17t15.5 -40t-15.5 -39.5z" />
    <glyph glyph-name="uni2601" unicode="&#x2601;" 
d="M775 494q99 0 170 -68q70 -67 70 -166t-70 -166q-71 -68 -170 -68h-578q-73 0 -127.5 52t-54.5 124q0 74 53.5 126t128.5 52q1 0 10 -1t10 -1q-2 16 -2 38q0 108 78 184q77 76 188 76q92 0 161.5 -53.5t92.5 -132.5q25 4 40 4z" />
    <glyph glyph-name="uni2605" unicode="&#x2605;" horiz-adv-x="910" 
d="M455 790l120 -336h320l-262 -196l94 -348l-272 208l-272 -208l94 348l-262 196h320z" />
    <glyph glyph-name="uni2606" unicode="&#x2606;" horiz-adv-x="910" 
d="M633 258l94 -348l-272 208l-272 -208l94 348l-262 196h320l120 336l120 -336h320zM455 216l150 -124l-62 178l144 114l-176 -4l-56 202l-54 -202l-176 4l142 -114l-62 -178z" />
    <glyph glyph-name="uni2615" unicode="&#x2615;" horiz-adv-x="711" 
d="M604 719q49 -20 71.5 -42t19.5 -45l-72 -594q-1 -13 -34 -36q-36 -25 -104 -43.5t-130 -18.5t-128 18.5t-105 43.5q-34 23 -35 36l-72 594q-5 28 36 57q46 33 129.5 52t174.5 19q150 0 249 -41zM355 544q62 0 129.5 14t105.5 34q33 18 33 30t-33 29q-39 20 -106 33.5
t-129 13.5t-129 -13.5t-106 -33.5q-33 -17 -33 -29t33 -30q38 -20 105.5 -34t129.5 -14z" />
    <glyph glyph-name="sun" unicode="&#x263c;" horiz-adv-x="928" 
d="M464.5 506q-45.5 0 -78.5 -33t-33 -78.5t33 -78.5t78.5 -33t78.5 33t33 78.5t-33 78.5t-78.5 33zM464.5 618q92.5 0 158 -65.5t65.5 -158t-65.5 -158t-158 -65.5t-158 65.5t-65.5 158t65.5 158t158 65.5zM409 786q0 55 55 55q57 0 57 -55q0 -57 -57 -57q-55 0 -55 57z
M130 674q0 55 56 55q55 0 55 -55q0 -56 -55 -56q-56 0 -56 56zM74 451q23 0 39.5 -16t16.5 -40t-16 -40t-40 -16t-40 16.5t-16 39.5q0 24 16 40t40 16zM130 116q0 55 56 55q55 0 55 -55q0 -56 -55 -56q-56 0 -56 56zM409 5q0 22 16.5 38.5t38.5 16.5q24 0 40.5 -16.5
t16.5 -39t-17 -39.5t-39.5 -17t-39 16.5t-16.5 40.5zM704.5 76.5q-15.5 15.5 -15.5 38.5t15.5 39.5t39.5 16.5t39.5 -16.5t15.5 -39.5t-15.5 -38.5t-39.5 -15.5t-39.5 15.5zM856 339q-24 0 -40.5 16.5t-16.5 39.5q0 24 17 40t39.5 16t39 -16t16.5 -40t-16.5 -40t-38.5 -16z
M783.5 634.5q-15.5 -16.5 -39.5 -16.5t-39.5 16.5t-15.5 39.5t15.5 40t39.5 17t39.5 -17t15.5 -40t-15.5 -39.5z" />
    <glyph glyph-name="uni263D" unicode="&#x263d;" horiz-adv-x="850" 
d="M539 238q105 105 125 252q19 145 -53 270q53 -26 96 -72q128 -128 128 -309t-128 -309t-310 -128t-310 128q-41 41 -72 94q124 -70 271 -51q148 20 253 125z" />
    <glyph glyph-name="uni263E" unicode="&#x263e;" horiz-adv-x="928" 
d="M182 585q-52 -82 -52 -181q0 -141 100.5 -242.5t243.5 -101.5q98 0 181 53q-187 18 -321 151.5t-152 320.5zM348 841q-56 -100 -56 -205q0 -172 121.5 -293t292.5 -121q105 0 205 56q-42 -145 -162.5 -237.5t-274.5 -92.5q-188 0 -322 133.5t-134 322.5q0 154 92.5 274.5
t237.5 162.5z" />
    <glyph glyph-name="uni2661" unicode="&#x2661;" horiz-adv-x="890" 
d="M875 486q0 -92 -70 -156l-360 -330l-360 330q-70 64 -70 156t70 156q64 58 152 58q89 0 150 -58l58 -52l56 52q64 58 152 58t152 -58q70 -64 70 -156zM751 382q42 40 42 104q0 65 -38 100q-38 38 -102 38q-51 0 -104 -48l-104 -92l-106 92q-48 48 -102 48q-64 0 -103 -37
t-39 -101q0 -66 44 -104l306 -286z" />
    <glyph glyph-name="heart" unicode="&#x2665;" horiz-adv-x="890" 
d="M805 644q70 -64 70 -156t-70 -158l-360 -330l-360 330q-70 66 -70 158t70 156q61 58 151 58q89 0 153 -58l56 -52l58 52q61 58 150 58q88 0 152 -58z" />
    <glyph glyph-name="musicalnote" unicode="&#x266a;" horiz-adv-x="612" 
d="M396 820q0 -42 46 -97q43 -52 90 -100q45 -46 61 -119q17 -74 -39 -154q-20 -35 -26 -16q-1 6 0 16q11 18 6 56q-5 42 -13 78q-10 42 -45 74.5t-80 39.5v-536q2 -56 -41.5 -100.5t-100.5 -65.5q-72 -28 -143 -8q-69 20 -89 76q-20 57 20 115q42 60 116 85q85 30 158 4
v652h80z" />
    <glyph glyph-name="musicalnotedbl" unicode="&#x266b;" horiz-adv-x="770" 
d="M221 714l534 116v-704q2 -48 -33 -85t-83 -55q-63 -23 -109 -8t-63 64q-18 48 7 97q22 43 76 68.5t115 14.5v376l-354 -82v-490q0 -48 -35 -85t-83 -55q-63 -22 -108.5 -7.5t-61.5 63.5q-18 48 6 97q21 44 75.5 69.5t116.5 13.5v592z" />
    <glyph glyph-name="uni268F" unicode="&#x268f;" horiz-adv-x="630" 
d="M265 570v-90q0 -80 -80 -80h-90q-80 0 -80 80v90q0 80 80 80h90q80 0 80 -80zM615 570v-90q0 -80 -80 -80h-90q-80 0 -80 80v90q0 80 80 80h90q80 0 80 -80zM265 220v-90q0 -80 -80 -80h-90q-80 0 -80 80v90q0 80 80 80h90q80 0 80 -80zM535 300q80 0 80 -80v-90
q0 -80 -80 -80h-90q-80 0 -80 80v90q0 80 80 80h90z" />
    <glyph glyph-name="uni2691" unicode="&#x2691;" horiz-adv-x="930" 
d="M889 616q13 6 22 -0.5t0 -19.5q-94 -136 -164 -213q-67 -75 -110 -90q-42 -15 -73 -2q-33 14 -60 37t-63 40q-33 16 -93 -4q-59 -20 -139 -86l90 -352h-100l-184 720l92 34q91 67 152 86q62 20 98 3q35 -16 64 -51t62 -71t79 -62q43 -25 129 -20q84 5 198 51z" />
    <glyph glyph-name="uni2692" unicode="&#x2692;" 
d="M170 506q-14 -14 -14 -47q0 -11 -2 -11q-1 -1 -18 -16t-18 -16q-16 -13 -28 4l-70 76q-3 4 -4 8t-0.5 7t4 6.5t6 5.5t7.5 5.5t7 5.5q15 11 20 16q6 6 27 6q22 0 36.5 14.5t18.5 37.5q5 25 10 30q2 0 9 7q18 18 67 53q134 90 186 96q114 0 148 -2q13 0 -8 -8
q-123 -54 -152 -76q-80 -56 -36 -114q35 -47 38 -48q8 -8 -2 -14q-8 -8 -38 -35t-38 -35q-14 -8 -18 -4q-42 48 -71 60t-67 -12zM866 4q17 -22 -2 -38l-48 -42q-22 -13 -38 4l-414 472q-8 8 0 20l72 62q13 8 20 -2zM994 516q-49 -88 -154 -62q-56 12 -100 -32l-82 -78
l-68 78l68 70q40 40 37 118q-1 34 5 58q12 56 140 112q12 6 18 -3t2 -15q-10 -10 -46 -80q-13 -10 -12 -35q1 -24 40 -53q58 -40 96 22q2 4 24.5 38t23.5 36q4 10 13 9q10 -2 11 -17q16 -103 -16 -166zM152 -2l254 248l76 -86l-246 -242q-20 -20 -38 -4l-46 46q-23 18 0 38z
" />
    <glyph glyph-name="uni2699" unicode="&#x2699;" horiz-adv-x="870" 
d="M855 228q-12 -41 -34 -82q-70 18 -136 -44q-54 -58 -34 -136q-41 -20 -84 -36q-46 82 -132 82t-132 -82q-43 16 -84 36q20 81 -34 136q-53 54 -136 34q-15 29 -34 82q82 52 82 132q0 72 -82 124q19 53 34 82q74 -18 136 44q54 55 34 136q40 21 84 34q47 -80 132 -80
t132 80q44 -13 84 -34q-20 -78 34 -136q66 -62 136 -44q22 -41 34 -82q-80 -50 -80 -124q0 -72 80 -122zM435 168q76 0 129 53t53 129q0 75 -53.5 129.5t-128.5 54.5t-128.5 -54.5t-53.5 -129.5q0 -76 53 -129t129 -53z" />
    <glyph glyph-name="uni26A0" unicode="&#x26a0;" horiz-adv-x="992" 
d="M972 -24q10 -16 0 -34q-10 -16 -30 -16h-892q-17 0 -28.5 17t-1.5 33l446 782q8 18 30 18t30 -18zM552 126h-110v-100h110v100zM552 200v300h-110v-300h110z" />
    <glyph glyph-name="uni26A1" unicode="&#x26a1;" horiz-adv-x="430" 
d="M55 -100q-4 4 35 94l79 182q40 90 38 98q-1 6 -94 45q-92 39 -98 55q-5 12 84 120l180 209q47 52 70.5 75.5t25.5 21.5q6 -4 -74 -186.5t-78 -185.5q1 -4 95 -43q92 -39 97 -57q5 -20 -174 -227t-186 -201z" />
    <glyph glyph-name="uni26AB" unicode="&#x26ab;" horiz-adv-x="730" 
d="M365 700q146 0 248 -102t102 -248q0 -144 -102 -247t-248 -103t-248 103t-102 247q0 146 102 248t248 102z" />
    <glyph glyph-name="uni26BF" unicode="&#x26bf;" horiz-adv-x="928" 
d="M632.5 729q-69.5 0 -119 -48.5t-49.5 -117.5q0 -14 4 -32l11 -57l-175 -174l-174 -174v-66h111v111h112v112h111v47l80 79l57 -11q18 -3 31 -3q70 0 118.5 49t48.5 118.5t-48.5 118t-118 48.5zM632.5 841q115.5 0 197 -81.5t81.5 -197t-81.5 -197.5t-197.5 -82
q-28 0 -51 5l-5 -5v-112h-112v-111h-111v-112h-335v223l340 340q-5 23 -5 52q0 115 82 196.5t197.5 81.5zM576 563q0 55 56 55t56 -55q0 -57 -56 -57t-56 57z" />
    <glyph glyph-name="uni26C8" unicode="&#x26c8;" 
d="M481 676q92 0 161.5 -53.5t92.5 -132.5q25 4 40 4q99 0 170 -68q70 -67 70 -166t-70 -166q-71 -68 -170 -68h-578q-73 0 -127.5 52t-54.5 124q0 74 53.5 126t128.5 52q1 0 10 -1t10 -1q-2 16 -2 38q0 108 78 184q77 76 188 76zM583 278q14 17 14 30q0 20 -30 32h-4
q-28 15 -38 16l50 116q6 0 6 20q0 19 -15 21t-27 -11l-26 -27l-36 -39l-29 -32q-35 -38 -45 -52q-12 -18 -12 -30q0 -22 30 -30q6 -3 42 -18l-52 -114q-4 -12 -4 -22t8 -18q17 -10 34 10q98 98 134 148z" />
    <glyph glyph-name="uni26EF" unicode="&#x26ef;" horiz-adv-x="1101" 
d="M15 402q0 15 13 17l86 14q6 19 18 42q-23 32 -50 64q-4 5 -4 11q0 7 4 11q11 15 45 49t45 34q7 0 12 -4l64 -50q20 11 43 18q5 53 13 86q4 13 16 13h104q15 0 17 -14l13 -85q22 -7 41 -17l66 49q4 4 11 4t12 -4q81 -73 81 -90q0 -5 -4 -10l-23 -30q-21 -27 -26 -34
q13 -25 19 -46l85 -12q13 -2 13 -17v-103q0 -15 -13 -17l-86 -14q-6 -19 -18 -42q23 -32 50 -64q4 -5 4 -11q0 -7 -4 -11q-14 -17 -46.5 -50t-43.5 -33q-6 0 -11 4l-64 50q-24 -12 -43 -17q-6 -55 -13 -87q-4 -13 -17 -13h-104q-14 0 -16 14l-13 85q-24 7 -42 17l-66 -49
q-4 -4 -11 -4t-12 4q-80 73 -80 90q0 5 4 10l24 32l25 32q-14 25 -20 46l-85 13q-13 2 -13 16v103zM229 350q0 -58 42.5 -100.5t100.5 -42.5t100.5 42.5t42.5 100.5t-42.5 100.5t-100.5 42.5t-100.5 -42.5t-42.5 -100.5zM855 -77q-5 -9 -27 -37t-27 -28l-7 4l-26 15l-36 21
q-3 3 -3 4q0 13 29 77q-11 14 -17 29q-83 9 -83 17v78q0 9 83 18q5 11 17 29q-29 64 -29 77q0 2 1 3.5t3 2.5t4.5 2t6.5 3t7 4l16 10q11 6 17 9q15 9 17 9q5 0 27 -28t27 -36q7 1 17 1t17 -1q33 45 51 63l4 1q2 0 69 -39q2 -2 2 -4q0 -15 -28 -77q9 -13 16 -29q83 -9 83 -18
v-78q0 -8 -83 -17q-7 -17 -16 -29q28 -62 28 -77q0 -2 -2 -4l-37 -21l-25 -15l-7 -4q-5 0 -27.5 28.5t-27.5 36.5q-14 -2 -17 -2t-17 2zM855 494q-5 -8 -27 -36t-27 -28q-1 0 -69 39q-3 3 -3 4q0 13 29 77q-11 14 -17 29q-83 9 -83 18v78q0 8 83 17q5 11 17 29
q-29 64 -29 77q0 2 1 3.5t3 2.5t4.5 2t6.5 3t7 4l16 9q11 7 17 10q15 9 17 9q5 0 27 -28t27 -36q14 2 17 2t17 -2q33 45 51 63l4 1q2 0 69 -39q2 -2 2 -4q0 -15 -28 -77q9 -13 16 -29q83 -9 83 -17v-78q0 -9 -83 -18q-7 -17 -16 -29q28 -62 28 -77q0 -2 -2 -4
q-67 -39 -69 -39q-5 0 -27.5 28t-27.5 36q-7 -1 -17 -1t-17 1zM801 64q0 -29 21 -50t50 -21t50.5 21t21.5 50q0 28 -22 50t-50 22t-49.5 -21.5t-21.5 -50.5zM801 636q0 -29 21 -50.5t50 -21.5t50.5 21.5t21.5 50.5q0 28 -21.5 49.5t-50.5 21.5q-28 0 -49.5 -21.5
t-21.5 -49.5z" />
    <glyph glyph-name="uni2707" unicode="&#x2707;" 
d="M948 513q67 -67 67 -163q0 -95 -67 -162q-68 -68 -163 -68h-540q-94 0 -162 68t-68 162q0 95 68 163q67 67 162 67q96 0 163 -67t67 -163q0 -72 -40 -130h160q-40 64 -40 130q0 95 68 163q67 67 162 67q96 0 163 -67zM115 350q0 -52 38.5 -91t91.5 -39t91.5 39t38.5 91
q0 53 -38.5 91.5t-91.5 38.5t-91.5 -38.5t-38.5 -91.5zM785 220q53 0 91.5 39t38.5 91q0 53 -38.5 91.5t-91.5 38.5t-91.5 -38.5t-38.5 -91.5q0 -52 38.5 -91t91.5 -39z" />
    <glyph glyph-name="uni2708" unicode="&#x2708;" horiz-adv-x="1033" 
d="M283 -120l124 400h-180l-112 -100h-100l80 170l-80 170h100l112 -100h180l-124 400h100l224 -400h274q12 -1 36 -4q37 -5 46 -11q11 -7 36 -21q27 -14 16 -34q0 -32 -38 -49q-40 -18 -74 -19l-38 -2h-258l-224 -400h-100z" />
    <glyph glyph-name="uni2709" unicode="&#x2709;" horiz-adv-x="930" 
d="M17 626q2 14 26 14h846q38 0 20 -32q-8 -15 -24 -22l-97 -51l-180 -97q-93 -50 -97 -52q-16 -10 -46 -10q-29 0 -46 10q-4 2 -97 52l-180 97l-97 51q-32 18 -28 40zM895 486q20 11 20 -10v-368q0 -16 -17 -32t-33 -16h-800q-16 0 -33 16t-17 32v368q0 21 20 10l384 -200
q17 -10 46 -10t46 10z" />
    <glyph glyph-name="uni270E" unicode="&#x270e;" horiz-adv-x="810" 
d="M780 616q15 -32 15 -48v-16l-542 -540l-238 -52l50 240l542 540q54 12 126 -60q32 -32 47 -64zM239 40l24 24q-1 44 -52 94q-20 20 -45 35q-22 13 -35 13l-14 2l-22 -24l-18 -80q56 -31 82 -82z" />
    <glyph glyph-name="uni2712" unicode="&#x2712;" horiz-adv-x="728" 
d="M75 -138q-6 -20 -26 -8q-18 7 -16 34q5 103 50 226q-100 154 -52 316q24 -79 76 -158q22 -34 32 -30q7 4 0 83q-8 88 -11 166q-3 88 25 157q24 47 80 94q62 52 104 70q-24 -47 -33 -94q-19 -105 17 -110q12 0 84 120q72 121 106 122q46 4 114 -29t82 -65q12 -24 0 -79
t-40 -83q-44 -44 -146 -62t-114 -24q-16 -10 12 -34q55 -48 176 -20q-55 -79 -136 -114q-77 -33 -132 -38q-53 -5 -54 -10q-4 -23 49 -54q53 -30 101 -14q-30 -56 -63 -84q-34 -29 -52.5 -35t-77.5 -11q-69 -6 -85 -8z" />
    <glyph glyph-name="uni2713" unicode="&#x2713;" horiz-adv-x="697" 
d="M264 0q-34 0 -56 28l-180 236q-25 39 -2 78.5t67 33.5q29 -5 47 -28l118 -154l296 474q15 23 41 30t55 -8q23 -15 30 -41t-8 -55l-350 -560q-20 -32 -56 -32z" />
    <glyph glyph-name="uni2715" unicode="&#x2715;" horiz-adv-x="500" 
d="M467 194q18 -18 18 -43t-17.5 -42t-43.5 -17t-43 16l-132 152l-132 -152q-17 -16 -43 -16t-43 16q-16 17 -16 43t16 43l138 156l-138 158q-16 17 -16 43t16 43q17 16 43 16t43 -16l132 -152l132 152q17 16 43 16t43.5 -17t17.5 -42t-18 -43l-138 -158z" />
    <glyph glyph-name="uni2716" unicode="&#x2716;" horiz-adv-x="870" 
d="M732 647q123 -123 123 -297t-123 -297t-297 -123t-297 123t-123 297t123 297t297 123t297 -123zM521 350l154 154l-86 86l-154 -152l-152 152l-88 -86l154 -154l-154 -152l88 -86l152 152l154 -152l86 86z" />
    <glyph glyph-name="uni274E" unicode="&#x274e;" horiz-adv-x="830" 
d="M715 750q42 0 71 -29t29 -71v-600q0 -41 -29.5 -70.5t-70.5 -29.5h-600q-40 0 -70 30t-30 70v600q0 41 29.5 70.5t70.5 29.5h600zM569 112l86 86l-154 152l154 154l-86 86l-154 -152l-152 152l-88 -86l154 -154l-154 -152l88 -86l152 152z" />
    <glyph glyph-name="uni275E" unicode="&#x275e;" horiz-adv-x="792" 
d="M15 530q0 61 43 105.5t103 44.5q146 0 184 -146q38 -140 -40 -302q-79 -168 -224 -204q-34 -8 -66 -8v70q111 0 182 108q54 86 26 146q-17 36 -62 36q-60 0 -103 44.5t-43 105.5zM581 680q146 0 184 -146q38 -140 -40 -302q-79 -168 -224 -204q-34 -8 -66 -8v70
q111 0 182 108q54 86 26 146q-17 36 -62 36q-60 0 -103 44.5t-43 105.5t43 105.5t103 44.5z" />
    <glyph glyph-name="uni2795" unicode="&#x2795;" horiz-adv-x="870" 
d="M732 647q123 -123 123 -297t-123 -297t-297 -123t-297 123t-123 297t123 297t297 123t297 -123zM487 300h200v102h-200v202h-102v-202h-202v-102h202v-202h102v202z" />
    <glyph glyph-name="uni2796" unicode="&#x2796;" horiz-adv-x="870" 
d="M732 647q123 -123 123 -297t-123 -297t-297 -123t-297 123t-123 297t123 297t297 123t297 -123zM687 402h-504v-102h504v102z" />
    <glyph glyph-name="uni27A1" unicode="&#x27a1;" horiz-adv-x="760" 
d="M365 680l380 -330l-380 -330v192h-350v278h350v190z" />
    <glyph glyph-name="uni27A2" unicode="&#x27a2;" horiz-adv-x="890" 
d="M863 768q17 -17 9 -38q-7 -20 -29 -65l-24 -49q-71 -147 -304 -578l-66 -118l-54 380l-380 56q449 250 696 368q8 4 33 17.5t44.5 23t34.5 13.5q23 7 40 -10zM771 672l-304 -280l28 -234z" />
    <glyph glyph-name="uni27A6" unicode="&#x27a6;" horiz-adv-x="930" 
d="M555 252q-211 0 -332 -45q-122 -45 -208 -197q9 48 20 76.5t43 93.5q40 83 96 148q56 64 156 117q101 53 225 53v192l360 -322l-360 -334v218z" />
    <glyph glyph-name="uni27F2" unicode="&#x27f2;" horiz-adv-x="970" 
d="M547 736q171 0 289 -120q119 -121 119 -290t-119 -290q-118 -120 -289 -120q-143 0 -252 88l70 74q84 -60 182 -60q126 0 216 90t90 218t-90 218t-216 90q-124 0 -214 -87q-91 -87 -92 -211h142l-184 -204l-184 204h124q1 166 122 283q120 117 286 117z" />
    <glyph glyph-name="uni27F3" unicode="&#x27f3;" horiz-adv-x="970" 
d="M423 760q168 0 287 -116q118 -116 123 -282h122l-184 -206l-184 206h144q-5 125 -94 210q-91 86 -214 86q-126 0 -216 -90t-90 -218q0 -126 90 -216t216 -90q104 0 182 60l70 -76q-109 -88 -252 -88q-168 0 -288 120t-120 290t120 290t288 120z" />
    <glyph glyph-name="uni2B05" unicode="&#x2b05;" horiz-adv-x="760" 
d="M393 20l-378 330l378 330v-190h352v-278h-352v-192z" />
    <glyph glyph-name="uni2B06" unicode="&#x2b06;" horiz-adv-x="690" 
d="M675 336h-192v-350h-276v350h-192l330 380z" />
    <glyph glyph-name="uni2B07" unicode="&#x2b07;" horiz-adv-x="690" 
d="M675 366l-330 -380l-330 380h192v350h276v-350h192z" />
    <glyph glyph-name="uni2B0C" unicode="&#x2b0c;" horiz-adv-x="370" 
d="M241 283v-167h112l-167 -168l-168 168h112v167h111zM130 506v168h-112l168 167l167 -167h-112v-168h-111z" />
    <glyph glyph-name="uni2B0D" unicode="&#x2b0d;" horiz-adv-x="928" 
d="M353 339h-167v-111l-168 167l168 168v-112h167v-112zM576 451h168v112l167 -168l-167 -167v111h-168v112z" />
    <glyph glyph-name="uniE003" unicode="&#xe003;" 
d="M365 400q21 0 35.5 -15t14.5 -35t-15.5 -35t-34.5 -15h-300q-19 0 -34.5 15t-15.5 35t14.5 35t35.5 15h300zM365 200q21 0 35.5 -15t14.5 -35t-15.5 -35t-34.5 -15h-300q-19 0 -34.5 15t-15.5 35t14.5 35t35.5 15h300zM1015 350q0 -50 -30 -50h-170v-170q0 -30 -50 -30
t-50 30v170h-164q-30 0 -30 50t30 50h164v170q0 30 50 30t50 -30v-170h170q30 0 30 -50zM365 600q21 0 35.5 -15t14.5 -35t-15.5 -35t-34.5 -15h-300q-19 0 -34.5 15t-15.5 35t14.5 35t35.5 15h300z" />
    <glyph glyph-name="uniE005" unicode="&#xe005;" horiz-adv-x="730" 
d="M115 200q19 0 34.5 -15t15.5 -35t-15.5 -35t-34.5 -15h-50q-19 0 -34.5 15t-15.5 35t14.5 35t35.5 15h50zM115 400q19 0 34.5 -15t15.5 -35t-15.5 -35t-34.5 -15h-50q-19 0 -34.5 15t-15.5 35t14.5 35t35.5 15h50zM115 600q19 0 34.5 -15t15.5 -35t-15.5 -35t-34.5 -15
h-50q-19 0 -34.5 15t-15.5 35t14.5 35t35.5 15h50zM315 500q-19 0 -34.5 15t-15.5 35t15.5 35t34.5 15h350q21 0 35.5 -15t14.5 -35t-15.5 -35t-34.5 -15h-350zM665 400q21 0 35.5 -15t14.5 -35t-15.5 -35t-34.5 -15h-350q-19 0 -34.5 15t-15.5 35t15.5 35t34.5 15h350z
M665 200q21 0 35.5 -15t14.5 -35t-15.5 -35t-34.5 -15h-350q-19 0 -34.5 15t-15.5 35t15.5 35t34.5 15h350z" />
    <glyph glyph-name="uniE4AD" unicode="&#xe4ad;" horiz-adv-x="760" 
d="M393 730v-190h352v-378h-352v-192l-378 380z" />
    <glyph glyph-name="uniE4AE" unicode="&#xe4ae;" horiz-adv-x="760" 
d="M365 730l380 -380l-380 -380v192h-350v378h350v190z" />
    <glyph glyph-name="uniE4AF" unicode="&#xe4af;" horiz-adv-x="790" 
d="M775 336h-192v-350h-376v350h-192l380 380z" />
    <glyph glyph-name="uniE4B0" unicode="&#xe4b0;" horiz-adv-x="790" 
d="M775 366l-380 -380l-380 380h192v350h376v-350h192z" />
    <glyph glyph-name="uniE700" unicode="&#xe700;" 
d="M815 6v-106h-800v202q41 16 82 26q95 34 129 69q35 35 35 95q0 22 -23 48q-24 27 -31 74q-1 11 -23 25q-21 13 -25 61q0 32 14 38l4 4q-1 6 -3 19q-13 53 -8 95.5t39 85.5q46 58 160 58t160 -58t42 -112l-14 -88q18 -8 18 -42q-5 -55 -23 -60q-20 -5 -23 -26
q-10 -46 -33 -73q-23 -28 -23 -49q0 -60 36 -95t130 -69q180 -65 180 -122zM865 400h150v-100h-150v-150h-100v150h-150v100h150v150h100v-150z" />
    <glyph glyph-name="uniE704" unicode="&#xe704;" horiz-adv-x="950" 
d="M795 680q135 -131 140 -322q2 -192 -131 -327q-134 -137 -323 -141q-192 -2 -327 131q-138 134 -139 323q-4 190 130 327q134 138 324 139t326 -130zM467 70q29 0 48.5 19t19.5 47q2 30 -17 49t-49 19h-2q-28 0 -47 -18t-21 -46q0 -29 19 -48.5t47 -21.5h2zM633 398
q26 35 26 78q0 76 -52 115t-136 39t-128.5 -44.5t-47.5 -127.5v-4h110v4q0 26 16 54q17 24 54 24q40 0 52 -20q16 -19 16 -44q0 -15 -9.5 -30t-19 -23t-27 -20.5t-22.5 -16.5q-26 -20 -38 -34q-13 -20 -18 -78v-8h108v4q0 40 32 64l28 18q46 34 56 50z" />
    <glyph glyph-name="uniE705" unicode="&#xe705;" horiz-adv-x="950" 
d="M795 680q135 -131 140 -322q2 -192 -131 -327q-134 -137 -323 -141q-192 -2 -327 131q-138 134 -139 323q-4 190 130 327q134 138 324 139t326 -130zM497 524q36 0 60 21.5t24 54.5q0 58 -60 58q-43 0 -65 -24q-23 -25 -23 -50q-2 -29 15.5 -44.5t48.5 -15.5zM401 64
q29 0 84 26q53 25 106 78l-18 24q-48 -36 -72 -36q-15 0 -4 38l42 160q25 96 -22 96q-29 0 -89 -29q-61 -30 -115 -75l16 -26q52 34 74 34q12 0 0 -34l-36 -152q-26 -104 34 -104z" />
    <glyph glyph-name="uniE70A" unicode="&#xe70a;" 
d="M515 630q88 0 174.5 -24.5t143.5 -62.5q116 -78 162 -148q20 -32 20 -45t-20 -44q-49 -74 -162 -149q-57 -38 -143.5 -62.5t-174.5 -24.5t-174.5 24.5t-143.5 62.5q-111 72 -162 149q-20 31 -20 44t20 45q48 74 162 148q57 38 143.5 62.5t174.5 24.5zM672 199
q65 63 65 151q0 90 -65 153q-64 63 -157 63t-157 -63q-65 -63 -65 -153q0 -88 65 -151q64 -63 157 -63t157 63zM515 350q8 -8 37 -2q11 2 28 6t22 5q21 4 25 -9q0 -44 -33.5 -75t-78.5 -31t-77.5 31t-32.5 75q0 46 32 77t78 31q5 0 7.5 -3t3 -9t0 -11.5t-3 -14t-3.5 -13
t-3 -11.5l-3 -8q-8 -25 2 -38z" />
    <glyph glyph-name="uniE70C" unicode="&#xe70c;" horiz-adv-x="990" 
d="M951 631q-43 -92 -128 -157l18 -24q17 -28 6 -54l-48 -158q-12 -29 -36 -46l-464 -328q-42 -30 -64 4l-210 304q-12 20 -8.5 40.5t20.5 31.5l464 328q25 18 54 18h158q30 0 48 -26l28 -40q168 130 114 286q-10 28 18 40q32 8 38 -20q36 -106 -8 -199zM743 362
q40 31 34 80l-32 -16q-7 -4 -12 -4q-17 0 -28 18q-12 30 16 40l24 14q-48 35 -92 0q-27 -17 -33.5 -49t13.5 -63q17 -24 49 -31t61 11z" />
    <glyph glyph-name="uniE711" unicode="&#xe711;" 
d="M775 494q99 0 170 -68q70 -67 70 -166t-70 -166q-71 -68 -170 -68h-190v190h106l-176 230l-174 -230h104v-190h-248q-73 0 -127.5 52t-54.5 124q0 74 53.5 126t128.5 52q12 0 20 -2q-2 16 -2 38q0 108 78 184q77 76 188 76q92 0 161.5 -53.5t92.5 -132.5q25 4 40 4z" />
    <glyph glyph-name="uniE712" unicode="&#xe712;" horiz-adv-x="930" 
d="M915 10q-86 152 -208 197q-121 45 -330 45v-218l-362 334l362 322v-192q88 0 166.5 -27t132.5 -70q110 -88 165 -199q57 -117 68 -164z" />
    <glyph glyph-name="uniE713" unicode="&#xe713;" 
d="M165 368l212 -196v-138l-362 334l362 322v-134zM627 498q103 0 182 -50q77 -49 115 -122q78 -155 87 -266l4 -50q-85 154 -168 198t-220 44v-218l-362 334l362 322v-192z" />
    <glyph glyph-name="uniE714" unicode="&#xe714;" 
d="M411 604q0 -18 -16 -30l-246 -224l246 -226q16 -12 16 -30q0 -19 -16 -32q-30 -30 -60 0l-320 288l320 286q30 30 60 0q16 -13 16 -32zM697 636l318 -286l-318 -288q-32 -30 -62 0q-32 32 0 62l248 226l-248 224q-32 30 0 62q30 30 62 0z" />
    <glyph glyph-name="uniE715" unicode="&#xe715;" 
d="M15 560q0 22 14 36t36 14h288q-65 -49 -98 -88l-10 -12h-130v-450h650v56l100 82v-188q0 -20 -15.5 -35t-34.5 -15h-750q-19 0 -34.5 15t-15.5 35v550zM683 408q-165 0 -242 -41q-75 -40 -160 -181q0 72 32 157q16 43 48 88.5t66 73.5q42 35 111 57t145 22v156l332 -250
l-332 -260v178z" />
    <glyph glyph-name="uniE716" unicode="&#xe716;" horiz-adv-x="1010" 
d="M59 548q4 9 12 14q1 0 49 17q62 22 93 32q47 15 58 15h44v150h380v-150h46q12 0 57 -15l92 -32q48 -17 49 -17q18 -8 12 -26q-4 -10 -20 -10h-850q-26 0 -22 22zM941 470q20 0 37 -19.5t17 -40.5v-174q0 -21 -17 -40.5t-37 -19.5h-100l44 -250h-760l44 250h-98
q-20 0 -38 19.5t-18 40.5v174q0 21 18 40.5t38 19.5h870zM225 26h560l-70 324h-420z" />
    <glyph glyph-name="uniE717" unicode="&#xe717;" 
d="M217 50q-41 0 -70.5 29.5t-29.5 70.5v302h-102l176 198l174 -198h-100v-262h272l128 -140h-448zM915 250h100l-174 -200l-176 200h102v260h-274l-128 140h450q41 0 70.5 -29.5t29.5 -70.5v-300z" />
    <glyph glyph-name="uniE718" unicode="&#xe718;" horiz-adv-x="830" 
d="M715 700q42 0 71 -29t29 -71v-350q0 -41 -29.5 -70.5t-70.5 -29.5h-200v-150l-200 150h-200q-40 0 -70 30t-30 70v350q0 41 29.5 70.5t70.5 29.5h600z" />
    <glyph glyph-name="uniE71A" unicode="&#xe71a;" horiz-adv-x="1088" 
d="M1075 432q0 -124 -76.5 -217.5t-188.5 -144.5q-124 -56 -266 -56q-110 0 -211 35l2 -3l-321 -96q40 54 63 113q24 59 28 96l4 34q-95 107 -95 239q0 125 75.5 218t187.5 144q123 56 267 56q147 0 269 -57.5t191 -150.5q71 -95 71 -210z" />
    <glyph glyph-name="uniE720" unicode="&#xe720;" 
d="M15 450q0 41 29.5 70.5t70.5 29.5h190v-310h350l6 2h4v-92q0 -41 -29.5 -70.5t-70.5 -29.5h-250l-150 -150v150h-50q-40 0 -70 30t-30 70v300zM915 800q42 0 71 -29t29 -71v-300q0 -41 -29.5 -70.5t-70.5 -29.5h-50v-150l-150 150h-350v400q0 41 29.5 70.5t70.5 29.5h450
z" />
    <glyph glyph-name="uniE722" unicode="&#xe722;" 
d="M915 750q42 0 71 -29t29 -71v-600q0 -41 -29.5 -70.5t-70.5 -29.5h-800q-40 0 -70 30t-30 70v600q0 41 29.5 70.5t70.5 29.5h800zM915 650h-800v-600h800v600zM465 156h-250v90h250v-90zM465 306h-250v90h250v-90zM465 456h-250v90h250v-90zM811 226l4 -70h-250
q0 70 6 70q84 22 84 66q0 16 -27 56t-27 88q0 110 90 110t90 -110q0 -48 -28 -88t-28 -56q0 -20 20.5 -35.5t43.5 -22.5z" />
    <glyph glyph-name="uniE723" unicode="&#xe723;" 
d="M461 780v-860q0 -20 -20 -20h-46q-20 0 -20 20v440h-176q-16 0 -28 6q-13 2 -26 12l-120 82q-10 6 -10 16t10 16l120 82q13 10 26 12q7 4 28 4h176v190q0 20 20 20h46q20 0 20 -20zM1005 592q10 -6 10 -16t-10 -16l-118 -82q-23 -12 -26 -12q-13 -6 -28 -6h-302l-40 230
h342q22 0 54 -16z" />
    <glyph glyph-name="uniE724" unicode="&#xe724;" horiz-adv-x="530" 
d="M442 677q73 -73 73 -177q0 -105 -62 -243q-63 -139 -126 -223l-62 -84q-35 41 -83 116.5t-80 137.5q-87 169 -87 296q0 104 73 177t177 73t177 -73zM265 362q55 0 95.5 40t40.5 96q0 55 -40 94.5t-96 39.5q-55 0 -94.5 -39t-39.5 -95t39.5 -96t94.5 -40z" />
    <glyph glyph-name="uniE727" unicode="&#xe727;" 
d="M1015 -14q0 -14 -9 -25t-23 -11q-7 0 -18 6l-216 136l-216 -136q-18 -10 -34 0l-218 136l-216 -136q-16 -10 -34 0q-16 10 -16 30v584q0 20 16 30l234 146q18 10 34 0l216 -136l218 136q16 10 32 0l234 -146q16 -10 16 -30v-584zM249 150v506l-168 -104v-506zM483 46v506
l-168 104v-506zM717 150v506l-170 -104v-506zM949 46v506l-168 104v-506z" />
    <glyph glyph-name="uniE728" unicode="&#xe728;" horiz-adv-x="990" 
d="M829 694q141 -137 146 -336q2 -200 -136 -342q-137 -141 -338 -146q-200 -2 -341 137q-144 140 -145 337q-5 200 135 342t339 144q198 2 340 -136zM767 86q109 112 108 270q-1 157 -115 267q-111 109 -269 107q-157 -2 -267 -114q-109 -111 -107 -270q1 -158 114 -267
q111 -109 270 -107q157 2 266 114zM267 126q9 58 18.5 93t34.5 101q33 88 77 132q45 45 125 76q81 32 141 42l60 10q-9 -58 -18.5 -93t-34.5 -101q-33 -88 -77 -132q-43 -43 -124 -74q-83 -32 -142 -42zM447 402q-22 -19 -22 -48q0 -27 21.5 -49.5t49.5 -22.5q30 0 49 22
q52 52 88 186q-137 -36 -186 -88z" />
    <glyph glyph-name="uniE729" unicode="&#xe729;" horiz-adv-x="790" 
d="M65 458q121 -70 330 -70t330 70l-54 -486q-1 -13 -35 -36q-32 -22 -100 -43t-141 -21q-64 0 -132.5 19t-107.5 45q-35 22 -36 36zM553 758q94 -18 158 -55t64 -71v-10q0 -59 -112 -99q-114 -41 -268 -41t-268 41q-112 40 -112 99v10q0 34 64 71t158 55l42 48q23 26 70 26
h92q52 0 70 -26zM499 646h84q-95 114 -104 126q-13 16 -32 16h-102q-22 0 -32 -16l-106 -126h84l64 66h82z" />
    <glyph glyph-name="uniE730" unicode="&#xe730;" horiz-adv-x="730" 
d="M615 800q42 0 71 -29t29 -71v-700q0 -41 -29.5 -70.5t-70.5 -29.5h-500q-40 0 -70 30t-30 70v700q0 41 29.5 70.5t70.5 29.5h500zM615 0v700h-500v-700h500z" />
    <glyph glyph-name="uniE731" unicode="&#xe731;" horiz-adv-x="730" 
d="M615 800q42 0 71 -29t29 -71v-700q0 -41 -29.5 -70.5t-70.5 -29.5h-500q-40 0 -70 30t-30 70v700q0 41 29.5 70.5t70.5 29.5h500zM155 504h420v88h-420v-88zM575 200h-420v-88h420v88zM575 308v90h-418v-90h418z" />
    <glyph glyph-name="uniE735" unicode="&#xe735;" horiz-adv-x="996" 
d="M978 721v-631q0 -44 -33 -77.5t-73 -33.5h-717q-136 0 -136 159v461h132v122h827zM151 531h-65v-393q0 -86 32 -86q33 0 33 86v393zM910 654h-691v-516q0 -54 -19 -92h672q17 0 27.5 14.5t10.5 29.5v564zM485 202h-159v23h159v-23zM485 131h-159v23h159v-23zM548 439h266
v-254h-266v254zM485 342h-159v23h159v-23zM485 271h-159v23h159v-23zM485 416h-159v23h159v-23zM350 511v44h416v-44h-416z" />
    <glyph glyph-name="uniE736" unicode="&#xe736;" horiz-adv-x="1031" 
d="M985 480q37 -10 30 -46l-150 -556q-4 -15 -17.5 -22.5t-30.5 -3.5l-406 110q-14 3 -23 16.5t-5 29.5l24 92l-180 -48q-39 -10 -50 26l-160 602q-10 36 28 48l454 122q17 4 30.5 -3.5t17.5 -22.5l66 -244zM97 670l144 -542l392 106l-144 540zM799 -72l132 492l-298 82
l76 -282q10 -34 -28 -46l-196 -52l-26 -102z" />
    <glyph glyph-name="uniE737" unicode="&#xe737;" 
d="M15 600q0 41 29.5 70.5t70.5 29.5h800q42 0 71 -29t29 -71v-500q0 -41 -29.5 -70.5t-70.5 -29.5h-800q-40 0 -70 30t-30 70v500zM915 600h-800v-500h800v500z" />
    <glyph glyph-name="uniE738" unicode="&#xe738;" horiz-adv-x="1011" 
d="M159 600q0 18 11.5 33t26.5 17h608q20 0 36 -15q14 -14 14 -35v-50h-696v50zM259 700q0 18 11.5 33t26.5 17h410q20 0 36 -15q14 -14 14 -35h-498zM955 550q33 -30 38 -46q6 -18 0 -54l-76 -450q-3 -18 -17.5 -32.5t-30.5 -17.5h-710q-52 0 -60 50q0 1 -39 225t-39 225
q-10 22 -3 44t10 26q1 2 21 20l40 40v-80h836v80zM707 280v100h-70v-80h-260v80h-68v-100q0 -50 48 -50h300q18 0 33 10.5t15 25.5z" />
    <glyph glyph-name="uniE73A" unicode="&#xe73a;" horiz-adv-x="790" 
d="M552 507q223 -223 223 -537h-118q0 265 -188 453q-187 187 -454 187v120q314 0 537 -223zM386 339q153 -153 153 -369h-118q0 166 -119 285t-287 119v118q218 0 371 -153zM129 196q47 0 80.5 -34t33.5 -80t-34 -79t-80 -33t-80 33t-34 79t33.5 80t80.5 34z" />
    <glyph glyph-name="uniE73C" unicode="&#xe73c;" horiz-adv-x="830" 
d="M665 200q62 0 106 -43.5t44 -106.5q0 -62 -44.5 -106t-105.5 -44t-105.5 44t-44.5 106q0 3 1 13t1 13l-260 156q-43 -32 -92 -32q-61 0 -105.5 44t-44.5 106t44.5 106t105.5 44q55 0 92 -30l260 156q0 2 -1 12t-1 12q0 62 44.5 106t105.5 44q62 0 106 -43.5t44 -106.5
q0 -62 -44.5 -106t-105.5 -44q-52 0 -90 32l-262 -156q2 -10 2 -26q0 -14 -2 -24l262 -156q36 30 90 30z" />
    <glyph glyph-name="uniE73D" unicode="&#xe73d;" horiz-adv-x="930" 
d="M165 0q0 40 30 70t70 30q41 0 70.5 -29.5t29.5 -70.5q0 -42 -29 -71t-71 -29q-41 0 -70.5 29.5t-29.5 70.5zM665 0q0 40 30 70t70 30q41 0 70.5 -29.5t29.5 -70.5q0 -42 -29 -71t-71 -29q-41 0 -70.5 29.5t-29.5 70.5zM343 236q-18 -5 -26.5 -10.5t-7.5 -12.5
q1 -13 44 -13h562v-76q0 -20 -20 -20h-654q-20 0 -20 20v76l-54 250l-54 250h-98v80q0 20 20 20h156q20 0 20 -20v-86h704v-274q0 -22 -18 -26z" />
    <glyph glyph-name="uniE73E" unicode="&#xe73e;" 
d="M355 350q0 67 47 113.5t113 46.5t113 -46.5t47 -113.5q0 -65 -47.5 -112.5t-112.5 -47.5t-112.5 47.5t-47.5 112.5zM175 350h-160v120h118q40 124 145 202t237 78q163 0 284 -116q16 -17 16 -43t-16 -43q-17 -16 -43 -16t-43 16q-78 82 -198 82q-102 0 -177.5 -64
t-96.5 -156q-13 -60 -66 -60zM855 350h160v-120h-118q-39 -120 -141.5 -200t-240.5 -80q-164 0 -282 118q-18 18 -18 43t18 41q17 18 41 18q25 0 43 -18q82 -82 198 -82q101 0 177 64t97 156q12 60 66 60z" />
    <glyph glyph-name="uniE740" unicode="&#xe740;" horiz-adv-x="930" 
d="M815 800q42 0 71 -29t29 -71v-700q0 -41 -29.5 -70.5t-70.5 -29.5h-450q-40 0 -69 30t-29 70v100h98v-100h450v700h-450v-150h-98v150q0 41 29 70.5t69 29.5h450zM465 130v120h-450v150h450v120l200 -194z" />
    <glyph glyph-name="uniE741" unicode="&#xe741;" horiz-adv-x="930" 
d="M515 800q42 0 71 -29t29 -71v-150h-98v150h-402v-700h402v100h98v-100q0 -41 -29.5 -70.5t-70.5 -29.5h-400q-40 0 -70 30t-30 70v700q0 41 29.5 70.5t70.5 29.5h400zM915 326l-198 -196v120h-450v150h450v120z" />
    <glyph glyph-name="uniE742" unicode="&#xe742;" horiz-adv-x="926" 
d="M911 180q0 -33 -24 -56.5t-56 -23.5h-780q-9 0 -15 0.5t-13 2.5t-8 6t2 11q5 9 24 20l802 452q29 18 48.5 6.5t19.5 -44.5v-374z" />
    <glyph glyph-name="uniE744" unicode="&#xe744;" horiz-adv-x="822" 
d="M491 746h316v-316l-100 124l-146 -152l-100 100l152 146zM261 302l100 -100l-152 -146l122 -100h-316v316l100 -122z" />
    <glyph glyph-name="uniE745" unicode="&#xe745;" horiz-adv-x="928" 
d="M839 99l72 72v-223h-223l72 72l-184 184l79 79zM90 690l-72 -72v223h223l-72 -72l184 -184l-79 -79zM760 769l-72 72h223v-223l-72 72l-184 -184l-79 79zM353 204l-184 -184l72 -72h-223v223l72 -72l184 184z" />
    <glyph glyph-name="uniE746" unicode="&#xe746;" horiz-adv-x="930" 
d="M171 146l-106 100h296v-296l-100 106l-146 -156l-100 100zM915 700l-154 -144l104 -100h-294v294l100 -104l144 154z" />
    <glyph glyph-name="uniE747" unicode="&#xe747;" horiz-adv-x="928" 
d="M648 132l-72 -72v223h223l-72 -72l184 -184l-79 -79zM200 579l-182 183l79 79l183 -182l73 70l-1 -222l-222 -1zM18 27l184 184l-72 72h223v-223l-72 72l-184 -184zM800 506h-224v225l73 -72l183 182l79 -79l-183 -183z" />
    <glyph glyph-name="uniE74A" unicode="&#xe74a;" horiz-adv-x="928" 
d="M521 283v-167h111l-168 -168l-166 168h111v167h112zM409 506v168h-111l166 167l168 -167h-111v-168h-112zM353 339h-167v-111l-168 167l168 168v-112h167v-112zM576 451h168v112l167 -168l-167 -167v111h-168v112z" />
    <glyph glyph-name="uniE74C" unicode="&#xe74c;" horiz-adv-x="830" 
d="M715 750q42 0 71 -29t29 -71v-400q0 -41 -29.5 -70.5t-70.5 -29.5h-400q-40 0 -70 30t-30 70v402q0 40 29.5 69t70.5 29h400zM715 650h-400v-400h400v400zM115 350v-300h300v-100h-300q-40 0 -70 30t-30 70v300h100z" />
    <glyph glyph-name="uniE74D" unicode="&#xe74d;" 
d="M915 800q41 0 70.5 -29.5t29.5 -70.5v-600q0 -42 -29 -71t-71 -29h-198v98h200v462h-802v-462h200v-98h-200q-41 0 -70.5 29.5t-29.5 70.5v600q0 40 30 70t70 30h800zM107 670q0 -16 11 -27t27 -11q38 0 38 38q0 16 -11 26t-27 10q-15 0 -26.5 -10.5t-11.5 -25.5z
M207 670q0 -16 11 -27t27 -11q38 0 38 38q0 16 -11 26t-27 10q-15 0 -26.5 -10.5t-11.5 -25.5zM917 700h-602v-62h602v62zM513 440l242 -240h-150v-300h-184v300h-150z" />
    <glyph glyph-name="uniE74E" unicode="&#xe74e;" 
d="M915 750q41 0 70.5 -29.5t29.5 -70.5v-600q0 -42 -29 -71t-71 -29h-800q-41 0 -70.5 29.5t-29.5 70.5v600q0 40 30 70t70 30h800zM245 656q-15 0 -26.5 -10.5t-11.5 -25.5q0 -16 11 -27t27 -11q38 0 38 38q0 16 -11 26t-27 10zM107 620q0 -16 11 -27t27 -11q38 0 38 38
q0 16 -11 26t-27 10q-15 0 -26.5 -10.5t-11.5 -25.5zM917 510h-802v-460h802v460zM917 590v60h-602v-60h602z" />
    <glyph glyph-name="uniE74F" unicode="&#xe74f;" horiz-adv-x="490" 
d="M245 850l230 -364h-460zM245 -150l-230 366h460z" />
    <glyph glyph-name="uniE750" unicode="&#xe750;" horiz-adv-x="959" 
d="M944 -79q0 -29 -21.5 -50t-50.5 -21q-30 0 -50 21l-191 191q-101 -69 -223 -69q-83 0 -155 32t-123 83t-83 123t-32 155t32 155t83 123t123 83t155 32t155 -32t123 -83t83 -123t32 -155q0 -122 -69 -223l191 -191q21 -21 21 -51zM231 209q73 -73 177 -73q103 0 176 73
q74 74 74 177q0 102 -74 176t-176 74q-103 0 -177 -74q-73 -73 -73 -176q0 -104 73 -177zM229 368v36q0 17 18 17h125v125q0 8 5 13t13 5h36q8 0 13 -5t5 -13v-125h125q17 0 17 -17v-36q0 -18 -17 -18h-125v-125q0 -7 -5 -12.5t-13 -5.5h-36q-8 0 -13 5.5t-5 12.5v125h-125
q-7 0 -12.5 5t-5.5 13z" />
    <glyph glyph-name="uniE751" unicode="&#xe751;" horiz-adv-x="870" 
d="M383 402h-368q18 146 121 249q102 102 247 119v-368zM489 770q155 -19 261 -139q105 -119 105 -279q0 -174 -123 -298t-299 -124q-159 0 -278 105q-117 104 -140 263h424q20 0 35 14.5t15 35.5v422z" />
    <glyph glyph-name="uniE752" unicode="&#xe752;" horiz-adv-x="1031" 
d="M929 634l8 -48q4 -10 -4 -12l-176 -30v-102h12q86 0 148 -36.5t86 -99.5q30 -83 -10 -176q-41 -95 -134 -160q-10 0 -12 2l-32 38q-2 6 2 10q85 60 117 152t-11 148q-34 -82 -98 -156q-35 -41 -84 -64.5t-108 -15.5q-53 6 -84.5 41.5t-31.5 92.5q0 84 60 148
q49 50 114 66l-2 100q-139 -24 -146 -24q-6 -1 -10 4l-3 14l-4 28q-3 15 -3 18q-3 3 1 4.5t7 1.5l156 28q0 108 -2 114q0 8 8 8q44 0 52 2q10 0 10 -8v-104q154 22 164 22q8 5 10 -6zM691 366q-44 -15 -74 -56.5t-30 -91.5q0 -66 46 -72q28 -6 62 6zM769 380q-1 0 -6 -1
t-6 -1l-2 -204q26 22 57 67t46 80t7 41q-36 18 -96 18zM307 556q14 -38 39 -118l56 -178l41 -130q40 -123 40 -126q0 -4 -4 -4h-86q-6 0 -6 4l-50 166h-176q-48 -164 -50 -166q0 -4 -6 -4h-86q-4 0 -4 4q8 14 176 552q2 8 10 8h96q10 0 10 -8zM177 240h144l-72 264z" />
    <glyph glyph-name="uniE753" unicode="&#xe753;" horiz-adv-x="935" 
d="M100 534q-25 -22 -55 -5.5t-27 47.5q2 22 18 36q49 42 79 60q36 22 89 40q60 20 129 4q71 -16 159 -66q90 -50 155 -53q68 -3 100 16q36 22 89 67q38 30 70 -6q32 -40 -6 -72q-122 -110 -234 -110q-101 0 -222 70q-70 39 -119 52q-51 14 -93 0q-42 -13 -65 -29
q-28 -18 -67 -51zM906 418q32 -40 -6 -72l-65 -53q-28 -22 -77 -39.5t-92 -17.5q-97 0 -222 70q-70 39 -119 52q-51 14 -93 0q-42 -13 -65 -29q-28 -18 -67 -51q-16 -14 -36.5 -11.5t-33.5 17.5q-32 40 6 72q43 39 62 52t67 36q49 23 91.5 24t101.5 -16q66 -17 134 -56
q70 -39 119 -52q51 -14 93 0q42 13 65 29q28 18 67 51q38 32 70 -6zM836 168q38 32 70 -6q14 -16 11.5 -37.5t-17.5 -34.5l-65 -53q-28 -22 -77 -39.5t-92 -17.5q-97 0 -222 70q-70 39 -119 52q-53 14 -93 1q-45 -14 -66 -29q-27 -19 -66 -52q-16 -14 -36.5 -11.5
t-33.5 17.5q-32 40 6 72q43 39 62 52t67 36q49 23 91.5 24t101.5 -16q66 -17 134 -56q70 -39 119 -52q51 -14 93 0q42 13 65 29q28 18 67 51z" />
    <glyph glyph-name="uniE754" unicode="&#xe754;" horiz-adv-x="730" 
d="M715 206v-100q0 -73 -104 -135q-103 -61 -246 -61q-141 0 -245 61q-105 61 -105 135v100q0 10 4.5 10.5t9.5 -8.5q34 -56 130.5 -88t205.5 -32t205 32t131 88q14 20 14 -2zM715 462v-116q0 -68 -102 -114q-101 -46 -248 -46q-145 0 -247 46q-103 46 -103 114v116
q0 20 14 0q33 -50 130.5 -77t205.5 -27t205.5 26.5t132.5 77.5q7 16 12 0zM365 790q143 0 247 -39q103 -39 103 -93v-64q0 -59 -103 -99q-105 -41 -247 -41t-247 41q-103 40 -103 99v64q0 54 103 93q104 39 247 39z" />
    <glyph glyph-name="uniE755" unicode="&#xe755;" horiz-adv-x="932" 
d="M899 304q26 -44 14 -96l-34 -184q-2 -20 -19.5 -35t-38.5 -15h-712q-20 0 -38 15.5t-20 34.5l-34 184q-8 54 14 96l158 374q22 46 72 46h408q50 0 74 -46zM831 172q2 22 -10.5 38t-33.5 16h-644q-21 0 -33.5 -16t-10.5 -38l14 -74q2 -21 19 -36.5t39 -15.5h590
q22 0 39 15.5t19 36.5z" />
    <glyph glyph-name="uniE756" unicode="&#xe756;" horiz-adv-x="943" 
d="M537 360q-28 0 -49 -21t-21 -49q0 -20 10 -36q-43 -52 -108.5 -86.5t-137.5 -29.5q-101 10 -157 57q-54 46 -59 109q-8 122 156 184q-17 89 -22 138q-8 56 104 105q111 49 284 49q175 0 286 -49q112 -49 104 -105l-45 -288l-32 -208l-15 -92q-1 -18 -37 -44
q-35 -26 -107 -50t-154 -24q-83 0 -153 24q-71 24 -106 50q-36 26 -37 44q0 5 -4 30q91 -7 170 38t132 114q28 0 48 20.5t20 49.5t-20.5 49.5t-49.5 20.5zM122 251q33 -27 91 -39l-32 204q-101 -44 -96 -106q5 -33 37 -59zM537 522q71 0 149 16.5t121 40.5q38 21 38 35
t-38 35q-44 24 -121 40.5t-149 16.5q-71 0 -147.5 -16.5t-120.5 -40.5q-38 -21 -38 -35t38 -35q43 -24 120 -40.5t148 -16.5z" />
    <glyph glyph-name="uniE757" unicode="&#xe757;" horiz-adv-x="570" 
d="M415 356q62 -35 101 -96t39 -140q0 -112 -79 -191t-191 -79t-191 79t-79 191q0 79 39 140t101 96v444q0 50 40 50h170q19 0 34.5 -15t15.5 -35v-444zM285 -50q70 0 120 50t50 120q0 58 -33 101t-83 59v370h-100v-368q-51 -15 -87.5 -59.5t-36.5 -102.5q0 -70 50 -120
t120 -50z" />
    <glyph glyph-name="uniE758" unicode="&#xe758;" horiz-adv-x="950" 
d="M800 675q135 -135 135 -325t-135 -325t-325 -135t-325 135t-135 325t135 325t325 135t325 -135zM729 96q106 106 106 254q0 150 -106 255q-107 105 -254 105t-254 -105q-106 -105 -106 -255q0 -148 106 -254t254 -106t254 106zM565 544v-206h112l-202 -190l-202 190h112
v206h180z" />
    <glyph glyph-name="uniE759" unicode="&#xe759;" horiz-adv-x="950" 
d="M800 25q-135 -135 -325 -135t-325 135t-135 325q0 192 135 326q136 134 325 134t325 -134q135 -134 135 -326q0 -190 -135 -325zM221 96q106 -106 254 -106t254 106t106 254q0 150 -106 255q-107 105 -254 105t-254 -105q-106 -105 -106 -255q0 -148 106 -254zM667 260
h-204v-112l-190 202l190 204v-114h204v-180z" />
    <glyph glyph-name="uniE75A" unicode="&#xe75a;" horiz-adv-x="950" 
d="M150 675q135 135 325 135t325 -135t135 -325t-135 -325t-325 -135t-325 135t-135 325t135 325zM730 605q-105 105 -255 105q-147 0 -254 -105q-106 -105 -106 -255q0 -148 106 -254t254 -106q150 0 255 106t105 254q0 150 -105 255zM283 440h204v114l190 -204l-190 -202
v112h-204v180z" />
    <glyph glyph-name="uniE75B" unicode="&#xe75b;" horiz-adv-x="950" 
d="M150 25q-135 135 -135 325q0 192 135 326q136 134 325 134t325 -134q135 -134 135 -326q0 -190 -135 -325t-325 -135t-325 135zM221 605q-106 -105 -106 -255q0 -148 106 -254t254 -106q150 0 255 106t105 254q0 150 -105 255t-255 105q-147 0 -254 -105zM385 158v204
h-112l202 192l202 -192h-112v-204h-180z" />
    <glyph glyph-name="uniE75C" unicode="&#xe75c;" horiz-adv-x="610" 
d="M579 422l-234 -224q-18 -18 -40 -18t-40 18l-234 224q-16 16 -16 41t16 41q37 38 78 0l196 -188l196 188q41 38 78 0q16 -16 16 -41t-16 -41z" />
    <glyph glyph-name="uniE75D" unicode="&#xe75d;" horiz-adv-x="371" 
d="M257 626q13 16 39 16q25 0 41 -16q38 -36 0 -80l-186 -196l186 -194q38 -44 0 -80q-16 -16 -40 -16t-40 16l-226 236q-16 16 -16 38q0 24 16 40z" />
    <glyph glyph-name="uniE75E" unicode="&#xe75e;" horiz-adv-x="370" 
d="M113 626l226 -236q16 -16 16 -40q0 -22 -16 -38l-226 -236q-16 -16 -40 -16t-40 16q-36 36 0 80l186 194l-186 196q-36 44 0 80q16 16 41 16q26 0 39 -16z" />
    <glyph glyph-name="uniE75F" unicode="&#xe75f;" horiz-adv-x="610" 
d="M579 280q16 -16 16 -41t-16 -41q-37 -38 -78 0l-196 188l-196 -188q-41 -38 -78 0q-16 16 -16 41t16 41l234 224q16 16 40 16t40 -16z" />
    <glyph glyph-name="uniE760" unicode="&#xe760;" horiz-adv-x="496" 
d="M420 470q22 26 48 0q26 -22 0 -48l-196 -192q-22 -22 -48 0l-196 192q-26 26 0 48q24 24 50 0l170 -156z" />
    <glyph glyph-name="uniE761" unicode="&#xe761;" horiz-adv-x="295" 
d="M267 180q25 -26 0 -48q-25 -26 -48 0l-192 194q-24 24 0 50l192 194q23 26 48 0q25 -22 0 -48l-156 -172z" />
    <glyph glyph-name="uniE762" unicode="&#xe762;" horiz-adv-x="295" 
d="M28 180l158 170l-158 172q-26 26 0 48q26 26 48 0l192 -194q24 -26 0 -50l-192 -194q-22 -26 -48 0q-26 22 0 48z" />
    <glyph glyph-name="uniE763" unicode="&#xe763;" horiz-adv-x="494" 
d="M77 230q-26 -23 -50 0q-24 24 0 50l196 190q25 26 48 0l196 -190q24 -26 0 -50q-24 -23 -50 0l-170 158z" />
    <glyph glyph-name="uniE764" unicode="&#xe764;" horiz-adv-x="896" 
d="M78 570l370 -356l372 356q22 26 48 0q26 -22 0 -48l-396 -392q-22 -22 -48 0l-396 392q-26 26 0 48q24 24 50 0z" />
    <glyph glyph-name="uniE765" unicode="&#xe765;" horiz-adv-x="495" 
d="M467 -20q25 -26 0 -48q-25 -26 -48 0l-392 394q-24 24 0 50l392 394q23 26 48 0q25 -22 0 -48l-358 -372z" />
    <glyph glyph-name="uniE766" unicode="&#xe766;" horiz-adv-x="495" 
d="M28 -20l358 370l-358 372q-26 26 0 48q26 26 48 0l392 -394q24 -26 0 -50l-392 -394q-22 -26 -48 0q-26 22 0 48z" />
    <glyph glyph-name="uniE767" unicode="&#xe767;" horiz-adv-x="894" 
d="M819 130l-372 358l-370 -358q-26 -23 -50 0q-24 24 0 50l396 390q25 26 48 0l396 -390q24 -26 0 -50q-25 -22 -48 0z" />
    <glyph glyph-name="uniE769" unicode="&#xe769;" 
d="M915 600q41 0 70.5 -29.5t29.5 -70.5v-300q0 -42 -29 -71t-71 -29h-800q-41 0 -70.5 29.5t-29.5 70.5v300q0 40 30 70t70 30h800zM915 500h-800v-300h800v300zM165 250v198h200v-198h-200z" />
    <glyph glyph-name="uniE76A" unicode="&#xe76a;" 
d="M915 600q41 0 70.5 -29.5t29.5 -70.5v-300q0 -42 -29 -71t-71 -29h-800q-41 0 -70.5 29.5t-29.5 70.5v300q0 40 30 70t70 30h800zM915 500h-800v-300h800v300zM165 448h200v-198h-200v198zM415 250v198h200v-198h-200z" />
    <glyph glyph-name="uniE76B" unicode="&#xe76b;" 
d="M915 600q41 0 70.5 -29.5t29.5 -70.5v-300q0 -42 -29 -71t-71 -29h-800q-41 0 -70.5 29.5t-29.5 70.5v300q0 40 30 70t70 30h800zM915 500h-800v-300h800v300zM165 448h200v-198h-200v198zM415 448h200v-198h-200v198zM665 448h200v-198h-200v198z" />
    <glyph glyph-name="uniE771" unicode="&#xe771;" horiz-adv-x="970" 
d="M836 640q119 -121 119 -290t-119 -290q-118 -120 -289 -120q-139 0 -252 88l70 76q83 -60 182 -60q126 0 216 90t90 216q0 128 -90 218t-216 90q-124 0 -213 -86q-88 -86 -93 -210h142l-184 -206l-184 206h124q5 166 123 282q119 116 285 116q171 0 289 -120zM511 570h70
v-204l130 -130l-50 -50l-150 150v234z" />
    <glyph glyph-name="uniE772" unicode="&#xe772;" horiz-adv-x="928" 
d="M911 506v-223h-112v-55q0 -24 -16 -40.5t-39 -16.5h-670q-24 0 -40 17t-16 40v335q0 22 16 38.5t40 16.5h670q24 0 39.5 -15.5t15.5 -39.5v-57h112zM688 283v223h-558v-223h558z" />
    <glyph glyph-name="uniE773" unicode="&#xe773;" horiz-adv-x="928" 
d="M911 506v-223h-112v-55q0 -24 -16 -40.5t-39 -16.5h-670q-24 0 -40 17t-16 40v335q0 22 16 38.5t40 16.5h670q24 0 39.5 -15.5t15.5 -39.5v-57h112zM688 283v223h-224v-223h224z" />
    <glyph glyph-name="uniE774" unicode="&#xe774;" horiz-adv-x="928" 
d="M911 506v-223h-112v-55q0 -24 -16 -40.5t-39 -16.5h-670q-24 0 -40 17t-16 40v335q0 22 16 38.5t40 16.5h670q24 0 39.5 -15.5t15.5 -39.5v-57h112z" />
    <glyph glyph-name="uniE775" unicode="&#xe775;" horiz-adv-x="928" 
d="M799 506h112v-223h-112v-55q0 -24 -16 -40.5t-39 -16.5h-670q-24 0 -40 17t-16 40v110h179q17 -49 60 -80t97 -31v56h113v56h-113v112h110v55h-110v55q-54 0 -97 -31t-60 -80h-179v113q0 22 16 38.5t40 16.5h670q24 0 39.5 -15.5t15.5 -39.5v-57z" />
    <glyph glyph-name="uniE776" unicode="&#xe776;" horiz-adv-x="950" 
d="M197 494q-51 56 -92 128q55 75 128 118q89 -37 152 -82q-6 -16 -6 -32q0 -7 4 -22q-62 -48 -116 -104q-15 4 -28 4q-23 0 -42 -10zM161 346q-61 -116 -80 -232q-66 106 -66 236q0 109 50 206q39 -64 84 -112q-8 -26 -8 -38q0 -34 20 -60zM427 710q-56 40 -114 70
q84 30 162 30q120 0 230 -62q-74 -13 -162 -50q-26 26 -66 26q-27 0 -50 -14zM333 376q4 17 4 30q0 22 -14 52q36 42 98 90q26 -20 56 -20q12 0 38 8q93 -106 134 -240q-14 -11 -26 -32q-160 24 -290 112zM753 76q0 6 -1 28t-1 28q37 14 54 60q59 4 108 18
q-47 -147 -166 -232q6 48 6 98zM297 -74q-90 36 -158 110q12 142 80 274q8 -2 20 -2q29 0 52 14q145 -99 310 -124q-189 -95 -304 -272zM935 350q0 -27 -4 -66q-65 -18 -130 -24q-24 56 -88 60q-48 146 -148 264q10 19 10 42v10q101 42 210 54q150 -136 150 -340zM649 146
q13 -10 32 -18q2 -24 2 -52q0 -77 -14 -144q-85 -42 -194 -42q-58 0 -112 12q109 159 286 244z" />
    <glyph glyph-name="uniE777" unicode="&#xe777;" horiz-adv-x="1029" 
d="M1012 326l-28 -154q-4 -19 -21.5 -32.5t-40.5 -13.5h-816q-23 0 -40.5 13.5t-21.5 32.5l-28 154q-8 32 32 72q5 7 36 38l61 60l59 58q22 22 52 22h516q30 0 52 -22l120 -117q32 -30 38 -39q40 -42 30 -72zM716 366h178l-102 114h-556l-102 -114h178q7 0 12 -8l40 -100
h300l40 100q5 8 12 8z" />
    <glyph glyph-name="uniE778" unicode="&#xe778;" horiz-adv-x="931" 
d="M899 306q24 -53 14 -96l-34 -184q-2 -20 -19.5 -35t-38.5 -15h-712q-21 0 -38.5 15t-19.5 35l-34 184q-8 51 14 96l158 374q22 46 72 46h104l-20 -204h-134l254 -210l256 210h-136l-18 204h102q50 0 74 -46zM831 174q2 22 -10.5 38t-33.5 16h-644q-21 0 -33.5 -16
t-10.5 -38l14 -74q2 -20 18.5 -36t37.5 -16h592q22 0 39 15.5t19 36.5z" />
    <glyph glyph-name="uniE779" unicode="&#xe779;" horiz-adv-x="959" 
d="M943 -79q-30 0 -104.5 4.5t-108.5 4.5q-54 0 -75 -1l-112 -6l-32 -1q0 20 2 44l73 15q36 8 41 15q4 5 4 13q0 9 -3 18l-78 191l-251 1q-14 -31 -58 -153q-13 -35 -13 -47q0 -17 10 -24q15 -12 57 -18q8 0 26 -3.5t21 -3.5q0 -5 0.5 -15.5t0.5 -16.5q0 -7 -2 -15
q-29 0 -194 11l-27 -5q-48 -8 -93 -8h-12l1 45q9 4 45 10q48 8 59 15t29 40l288 748h72l70 -161l50 -119l65 -157l58 -140q8 -18 33 -81t40 -94q12 -27 19 -31q13 -11 39 -13q25 -3 57 -15q4 -30 4 -32q0 -3 -0.5 -8t-0.5 -7zM325 287q110 -2 181 -2l16 1q-44 133 -102 252z
" />
    <glyph glyph-name="uniE77A" unicode="&#xe77a;" horiz-adv-x="816" 
d="M414 779q3 0 16.5 -0.5t18.5 -0.5h41q49 0 106 -15q70 -21 114.5 -68t44.5 -122q0 -77 -71 -130q-19 -13 -84 -43q99 -22 149 -82q52 -60 52 -132q0 -74 -38 -130.5t-96 -84.5q-92 -44 -224 -40l-110 3q-46 1 -166 -6q-38 -3 -152 -7l1 53q94 19 107 24q10 16 11 28
q5 42 5 109l-1 277q-1 44 -2.5 120t-2.5 105q-1 52 -7 62q-8 12 -44 14q-7 1 -64 8l-2 46l145 3l212 7l25 1q2 0 8 0.5t8 0.5zM378 414q99 0 148 36.5t49 124.5q0 62 -48 104q-47 42 -142 42q-32 0 -73 -7q0 -19 2 -43q3 -45 3 -156l-1 -55q0 -8 0.5 -22t0.5 -20
q21 -4 61 -4zM316 176l2 -150q0 -6 7 -25q42 -18 78 -18q210 0 210 187q0 63 -23 101q-33 53 -78 70.5t-139 17.5q-41 0 -56 -6v-80z" />
    <glyph glyph-name="uniE77B" unicode="&#xe77b;" horiz-adv-x="601" 
d="M15 -77l9 47q1 0 43 11q38 10 65 22q17 22 23 56q14 77 46 227l7 36q15 84 30 128l2 6l17 88l9 35q7 38 16 103v21q-25 13 -80 16q-4 0 -8.5 0.5t-7.5 1t-5 0.5l10 58l177 -8q15 -1 41 -1q45 0 157 7l20 2q-3 -28 -10 -50q-15 -5 -57.5 -16.5t-59.5 -18.5
q-15 -38 -21 -95l-14 -65q-9 -37 -14 -62t-9 -43l-34 -174l-21 -88l-24 -131l-7 -25q-1 -2 1 -15q5 -1 103 -18q-1 -8 -9 -55q-7 0 -18.5 -1t-17.5 -1q-2 0 -16 2q-38 5 -81 10l-110 1q-3 0 -152 -11z" />
    <glyph glyph-name="uniE77C" unicode="&#xe77c;" horiz-adv-x="1028" 
d="M601 690q-12 0 -59 -0.5t-60 -0.5q-20 0 -38 -3q-6 -51 -4 -75v-85v-185l2 -201l-1 -82q0 -24 6 -47q27 -13 50 -18q1 0 10 -3q7 -2 24.5 -6.5t31 -9t21.5 -8.5q2 -17 2 -28q0 -9 -1 -16q-2 0 -8.5 -0.5t-10.5 -0.5q-62 0 -105 6q-36 4 -132 4q-54 0 -130 -7
q-9 0 -22 -1.5t-17 -1.5q0 3 -0.5 5.5t-1 4.5t-0.5 3v2v14v5q13 20 44 28q76 20 89 28q5 12 6 31q5 125 4 242l-3 238v124q0 5 0.5 13.5t0.5 12t-1 8.5t-4 6.5t-8 2.5q-28 4 -83 4q-19 0 -52.5 -7.5t-43.5 -14.5q-9 -5 -13 -18q-4 -10 -13.5 -46t-11.5 -43q-3 -8 -10 -16.5
t-13 -8.5q-25 15 -31 25v213l45 1l30 -15q11 -3 118 -3h73l10 2h64h120h164l19 -1q15 -1 31 17l24 1q3 0 8 -0.5t7 -0.5v-58q1 -25 1 -74v-55v-33q0 -7 -3 -28q-21 -9 -37 -10q-27 46 -39 106q-6 30 -7 36q-3 20 -10 24t-32 4zM804 54q4 10 24 10h44v572h-44q-19 0 -24 10.5
t6 24.5l71 90q11 15 27 15t27 -15l71 -90q11 -14 6 -24.5t-24 -10.5h-44v-572h44q19 0 24 -10.5t-6 -24.5l-71 -90q-11 -15 -27 -15t-27 15l-71 90q-10 15 -6 25z" />
    <glyph glyph-name="uniE77D" unicode="&#xe77d;" horiz-adv-x="887" 
d="M735 690q-15 0 -75 -0.5t-74 -0.5q-52 0 -70 -3q-6 -56 -5 -75q1 -43 1 -128.5t1 -128.5v-82q0 -25 6 -47q27 -13 50 -18q1 0 10 -3q72 -22 76 -24q3 -26 3 -28t-2 -16h-19q-68 0 -104 5q-45 5 -133 5q-52 0 -130 -7q-26 -3 -39 -3q-1 8 -1 14l-1 15v5q12 18 44 27
q76 20 89 28q6 15 7 31q3 76 3 242l-3 24q0 151 -1 156q-1 10 -11 11q-28 4 -83 4q-20 0 -90 -8.5t-77 -13.5q-9 -5 -13 -18q-4 -10 -13.5 -46t-11.5 -43q-3 -8 -10 -16.5t-13 -8.5q-25 15 -31 25v213l45 1l30 -15q11 -3 118 -3h73l10 2h64h249h178l19 -1q15 -1 31 17l23 1
q3 0 8.5 -0.5t7.5 -0.5v-58q1 -25 1 -74v-55v-33q0 -7 -3 -28q-21 -8 -38 -10q-25 43 -38 106q-6 30 -7 36q-3 22 -10.5 25t-40.5 3zM18 29q0 17 14 27l91 70q14 11 24.5 6.5t10.5 -23.5v-45h571v45q0 19 10.5 23.5t24.5 -6.5l91 -70q14 -10 14 -27q0 -18 -14 -28l-91 -70
q-14 -11 -24.5 -6.5t-10.5 23.5v45h-571v-45q0 -19 -10.5 -23.5t-24.5 6.5l-91 70q-14 10 -14 28z" />
    <glyph glyph-name="uniE77E" unicode="&#xe77e;" 
d="M51 -7q-14 0 -25 11t-11 25v71q0 14 11 25t25 11h928q14 0 25 -11t11 -25v-71q0 -14 -11 -25t-25 -11h-928zM51 207q-14 0 -25 11t-11 25v71q0 14 11 25t25 11h714q14 0 25 -11t11 -25v-71q0 -14 -11 -25t-25 -11h-714zM51 421q-14 0 -25 11t-11 25v72q0 14 11 24.5
t25 10.5h857q14 0 25 -10.5t11 -24.5v-72q0 -14 -11 -25t-25 -11h-857zM15 671v72q0 14 11 25t25 11h643q14 0 24.5 -11t10.5 -25v-72q0 -14 -10.5 -24.5t-24.5 -10.5h-643q-14 0 -25 10.5t-11 24.5z" />
    <glyph glyph-name="uniE77F" unicode="&#xe77f;" 
d="M51 -7q-14 0 -25 11t-11 25v71q0 14 11 25t25 11h928q14 0 25 -11t11 -25v-71q0 -14 -11 -25t-25 -11h-928zM122 421q-14 0 -25 11t-11 25v72q0 14 11 24.5t25 10.5h786q14 0 25 -10.5t11 -24.5v-72q0 -14 -11 -25t-25 -11h-786zM265 207q-14 0 -25 11t-11 25v71
q0 14 11 25t25 11h500q14 0 25 -11t11 -25v-71q0 -14 -11 -25t-25 -11h-500zM301 671v72q0 14 10.5 25t24.5 11h358q14 0 24.5 -11t10.5 -25v-72q0 -14 -10.5 -24.5t-24.5 -10.5h-358q-14 0 -24.5 10.5t-10.5 24.5z" />
    <glyph glyph-name="uniE780" unicode="&#xe780;" 
d="M51 -7q-14 0 -25 11t-11 25v71q0 14 11 25t25 11h928q14 0 25 -11t11 -25v-71q0 -14 -11 -25t-25 -11h-928zM122 421q-14 0 -25 11t-11 25v72q0 14 11 24.5t25 10.5h857q14 0 25 -10.5t11 -24.5v-72q0 -14 -11 -25t-25 -11h-857zM265 207q-14 0 -25 11t-11 25v71
q0 14 11 25t25 11h714q14 0 25 -11t11 -25v-71q0 -14 -11 -25t-25 -11h-714zM301 671v72q0 14 10.5 25t24.5 11h643q14 0 25 -11t11 -25v-72q0 -14 -11 -24.5t-25 -10.5h-643q-14 0 -24.5 10.5t-10.5 24.5z" />
    <glyph glyph-name="uniE781" unicode="&#xe781;" 
d="M51 -7q-14 0 -25 11t-11 25v71q0 14 11 25t25 11h928q14 0 25 -11t11 -25v-71q0 -14 -11 -25t-25 -11h-928zM51 207q-14 0 -25 11t-11 25v71q0 14 11 25t25 11h928q14 0 25 -11t11 -25v-71q0 -14 -11 -25t-25 -11h-928zM51 421q-14 0 -25 11t-11 25v72q0 14 11 24.5
t25 10.5h928q14 0 25 -10.5t11 -24.5v-72q0 -14 -11 -25t-25 -11h-928zM15 671v72q0 14 11 25t25 11h928q14 0 25 -11t11 -25v-72q0 -14 -11 -24.5t-25 -10.5h-928q-14 0 -25 10.5t-11 24.5z" />
    <glyph glyph-name="uniE782" unicode="&#xe782;" 
d="M33 -7q-7 0 -12.5 5.5t-5.5 12.5v107q0 8 5.5 13t12.5 5h107q8 0 13 -5t5 -13v-107q0 -7 -5 -12.5t-13 -5.5h-107zM33 207q-7 0 -12.5 5.5t-5.5 12.5v107q0 8 5.5 13t12.5 5h107q8 0 13 -5t5 -13v-107q0 -7 -5 -12.5t-13 -5.5h-107zM33 421q-7 0 -12.5 5.5t-5.5 12.5v107
q0 8 5.5 13t12.5 5h107q8 0 13 -5t5 -13v-107q0 -7 -5 -12.5t-13 -5.5h-107zM33 636q-7 0 -12.5 5t-5.5 13v107q0 7 5.5 12.5t12.5 5.5h107q8 0 13 -5.5t5 -12.5v-107q0 -8 -5 -13t-13 -5h-107zM247 -7q-7 0 -12.5 5.5t-5.5 12.5v107q0 8 5.5 13t12.5 5h750q7 0 12.5 -5
t5.5 -13v-107q0 -7 -5.5 -12.5t-12.5 -5.5h-750zM247 207q-7 0 -12.5 5.5t-5.5 12.5v107q0 8 5.5 13t12.5 5h750q7 0 12.5 -5t5.5 -13v-107q0 -7 -5.5 -12.5t-12.5 -5.5h-750zM247 421q-7 0 -12.5 5.5t-5.5 12.5v107q0 8 5.5 13t12.5 5h750q7 0 12.5 -5t5.5 -13v-107
q0 -7 -5.5 -12.5t-12.5 -5.5h-750zM229 654v107q0 7 5.5 12.5t12.5 5.5h750q7 0 12.5 -5.5t5.5 -12.5v-107q0 -8 -5.5 -13t-12.5 -5h-750q-7 0 -12.5 5t-5.5 13z" />
    <glyph glyph-name="uniE783" unicode="&#xe783;" 
d="M33 -7q-7 0 -12.5 5.5t-5.5 12.5v107q0 8 5.5 13t12.5 5h964q7 0 12.5 -5t5.5 -13v-107q0 -7 -5.5 -12.5t-12.5 -5.5h-964zM33 636q-7 0 -12.5 5t-5.5 13v107q0 7 5.5 12.5t12.5 5.5h964q7 0 12.5 -5.5t5.5 -12.5v-107q0 -8 -5.5 -13t-12.5 -5h-964zM229 225
q0 -7 -5.5 -12.5t-12.5 -5.5t-12 5l-161 161q-5 5 -5 13t5 13l161 160q5 5 12 5t12.5 -5t5.5 -13v-321zM390 207q-8 0 -13 5.5t-5 12.5v107q0 8 5 13t13 5h607q7 0 12.5 -5t5.5 -13v-107q0 -7 -5.5 -12.5t-12.5 -5.5h-607zM372 439v107q0 8 5 13t13 5h607q7 0 12.5 -5
t5.5 -13v-107q0 -7 -5.5 -12.5t-12.5 -5.5h-607q-8 0 -13 5.5t-5 12.5z" />
    <glyph glyph-name="uniE784" unicode="&#xe784;" 
d="M33 -7q-7 0 -12.5 5.5t-5.5 12.5v107q0 8 5.5 13t12.5 5h964q7 0 12.5 -5t5.5 -13v-107q0 -7 -5.5 -12.5t-12.5 -5.5h-964zM33 207q-7 0 -12.5 5.5t-5.5 12.5v321q0 8 5.5 13t12.5 5q8 0 13 -5l160 -160q5 -5 5 -13t-5 -13l-160 -161q-5 -5 -13 -5zM33 636q-7 0 -12.5 5
t-5.5 13v107q0 7 5.5 12.5t12.5 5.5h964q7 0 12.5 -5.5t5.5 -12.5v-107q0 -8 -5.5 -13t-12.5 -5h-964zM390 207q-8 0 -13 5.5t-5 12.5v107q0 8 5 13t13 5h607q7 0 12.5 -5t5.5 -13v-107q0 -7 -5.5 -12.5t-12.5 -5.5h-607zM372 439v107q0 8 5 13t13 5h607q7 0 12.5 -5
t5.5 -13v-107q0 -7 -5.5 -12.5t-12.5 -5.5h-607q-8 0 -13 5.5t-5 12.5z" />
    <glyph glyph-name="uniE788" unicode="&#xe788;" horiz-adv-x="950" 
d="M795 680q135 -131 140 -322q2 -192 -131 -327q-134 -137 -323 -141q-192 -2 -327 131q-138 134 -139 323q-4 190 130 327q134 138 324 139t326 -130zM291 706l62 -104q55 28 122 28t122 -28l62 104q-87 46 -190 44q-93 0 -178 -44zM223 228q-28 59 -28 122q0 65 28 124
l-102 62q-46 -88 -46 -190q1 -94 46 -180zM659 -4l-62 104q-60 -30 -122 -30t-122 30l-62 -104q85 -46 190 -46q100 5 178 46zM631 195q64 64 64 155q0 92 -64 156t-156 64t-156 -64t-64 -156q0 -91 64 -155q65 -65 156 -65t156 65zM727 228l104 -62q46 94 44 190
q0 95 -44 180l-104 -62q28 -59 28 -124q0 -63 -28 -122z" />
    <glyph glyph-name="uniE789" unicode="&#xe789;" horiz-adv-x="591" 
d="M566 130q29 -80 -17 -157q-45 -77 -139 -111q-94 -28 -175 9q-80 37 -103 117l-106 384q-22 75 7 139t83 101l-96 186q-14 35 14 48q30 18 48 -14l98 -192q79 22 154 -16q73 -37 102 -116zM242 404q25 9 39 34t5 56q-9 26 -33 40t-55 6q-25 -9 -39 -34t-5 -56
q9 -26 33 -40t55 -6z" />
    <glyph glyph-name="uniE78B" unicode="&#xe78b;" horiz-adv-x="250" 
d="M125 460q46 0 78 -32t32 -78q0 -44 -32.5 -77t-77.5 -33t-77.5 33t-32.5 77q0 46 32 78t78 32z" />
    <glyph glyph-name="uniE78C" unicode="&#xe78c;" horiz-adv-x="600" 
d="M125 460q46 0 78 -32t32 -78q0 -44 -32.5 -77t-77.5 -33q-46 0 -78 32t-32 78t32 78t78 32zM475 460q46 0 78 -32t32 -78q0 -44 -33.5 -77t-76.5 -33q-46 0 -78 32t-32 78t32 78t78 32z" />
    <glyph glyph-name="uniE78D" unicode="&#xe78d;" horiz-adv-x="950" 
d="M125 460q46 0 78 -32t32 -78q0 -44 -32.5 -77t-77.5 -33t-77.5 33t-32.5 77q0 46 32 78t78 32zM475 460q46 0 78 -32t32 -78q0 -44 -33.5 -77t-76.5 -33t-76.5 33t-33.5 77q0 46 32 78t78 32zM825 460q46 0 78 -32t32 -78q0 -44 -32.5 -77t-77.5 -33t-77.5 33t-32.5 77
q0 46 32 78t78 32z" />
    <glyph glyph-name="uniE78E" unicode="&#xe78e;" 
d="M915 650q41 0 70.5 -29.5t29.5 -70.5v-550q0 -42 -29 -71t-71 -29h-50v750h50zM15 550q0 40 30 70t70 30h50v-750h-50q-41 0 -70.5 29.5t-29.5 70.5v550zM685 650h110v-750h-560v750h110v104q96 46 170 46t170 -46v-104zM625 650v66q-53 24 -110 24q-55 0 -110 -24v-66
h220z" />
    <glyph glyph-name="uniE790" unicode="&#xe790;" horiz-adv-x="670" 
d="M535 120q49 0 84.5 -35t35.5 -85t-35.5 -85t-84.5 -35q-80 0 -110 74h-164q-87 0 -131 54q-43 53 -43 118v464q-72 34 -72 110q0 50 35.5 85t84.5 35t84.5 -35t35.5 -85q0 -76 -72 -110v-114q0 -78 78 -78h164q30 72 110 72q49 0 84.5 -35t35.5 -85t-35.5 -85t-84.5 -35
q-80 0 -110 74h-164q-43 0 -78 16v-194q0 -78 78 -78h164q30 72 110 72zM535 420q-29 0 -49.5 -20.5t-20.5 -49.5q0 -28 21 -48t49 -20t49 20t21 48q0 29 -20.5 49.5t-49.5 20.5zM65 700q0 -28 21 -48t49 -20t49 20t21 48q0 29 -20.5 49.5t-49.5 20.5t-49.5 -20.5
t-20.5 -49.5zM535 -68q28 0 49 20t21 48q0 29 -20.5 49.5t-49.5 20.5t-49.5 -20.5t-20.5 -49.5q0 -28 21 -48t49 -20z" />
    <glyph glyph-name="uniE791" unicode="&#xe791;" horiz-adv-x="670" 
d="M535 770q49 0 84.5 -35t35.5 -85q0 -80 -74 -110q-12 -120 -89 -170q-38 -25 -64.5 -36.5t-78.5 -27.5q-76 -25 -110 -46q-47 -29 -54 -100q70 -30 70 -110q0 -50 -35.5 -85t-84.5 -35t-84.5 35t-35.5 85q0 78 72 112v378q-72 34 -72 110q0 50 35.5 85t84.5 35t84.5 -35
t35.5 -85q0 -76 -72 -110v-204q41 30 138 60q54 17 84 29q31 13 53.5 45t26.5 72q-70 31 -70 108q0 50 35.5 85t84.5 35zM67 650q0 -28 20 -48t48 -20t49 20t21 48q0 29 -20.5 49.5t-49.5 20.5q-28 0 -48 -20.5t-20 -49.5zM135 -18q28 0 49 20t21 48q0 29 -20.5 49.5
t-49.5 20.5q-28 0 -48 -20.5t-20 -49.5q0 -28 20 -48t48 -20zM535 582q28 0 49 20t21 48q0 29 -20.5 49.5t-49.5 20.5q-28 0 -48 -20.5t-20 -49.5q0 -28 20 -48t48 -20z" />
    <glyph glyph-name="uniE792" unicode="&#xe792;" horiz-adv-x="970" 
d="M485 820q49 0 84.5 -35t35.5 -85q0 -76 -72 -110v-140q0 -52 78 -52h100q85 0 129 -54q43 -53 43 -118v-114q72 -34 72 -112q0 -50 -35.5 -85t-84.5 -35t-84.5 35t-35.5 85q0 78 72 112v114q0 78 -76 78h-100q-43 0 -78 12v-204q72 -34 72 -112q0 -50 -35.5 -85
t-84.5 -35t-84.5 35t-35.5 85q0 78 72 112v204q-30 -12 -76 -12h-100q-35 0 -56.5 -22t-21.5 -56v-114q72 -34 72 -112q0 -50 -35.5 -85t-84.5 -35t-84.5 35t-35.5 85q0 78 72 112v114q0 65 43 118q44 54 131 54h100q76 0 76 52v140q-72 34 -72 110q0 50 35.5 85t84.5 35z
M205 0q0 29 -20.5 49.5t-49.5 20.5q-28 0 -48 -20.5t-20 -49.5q0 -28 20 -48t48 -20t49 20t21 48zM417 700q0 -28 20 -48t48 -20t49 20t21 48q0 29 -20.5 49.5t-49.5 20.5q-28 0 -48 -20.5t-20 -49.5zM555 0q0 29 -20.5 49.5t-49.5 20.5q-28 0 -48 -20.5t-20 -49.5
q0 -28 20 -48t48 -20t49 20t21 48zM835 -68q28 0 49 20t21 48q0 29 -20.5 49.5t-49.5 20.5q-28 0 -48 -20.5t-20 -49.5q0 -28 20 -48t48 -20z" />
    <glyph glyph-name="uniE793" unicode="&#xe793;" horiz-adv-x="270" 
d="M135 770q49 0 84.5 -35t35.5 -85q0 -76 -72 -110v-378q72 -34 72 -112q0 -50 -35.5 -85t-84.5 -35t-84.5 35t-35.5 85q0 78 72 112v378q-72 34 -72 110q0 50 35.5 85t84.5 35zM67 650q0 -28 20 -48t48 -20t49 20t21 48q0 29 -20.5 49.5t-49.5 20.5q-28 0 -48 -20.5
t-20 -49.5zM135 -18q28 0 49 20t21 48q0 29 -20.5 49.5t-49.5 20.5q-28 0 -48 -20.5t-20 -49.5q0 -28 20 -48t48 -20z" />
    <glyph glyph-name="uniE794" unicode="&#xe794;" horiz-adv-x="670" 
d="M135 770q49 0 84.5 -35t35.5 -85q0 -76 -72 -110v-378q72 -34 72 -112q0 -50 -35.5 -85t-84.5 -35t-84.5 35t-35.5 85q0 78 72 112v378q-72 34 -72 110q0 50 35.5 85t84.5 35zM205 50q0 29 -20.5 49.5t-49.5 20.5q-28 0 -48 -20.5t-20 -49.5q0 -28 20 -48t48 -20t49 20
t21 48zM135 582q28 0 49 20t21 48q0 29 -20.5 49.5t-49.5 20.5q-28 0 -48 -20.5t-20 -49.5q0 -28 20 -48t48 -20zM535 770q49 0 84.5 -35t35.5 -85q0 -76 -72 -110v-378q72 -34 72 -112q0 -50 -35.5 -85t-84.5 -35t-84.5 35t-35.5 85q0 78 72 112v378q-72 34 -72 110
q0 50 35.5 85t84.5 35zM467 650q0 -28 20 -48t48 -20t49 20t21 48q0 29 -20.5 49.5t-49.5 20.5q-28 0 -48 -20.5t-20 -49.5zM535 -18q28 0 49 20t21 48q0 29 -20.5 49.5t-49.5 20.5q-28 0 -48 -20.5t-20 -49.5q0 -28 20 -48t48 -20z" />
    <glyph glyph-name="uniE79A" unicode="&#xe79a;" horiz-adv-x="992" 
d="M133 170q47 37 94 27t83.5 -48.5t42.5 -81.5q6 -47 -30 -83q-85 -84 -228 -102q-28 -4 -46.5 -3.5t-27 4.5t-6.5 13q0 4 6 10q52 59 64 145q12 84 48 119zM973 816q26 -26 -148 -248q-177 -226 -292 -338q-36 -36 -124 -104q-8 -6 -16 8q-18 34 -49.5 65.5t-64.5 46.5
q-15 6 -8 16q68 89 104 122q124 121 344 287q226 170 254 145z" />
    <glyph glyph-name="uniE79B" unicode="&#xe79b;" horiz-adv-x="951" 
d="M909 720q13 4 21.5 -3t4.5 -19q-3 -8 -73 -313.5t-73 -312.5q-2 -13 -13 -18.5t-25 0.5l-139 75l-139 75l22 26l209 227l145 156q38 41 40 43q4 4 -1 9t-9 1l-550 -402l-302 120q-12 4 -12 12t12 12q7 4 227 82l437 154q217 76 218 76zM327 -8v204l160 -82
q-122 -108 -142 -128q-18 -14 -18 6z" />
    <glyph glyph-name="uniE7A1" unicode="&#xe7a1;" horiz-adv-x="850" 
d="M549 120l260 -20l-16 -166q-4 -28 -32 -24l-200 16q-28 0 -28 30zM43 100l258 20l16 -164q2 -12 -6.5 -21t-21.5 -9l-198 -16q-11 -2 -21.5 5.5t-10.5 18.5zM17 370q-2 16 -2 34q0 160 120 273q121 113 290 113t290 -113q120 -113 120 -273q0 -18 -2 -34l-16 -170
l-258 22l16 170v12q0 59 -44.5 99.5t-105.5 40.5t-105.5 -40.5t-44.5 -99.5v-12l16 -170l-258 -22z" />
    <glyph glyph-name="uniE7A2" unicode="&#xe7a2;" 
d="M635 462q180 228 194 220q12 -6 -96 -278q-109 -273 -138 -326q-50 -86 -136 -36t-38 136q38 61 214 284zM17 66q0 5 -1 27t-1 27q0 227 145 382q146 156 355 156q73 0 134 -18l-70 -86q-36 4 -64 4q-169 0 -284 -127q-116 -128 -116 -311q0 -11 1 -26l2 -23
q0 -8 -3 -17.5t-10 -16.5q-14 -15 -33.5 -17t-36.5 12q-16 13 -18 34zM877 496q138 -154 138 -376v-16v-14v-12q0 -8 -1 -12t-2 -10t-3 -9.5t-5 -7.5t-7 -8q-13 -13 -34 -13h-4q-21 4 -34.5 19.5t-11.5 36.5q2 18 2 46q0 149 -80 268l21 55q17 45 21 53z" />
    <glyph glyph-name="uniE7A3" unicode="&#xe7a3;" horiz-adv-x="991" 
d="M495 432q58 0 108.5 16.5t61.5 47.5q2 -6 21 -58l35 -100q-5 -38 -70 -65q-66 -27 -156 -27t-156 27q-65 27 -70 65l35 100q19 52 21 58q11 -31 62.5 -47.5t107.5 -16.5zM371 624l52 142q10 34 72 34t74 -34q11 -34 50 -142q-29 -44 -124 -44t-124 44zM935 196
q41 -16 41 -41.5t-37 -46.5l-352 -188q-37 -22 -91 -22t-91 22l-354 188q-38 20 -36 46t42 42l188 76l-22 -60q0 -47 80 -82q78 -34 192 -34t192 34q81 35 82 82l-22 60z" />
    <glyph glyph-name="uniE7A5" unicode="&#xe7a5;" horiz-adv-x="990" 
d="M829 694q141 -137 146 -336q2 -200 -136 -342q-137 -141 -338 -146q-200 -2 -341 137q-144 140 -145 337q-5 200 135 342t339 144q198 2 340 -136zM767 86q109 112 108 270q-1 157 -115 267q-111 109 -269 107q-157 -2 -267 -114q-109 -111 -107 -270q1 -158 114 -267
q111 -109 270 -107q157 2 266 114zM317 350q0 -80 60 -80q40 0 58 40l56 -30q-19 -35 -50 -52q-32 -20 -70 -20q-63 0 -100.5 38.5t-37.5 103.5q0 64 36.5 104t97.5 40q87 0 124 -66l-62 -32q-17 36 -52 36q-60 0 -60 -82zM643 270q43 0 56 40l58 -30q-17 -31 -48.5 -51.5
t-71.5 -20.5q-64 0 -100 38q-38 36 -38 104q0 63 38 106q38 38 98 38q84 0 120 -66l-60 -32q-17 36 -52 36q-62 0 -62 -82q0 -35 15.5 -57.5t46.5 -22.5z" />
    <glyph glyph-name="uniE7A6" unicode="&#xe7a6;" horiz-adv-x="990" 
d="M495 526q68 0 68 68t-68 68q-66 0 -66 -68t66 -68zM625 470q0 12 -9.5 21t-22.5 9h-196q-13 0 -22.5 -9t-9.5 -21v-196h56v-234h148v234h56v196zM835 690q140 -140 140 -340q0 -197 -140 -339q-139 -141 -340 -141q-198 0 -339 141t-141 339q0 200 141 340
q142 140 339 140q200 0 340 -140zM495 -42q162 0 277 115t115 277q0 164 -115 278q-116 114 -277 114t-277 -114q-115 -114 -115 -278q0 -162 115 -277t277 -115z" />
    <glyph glyph-name="uniE7A7" unicode="&#xe7a7;" horiz-adv-x="990" 
d="M835 690q140 -140 140 -340q0 -197 -140 -339q-139 -141 -340 -141q-198 0 -339 141t-141 339q0 200 141 340q142 140 339 140q200 0 340 -140zM501 214q25 0 42.5 12.5t17.5 35.5q0 18 -14 30q-48 20 -102 46q-64 26 -179 78l-141 64q-22 -60 -22 -130q0 -162 115 -277
t277 -115q115 0 205.5 58t138.5 146l-178 80q-7 -44 -45 -74t-87 -34v-74h-56v74q-79 0 -146 58l66 66q50 -44 108 -44zM631 358l242 -108q14 45 14 100q0 164 -115 278q-116 114 -277 114q-107 0 -191.5 -50t-136.5 -128l182 -82q12 37 46 62q31 22 78 24v74h56v-74
q69 -5 120 -44l-62 -64q-43 28 -84 28q-56 0 -56 -38q0 -8 4 -12l60 -28q20 -8 60 -26t60 -26z" />
    <glyph glyph-name="uniE7A8" unicode="&#xe7a8;" horiz-adv-x="990" 
d="M835 690q140 -140 140 -340q0 -197 -140 -339q-139 -141 -340 -141q-198 0 -339 141t-141 339q0 200 141 340q142 140 339 140q200 0 340 -140zM285 342q0 2 1 12t1 12h-46v56h10l-126 56q-22 -60 -22 -128q0 -162 115 -277t277 -115q116 0 205.5 57.5t138.5 146.5
l-246 108h-174q11 -39 26 -56q37 -40 104 -40q44 0 92 20l18 -90q-55 -30 -124 -30q-128 0 -196 92q-34 42 -46 104h-52v58h44v14zM613 366l262 -116q12 48 12 100q0 164 -115 278q-116 114 -277 114q-107 0 -193 -50t-137 -128l158 -70q6 11 28 38q72 82 184 82
q69 0 122 -24l-24 -92q-42 20 -88 20q-64 0 -100 -44q-10 -10 -16 -28l56 -24h136v-56h-8z" />
    <glyph glyph-name="uniE7A9" unicode="&#xe7a9;" horiz-adv-x="990" 
d="M835 690q140 -140 140 -340q0 -197 -140 -339q-139 -141 -340 -141q-198 0 -339 141t-141 339q0 200 141 340q142 140 339 140q200 0 340 -140zM121 466q-18 -54 -18 -116q0 -162 115 -277t277 -115q111 0 199 54t137 138l-152 68v-68h-126v-108h-118v108h-124v74h124v36
l-12 24h-112v74h54zM665 224l-106 48l-6 -12v-36h112zM679 324l192 -86q16 57 16 112q0 164 -115 278q-116 114 -277 114q-110 0 -197 -53t-137 -135l158 -70l-54 98h128l76 -166l46 -20l82 186h128l-122 -224h76v-34z" />
    <glyph glyph-name="uniE7AA" unicode="&#xe7aa;" horiz-adv-x="990" 
d="M739 344q0 115 -67 187.5t-179 72.5q-88 0 -143.5 -51t-68.5 -135h-36l94 -94l96 94h-36q12 86 108 86q57 0 83.5 -42.5t26.5 -113.5q0 -69 -28.5 -114.5t-83.5 -45.5q-100 0 -106 86h-120q12 -90 70 -138q62 -50 142 -50q106 0 180 74q68 74 68 184zM835 690
q140 -140 140 -340q0 -197 -140 -339q-139 -141 -340 -141q-198 0 -339 141t-141 339q0 200 141 340q142 140 339 140q200 0 340 -140zM495 -42q162 0 277 115t115 277q0 164 -115 278q-116 114 -277 114t-277 -114q-115 -114 -115 -278q0 -162 115 -277t277 -115z" />
    <glyph glyph-name="uniE7AB" unicode="&#xe7ab;" horiz-adv-x="990" 
d="M321 382h348v82h-348v-82zM321 228h348v82h-348v-82zM835 690q140 -140 140 -340q0 -197 -140 -339q-139 -141 -340 -141q-198 0 -339 141t-141 339q0 200 141 340q142 140 339 140q200 0 340 -140zM495 -42q162 0 277 115t115 277q0 164 -115 278q-116 114 -277 114
t-277 -114q-115 -114 -115 -278q0 -162 115 -277t277 -115z" />
    <glyph glyph-name="uniE7AC" unicode="&#xe7ac;" horiz-adv-x="990" 
d="M835 690q140 -140 140 -340q0 -197 -140 -339q-139 -141 -340 -141q-198 0 -339 141t-141 339q0 200 141 340q142 140 339 140q200 0 340 -140zM519 212q38 0 70 32l70 -84q-14 -6 -18 -16q-61 -42 -136 -42q-86 0 -159 58t-73 188q0 32 6 62l-154 68q-22 -60 -22 -128
q0 -162 115 -277t277 -115q116 0 205.5 57.5t138.5 146.5l-424 188q1 -52 28 -96q25 -42 76 -42zM435 444l440 -194q12 48 12 100q0 164 -115 278q-116 114 -277 114q-107 0 -193 -50t-137 -128l148 -66q65 102 196 102q89 0 150 -54l-78 -80q-28 28 -66 28q-51 0 -80 -50z
" />
    <glyph glyph-name="uniE7AD" unicode="&#xe7ad;" horiz-adv-x="990" 
d="M495 628q-108 0 -153 -81t-45 -197q0 -114 45 -195t153 -81t153 81t45 195q0 116 -45 197t-153 81zM409 350q0 174 86 174q7 0 18 -4q19 -18 6 -42l-106 -194q-4 43 -4 66zM495 178q-2 0 -9.5 1t-8.5 1q0 2 -2 2q-4 0 -6 2q-34 16 -12 46l118 204q6 -44 6 -84
q0 -172 -86 -172zM835 690q140 -140 140 -340q0 -197 -140 -339q-139 -141 -340 -141q-198 0 -339 141t-141 339q0 200 141 340q142 140 339 140q200 0 340 -140zM495 -42q162 0 277 115t115 277q0 164 -115 278q-116 114 -277 114t-277 -114q-115 -114 -115 -278
q0 -162 115 -277t277 -115z" />
    <glyph glyph-name="uniE7AE" unicode="&#xe7ae;" horiz-adv-x="990" 
d="M719 462q0 10 -8.5 18t-19.5 8h-104v104q0 11 -8 19.5t-18 8.5h-264q-24 -8 -24 -28v-352q0 -11 8 -19.5t18 -8.5h104v-104q0 -10 8.5 -18t19.5 -8h260q11 0 19.5 8t8.5 18v354zM427 488q-24 -9 -24 -26v-196h-78v300h210v-78h-108zM665 134h-210v302h210v-302zM835 690
q140 -140 140 -340q0 -197 -140 -339q-139 -141 -340 -141q-198 0 -339 141t-141 339q0 200 141 340q142 140 339 140q200 0 340 -140zM495 -42q162 0 277 115t115 277q0 164 -115 278q-116 114 -277 114t-277 -114q-115 -114 -115 -278q0 -162 115 -277t277 -115z" />
    <glyph glyph-name="uniE7AF" unicode="&#xe7af;" horiz-adv-x="990" 
d="M819 338q-36 14 -106 44v118l-294 122l-130 -56v-136l2 -2l-116 -48v-122l124 -54l124 52l141 -59l119 -49l6 -2l120 52l10 4v136zM673 184l-2 2v-2l-220 92v86l220 -90v-2h2v-86zM687 296l-70 30l76 32l72 -30zM789 222l-86 -36v84l86 36v-84zM835 690
q140 -140 140 -340q0 -197 -140 -339q-139 -141 -340 -141q-198 0 -339 141t-141 339q0 200 141 340q142 140 339 140q200 0 340 -140zM495 -42q162 0 277 115t115 277q0 164 -115 278q-116 114 -277 114t-277 -114q-115 -114 -115 -278q0 -162 115 -277t277 -115z" />
    <glyph glyph-name="uniE800" unicode="&#xe800;" horiz-adv-x="959" 
d="M86 -150q-28 0 -49.5 21t-21.5 50v715q0 28 21.5 49.5t49.5 21.5h72v54q0 37 26 63t63 26h36q37 0 63 -26t26 -63v-54h214v54q0 37 26.5 63t63.5 26h35q37 0 63.5 -26t26.5 -63v-54h71q29 0 50.5 -21.5t21.5 -49.5v-715q0 -28 -21.5 -49.5t-50.5 -21.5h-786zM247 -79v161
h-161v-161h161zM247 118v178h-161v-178h161zM247 332v161h-161v-161h161zM229 600q0 -8 5.5 -13t12.5 -5h36q7 0 12.5 5t5.5 13v161q0 7 -5.5 12.5t-12.5 5.5h-36q-7 0 -12.5 -5.5t-5.5 -12.5v-161zM461 -79v161h-178v-161h178zM461 118v178h-178v-178h178zM461 332v161
h-178v-161h178zM676 -79v161h-179v-161h179zM676 118v178h-179v-178h179zM676 332v161h-179v-161h179zM658 600q0 -8 5 -13t13 -5h35q7 0 12.5 5t5.5 13v161q0 7 -5.5 12.5t-12.5 5.5h-35q-8 0 -13 -5.5t-5 -12.5v-161zM872 -79v161h-161v-161h161zM872 118v178h-161v-178
h161zM711 332h161v161h-161v-161z" />
    <glyph glyph-name="uniE801" unicode="&#xe801;" horiz-adv-x="887" 
d="M15 413q0 7 4.5 13t10.5 7l104 16q6 21 22 51q-25 35 -60 77q-6 6 -6 14q0 4 5 12q13 18 54 59t54 41q9 0 15 -5l77 -60q16 9 50 21q8 71 17 104q5 16 20 16h124q18 0 20 -17l15 -103q33 -11 50 -20l80 59q5 5 13 5q9 0 14 -5q72 -66 92 -95q4 -4 4 -12t-4 -13
q-5 -7 -29.5 -38.5t-29.5 -38.5q14 -26 23 -54l102 -16q16 -2 16 -20v-124q0 -7 -4.5 -13t-10.5 -7l-104 -16q-11 -30 -21 -51q20 -30 59 -77q6 -6 6 -14q0 -5 -5 -12q-12 -17 -53 -58.5t-55 -41.5q-6 0 -14 5l-77 60q-14 -8 -51 -21q-9 -78 -16 -104q-5 -16 -20 -16h-124
q-18 0 -20 17l-16 103q-33 11 -50 20l-79 -59q-7 -5 -14 -5q-8 0 -14 6q-65 58 -92 94q-4 5 -4 12q0 6 5 13t29 38.5t29 38.5q-16 31 -23 55l-102 15q-16 2 -16 20v124zM301 350q0 -58 42.5 -100.5t100.5 -42.5t100 42t42 101t-42 101t-100 42t-100.5 -42.5t-42.5 -100.5z
" />
    <glyph glyph-name="uniE802" unicode="&#xe802;" horiz-adv-x="959" 
d="M944 -79q0 -29 -21.5 -50t-50.5 -21q-30 0 -50 21l-191 191q-101 -69 -223 -69q-83 0 -155 32t-123 83t-83 123t-32 155t32 155t83 123t123 83t155 32t155 -32t123 -83t83 -123t32 -155q0 -122 -69 -223l191 -191q21 -21 21 -51zM231 209q73 -73 177 -73q103 0 176 73
q74 74 74 177q0 102 -74 176t-176 74q-103 0 -177 -74q-73 -73 -73 -176q0 -104 73 -177zM229 368v36q0 17 18 17h322q17 0 17 -17v-36q0 -18 -17 -18h-322q-7 0 -12.5 5t-5.5 13z" />
    <glyph glyph-name="uniE803" unicode="&#xe803;" horiz-adv-x="887" 
d="M15 350q0 109 47.5 197t123.5 145q28 17 55 13t45 -27.5t14 -52.5t-28 -47q-114 -87 -114 -228q0 -118 84 -202t202 -84t202 84q83 83 83 202q0 141 -114 228q-22 17 -27 46t13 54q16 23 45.5 27.5t54.5 -13.5q76 -58 123.5 -145.5t47.5 -196.5q0 -91 -35 -169.5
t-90 -133.5q-56 -56 -134.5 -91t-168.5 -35t-168.5 35t-134.5 91t-91 134.5t-35 168.5zM372 421v358q0 28 21.5 49.5t50.5 21.5q28 0 49.5 -21t21.5 -50v-358q0 -29 -21.5 -50t-49.5 -21q-29 0 -50.5 21.5t-21.5 49.5z" />
    <glyph glyph-name="uniE804" unicode="&#xe804;" horiz-adv-x="928" 
d="M784 155l127 128v-335h-335l128 129l-128 127l79 79zM353 841l-129 -127l128 -127l-80 -80l-126 128l-128 -129v335h335zM353 204l-129 -127l129 -129h-335v335l128 -128l128 128zM911 841v-335l-127 129l-128 -128l-79 80l127 127l-128 127h335z" />
    <glyph glyph-name="uniE805" unicode="&#xe805;" horiz-adv-x="928" 
d="M704 77l-128 -129v335h335l-127 -128l127 -128l-79 -79zM18 506l128 129l-127 126l79 79l126 -126l129 127v-335h-335zM18 27l128 128l-128 128h335v-335l-129 129l-127 -129zM576 506v335l128 -127l128 126l78 -79l-126 -126l127 -129h-335z" />
    <glyph glyph-name="uniE806" unicode="&#xe806;" horiz-adv-x="928" 
d="M784 -52q0 208 -103 384.5t-279 279t-384 102.5v127q181 0 346.5 -71t285 -190t190.5 -285t71 -347h-127zM528 -52q0 211 -150 360.5t-360 149.5v129q173 0 320 -86t232.5 -233t85.5 -320h-128zM274 -52q0 106 -75 181t-181 75v127q158 0 270.5 -112t112.5 -271h-127z
M145 -52h-127v127q53 0 90 -37t37 -90z" />
    <glyph glyph-name="uniE807" unicode="&#xe807;" horiz-adv-x="928" 
d="M911 841l-390 -446l167 -112l-670 -335l391 335l-168 112z" />
    <glyph glyph-name="uniE808" unicode="&#xe808;" horiz-adv-x="928" 
d="M632.5 841q115.5 0 197 -81.5t81.5 -197t-81.5 -197.5t-197.5 -82q-28 0 -51 5l-5 -5v-112h-112v-111h-111v-112h-335v223l340 340q-5 23 -5 52q0 115 82 196.5t197.5 81.5zM632.5 506q22.5 0 39 16.5t16.5 40.5t-16.5 39.5t-39.5 15.5q-24 0 -40 -16.5t-16 -38.5
q0 -24 17 -40.5t39.5 -16.5z" />
    <glyph glyph-name="uniE809" unicode="&#xe809;" horiz-adv-x="948" 
d="M475 178q-40 0 -69.5 28.5t-29.5 68.5t29.5 68.5t69.5 28.5t68.5 -28.5t28.5 -68.5t-28.5 -68.5t-68.5 -28.5zM930 638v-636h-911v636h142v60h90v-60h679zM475 445q-70 0 -120 -50t-50 -120t50 -120t120 -50t119.5 50t49.5 120t-49.5 120t-119.5 50zM884 400v190h-819
v-190h250q61 78 160 78q97 0 159 -78h250z" />
    <glyph glyph-name="uniE80A" unicode="&#xe80a;" horiz-adv-x="851" 
d="M832 693.5q0 -18.5 -13.5 -31.5t-30.5 -13h-7l-135 -688h-437l-134 688h-11q-19 0 -32 13t-13 31.5t13 32t32 13.5h724q17 0 30.5 -13.5t13.5 -32zM391 631l-19 18h-117l-19 -18l78 -77zM198 374l24 -129l60 60l-77 76zM236 414l78 -78l77 78l-77 76zM422 381l-76 -76
l76 -77l78 77zM455 414l76 -78l78 78l-78 76zM422 445l78 77l-78 77l-76 -77zM205 599l-44 -43l18 -85l26 -26l77 77zM314 272l-78 -77l78 -76l77 76zM422 164l-76 -78l58 -57h37l59 57zM531 119l78 76l-78 77l-76 -77zM631 236l25 129l-16 16l-76 -76zM680 484l12 64
l-52 51l-76 -77l76 -77zM609 631l-19 18h-118l-17 -18l76 -77zM151 609l40 40h-47zM248 121l17 -92h75zM611 134l-106 -105h85zM702 601l10 48h-58z" />
    <glyph glyph-name="uniE80B" unicode="&#xe80b;" horiz-adv-x="892" 
d="M280 -2.5q0 -32.5 -22.5 -55t-56.5 -22.5q-31 0 -54 22.5t-23 55t22.5 55t54.5 22.5q34 0 56.5 -22.5t22.5 -55zM809 -2.5q0 -32.5 -22.5 -55t-55 -22.5t-56 22.5t-23.5 55t23.5 55t56 22.5t55 -22.5t22.5 -55zM254 665h565q26 0 40.5 -13.5t14.5 -36.5v-235
q0 -20 -13 -34t-33 -16l-506 -55q-20 -3 -28.5 -18t0 -28.5t31.5 -13.5h479q26 0 36.5 -20t0 -40t-36.5 -20h-489q-53 0 -84.5 32.5t-26.5 77t46 75.5l44 32l-155 338h-77q-27 0 -38.5 22.5t0 45t38.5 22.5h89q31 0 45.5 -12.5t25.5 -39.5zM599 595h-130l26 -85h124z
M325 510h126l-27 85h-138zM395 352l100 10l-33 103h-118zM539 368l112 12l-25 85h-118zM805 398v67h-133l20 -80zM805 510v85h-161l18 -85h143z" />
    <glyph glyph-name="uniE80C" unicode="&#xe80c;" horiz-adv-x="843" 
d="M294 -25q-35 0 -59.5 24.5t-24.5 59.5t24.5 59t59.5 24t59.5 -24t24.5 -59t-24.5 -59.5t-59.5 -24.5zM699 -25q-34 0 -58.5 24.5t-24.5 59.5t24.5 59t58.5 24q35 0 58.5 -24t24.5 -59q0 -35 -24 -59.5t-59 -24.5zM776 584q22 -2 35.5 -16t13.5 -34v-282q0 -21 -15 -36
t-36 -15h-478q-17 0 -31.5 12.5t-16.5 30.5l-89 317q-15 58 -41 65q-10 3 -41.5 4t-44.5 11t-13 40q0 19 9.5 29.5t19.5 11.5l10 2l2 1h6h10q124 0 159 -103zM735 498l-114 8v-90h114v82zM581 416v93l-125 9v-102h125zM456 388v-97h125v97h-125zM256 530l38 -114h122v104z
M334 291h82v97h-112zM621 291h114v97h-114v-97z" />
    <glyph glyph-name="uniE80D" unicode="&#xe80d;" horiz-adv-x="850" 
d="M831 350q0 -168 -119.5 -287t-286.5 -119q-169 0 -287.5 119t-118.5 287q0 169 118.5 287.5t287.5 118.5q167 0 286.5 -118.5t119.5 -287.5zM741 351q0 131 -92.5 224t-223.5 93t-224 -93t-93 -224t93 -224t224 -93t223.5 93t92.5 224zM418 301q-22 0 -33 15l-144 156
q-29 32 3 62t62 0l130 -143h109q29 0 39.5 -22.5t-1.5 -45t-38 -22.5h-127zM423.5 612q8.5 0 16.5 -7t8 -16t-8 -16.5t-16.5 -7.5t-16 7.5t-7.5 16.5t7.5 16t16 7zM590 548q10 0 17 -8t7 -16.5t-7 -16t-17 -7.5t-17 7.5t-7 16t7 16.5t17 8zM663.5 376q8.5 0 16.5 -7t8 -17
t-8 -16.5t-16.5 -6.5t-16 6.5t-7.5 16.5t7.5 17t16 7zM598 209q10 0 16.5 -7t6.5 -17t-6.5 -17t-16.5 -7t-17 7t-7 17t7 17t17 7zM422 136q10 0 17 -7t7 -17t-7 -16.5t-17 -6.5t-16.5 6.5t-6.5 16.5t6.5 17t16.5 7zM260 201q10 0 17 -6.5t7 -16.5t-7 -17t-17 -7t-17 7t-7 17
t7 16.5t17 6.5zM161 352q0 10 7 17t17 7t17 -7t7 -17t-7 -16.5t-17 -6.5t-17 6.5t-7 16.5z" />
    <glyph glyph-name="uniE80E" unicode="&#xe80e;" 
d="M515 850q80 0 145 -35t105 -92q18 2 31 2q91 0 155 -64t64 -155q0 -90 -64 -154t-155 -64q-43 0 -78 13q-88 -76 -203 -76t-203 76q-35 -13 -78 -13q-91 0 -155 64t-64 154q0 91 64 155t155 64q13 0 31 -2q40 57 105 92t145 35zM208 190q10 -6 16 -16l23 8q20 3 26 -16
t-16 -25l-23 -6q0 -11 -6 -21l17 -18q16 -14 1 -28q-15 -15 -30 -1l-15 17q-3 -1 -10.5 -2.5t-11.5 -2.5l-8 -24q-5 -21 -24 -15q-21 5 -15 27l6 23q-6 2 -16 16l-23 -8q-20 -3 -24 16t14 25l24 6q0 11 6 21l-18 18q-14 14 0 28t29 1l18 -17q9 3 21 6l6 23q6 20 26 14
q19 -6 13 -26zM159 125q9 -9 20.5 -5t14 13.5t-6.5 19.5q-14 16 -28 1q-15 -15 0 -29zM515 -150q-14 0 -24.5 10t-10.5 25v41q-18 7 -31 18l-36 -20q-21 -11 -39 1.5t-11 36.5q5 16 15 21l35 21q-3 18 0 37l-35 20q-27 19 -12 48q6 12 19 16t28 -4l36 -21q15 14 31 20v41
q0 13 11 24t24 11t24 -11t11 -24v-41q16 -6 31 -20l36 21q21 11 39 -2t11 -37q-5 -15 -15 -21l-35 -20q3 -19 0 -37l35 -21q10 -6 14.5 -19.5t-2.5 -27.5q-16 -27 -47 -12l-36 20q-13 -11 -31 -18v-41q0 -15 -10.5 -25t-24.5 -10zM480 23q0 -14 10.5 -24t24.5 -10t24.5 10.5
t10.5 23.5q0 14 -10.5 24t-24.5 10t-24.5 -10t-10.5 -24zM806 112q5 9 16 15l-6 24q-6 19 13 25q20 6 26 -14l6 -23q12 -3 21 -6l18 18q15 13 29 -1.5t0 -28.5l-18 -17q6 -10 6 -22l24 -5q19 -6 14 -26q-4 -18 -24 -15l-23 7q-9 -12 -16 -15l6 -24q6 -21 -15 -26
q-19 -6 -24 15l-8 23q-16 4 -22 6l-15 -18q-15 -14 -30 1q-16 14 1 29l17 17q-6 9 -6 22l-23 6q-22 6 -16 25q6 20 26 14zM842 63q9 -9 20.5 -5.5t14 13t-6.5 19.5q-14 16 -28 1q-15 -15 0 -28z" />
    <glyph glyph-name="uniE80F" unicode="&#xe80f;" horiz-adv-x="479" 
d="M21 423q-12 32 1 60t41 37q33 13 61 -0.5t39 -38.5q14 -32 -1 -60t-40 -38q-14 -6 -30 -6q-49 0 -71 46zM58 452q0 -14 10 -24t24 -10t24 10t10 24t-10 23.5t-24 9.5t-24 -9.5t-10 -23.5zM226 174v346h238v-63h-170v-80h145v-62h-145v-141h-68z" />
    <glyph glyph-name="uniE810" unicode="&#xe810;" horiz-adv-x="686" 
d="M168 775h350l150 -100v-500q0 -19 -15.5 -35t-34.5 -16h-550q-19 0 -34.5 16t-15.5 35v500zM218 675l-100 -50v-100h450v100l-100 50h-250zM168 325q-20 0 -35 -14.5t-15 -35t15 -35.5t35 -15t35 15t15 35.5t-15 35t-35 14.5zM518.5 325q-20.5 0 -35.5 -14.5t-15 -35
t15 -35.5t35.5 -15t35 15t14.5 35.5t-14.5 35t-35 14.5zM343 75l275 -150h-550z" />
    <glyph glyph-name="uniE811" unicode="&#xe811;" horiz-adv-x="885" 
d="M193 724h501q24 0 24 -24q0 -25 -24 -25h-201l25 -150v-50l350 -100v-99h-350v-201l125 -50v-49h-401v49l126 50v201h-350v99l350 100v50l26 150h-201q-11 0 -18 7.5t-7 17.5q0 24 25 24z" />
    <glyph glyph-name="uniE812" unicode="&#xe812;" horiz-adv-x="885" 
d="M868 274v-49l-350 49v-199l100 -101q0 -19 -15.5 -34t-34.5 -15h-250q-19 0 -34.5 15t-15.5 34l100 101v201l-350 -51v51l350 199v101q0 54 20.5 126.5t54 72.5t54.5 -73.5t21 -125.5v-101z" />
    <glyph glyph-name="uniE813" unicode="&#xe813;" horiz-adv-x="986" 
d="M418 724q117 0 213 -21t173.5 -66t120.5 -124t43 -188q0 -67 -29 -128.5t-85.5 -112t-149.5 -79.5t-211 -29q-74 0 -124.5 49.5t-50.5 124.5q0 54 -36.5 77t-113.5 23q-72 0 -111 48t-39 126q0 32 17.5 70t52 79t81 74.5t112 55t137.5 21.5zM355.5 625q-26.5 0 -44.5 -18
t-18 -44.5t18 -44.5t44.5 -18t44.5 18t18 44.5t-18 44.5t-44.5 18zM555.5 625q-26.5 0 -44.5 -18t-18 -44.5t18 -44.5t44.5 -18t44.5 18t18 44.5t-18 44.5t-44.5 18zM756 525q-26 0 -44 -18t-18 -44.5t18 -44.5t44 -18t44 18t18 44.5t-18 44.5t-44 18zM180 475
q-26 0 -44 -18t-18 -44.5t18 -44.5t44 -18t44 18t18 44.5t-18 44.5t-44 18zM493 225q-31 0 -53 -22t-22 -53.5t22 -53t53 -21.5t53 21.5t22 53t-22 53.5t-53 22z" />
    <glyph glyph-name="uniE814" unicode="&#xe814;" horiz-adv-x="885" 
d="M118 775q22 0 50.5 -22.5t73.5 -72t51 -55.5q44 -45 158.5 -196.5t191.5 -228.5l150 -150l25 25q20 0 35 -15.5t15 -34.5l-100 -100q-19 0 -34.5 15.5t-15.5 35.5l25 24l-150 150q-88 87 -235.5 197.5t-189.5 152.5q-6 6 -56 51t-72 73t-22 51q0 47 26.5 73.5t73.5 26.5z
M293 276q31 0 53 -22.5t22 -53.5t-22 -53.5t-53 -22.5t-53 22.5t-22 53.5t22 53.5t53 22.5z" />
    <glyph glyph-name="uniE815" unicode="&#xe815;" horiz-adv-x="686" 
d="M68 775h550l-275 -150zM168 576h350l150 -101v-499q0 -20 -15.5 -35.5t-34.5 -15.5h-550q-19 0 -34.5 15.5t-15.5 35.5v499zM218 475l-100 -51v-99h450v99l-100 51h-250zM168 126q-20 0 -35 -15t-15 -35.5t15 -35.5t35 -15t35 15t15 35.5t-15 35.5t-35 15zM518.5 126
q-20.5 0 -35.5 -15t-15 -35.5t15 -35.5t35.5 -15t35 15t14.5 35.5t-14.5 35.5t-35 15z" />
    <glyph glyph-name="uniE816" unicode="&#xe816;" horiz-adv-x="986" 
d="M718 444q-81 -17 -137.5 -76t-62.5 -143q0 -25 -25 -25h-75q0 -83 -58.5 -141.5t-141 -58.5t-141.5 58.5t-59 141.5t59 141.5t141 58.5q18 0 47 -7l53 107v50h-76v26q0 2 1 6t7.5 11t17.5 7h126q9 0 16.5 -7.5t7.5 -16.5v-26h-50v-50h350v113l-100 37l25 50l100 -39
q25 -10 25 -36v-125l55 -109q64 -18 104.5 -71t40.5 -120q0 -83 -58.5 -141.5t-141.5 -58.5t-141.5 58.5t-58.5 141.5q0 70 42 122.5t108 69.5v52zM368 450l-40 -83q62 -41 82 -117h58q0 39 44 110.5t81 89.5h-225zM218.5 325q-52.5 0 -88.5 -36.5t-36 -88.5t36 -88.5
t88.5 -36.5t88.5 36.5t36 88.5t-36 88.5t-88.5 36.5zM768 325q-53 0 -89 -36.5t-36 -88.5t36 -88.5t89 -36.5t89 36.5t36 88.5t-36 88.5t-89 36.5z" />
    <glyph glyph-name="uniE817" unicode="&#xe817;" horiz-adv-x="686" 
d="M168 775h350v-51h100q19 0 34.5 -15t15.5 -34v-650h-50v-100h-100v100h-350v-100h-100v100h-50v650q0 19 15.5 34t34.5 15h100v51zM118 625v-250h450v250h-450zM168 225q-20 0 -35 -15t-15 -35.5t15 -35.5t35 -15t35 15t15 35.5t-15 35.5t-35 15zM518.5 225
q-20.5 0 -35.5 -15t-15 -35.5t15 -35.5t35.5 -15t35 15t14.5 35.5t-14.5 35.5t-35 15z" />
    <glyph glyph-name="uniE818" unicode="&#xe818;" horiz-adv-x="986" 
d="M168 700h550q20 0 35 -15t15 -35v-50h150q19 0 34.5 -15t15.5 -35v-150q0 -38 -31.5 -69t-68.5 -31h-50v-24q0 -26 -25 -26h-25v-50q0 -20 -15 -35t-35 -15h-550q-20 0 -35 15t-15 35v450q0 20 15 35t35 15zM768 550v-200h100q19 0 34.5 15.5t15.5 34.5v125q0 25 -25 25
h-125zM18 100h850l-75 -75q-25 -25 -50 -25h-600q-24 0 -49 25z" />
    <glyph glyph-name="uniE819" unicode="&#xe819;" horiz-adv-x="986" 
d="M493 700q30 0 43 -25l311 -575h67q22 0 38 -15t16 -35t-16 -35t-38 -15h-843q-22 0 -37.5 15t-15.5 35t15.5 35t37.5 15h67l311 575q13 25 44 25zM493 450l-175 -350h350z" />
    <glyph glyph-name="uniE81A" unicode="&#xe81a;" horiz-adv-x="986" 
d="M493 700l475 -250l-150 -83v-217q0 -21 12 -33.5t24 -13.5l14 -3v-50q-4 0 -11 0.5t-24 6t-30 15t-24 30t-11 48.5v189l-275 -139l-475 250zM268 250l225 -109l225 109v-100q1 -17 -22.5 -38.5t-52.5 -36.5l-150 -75l-175 75q-24 12 -37 33t-13 42v100z" />
    <glyph glyph-name="uniE81B" unicode="&#xe81b;" horiz-adv-x="786" 
d="M68 800h650q20 0 35 -15t15 -35v-800q0 -19 -15.5 -34.5t-34.5 -15.5h-250v150q0 20 -15.5 35t-34.5 15h-50q-19 0 -34.5 -15t-15.5 -35v-150h-250q-19 0 -34.5 15.5t-15.5 34.5v800q0 20 15 35t35 15zM168 650v-100h150v100h-150zM468 650v-100h150v100h-150zM168 350
v-100h150v100h-150zM468 350v-100h150v100h-150z" />
    <glyph glyph-name="uniE81C" unicode="&#xe81c;" horiz-adv-x="885" 
d="M68 724q23 23 47.5 35.5t38.5 14.5l14 1l500 -499l-25 -76l199 -200q26 -26 26 -45q0 -15 -7.5 -22.5t-21.5 -7.5q-21 0 -46 25l-200 200l-75 -24l-500 499q0 49 50 99zM242.5 276q31.5 0 53.5 -22.5t22 -53.5t-22 -52.5t-53.5 -21.5t-53 21.5t-21.5 52.5t21.5 53.5
t53 22.5z" />
    <glyph glyph-name="uniE81D" unicode="&#xe81d;" horiz-adv-x="686" 
d="M68.5 825q20.5 0 35 -15t14.5 -35v-6q27 6 50 6q50 0 175.5 -62.5t174.5 -62.5q52 0 150 74v-349q-67 -50 -150 -50q-51 0 -176 62.5t-174 62.5q-23 0 -50 -12v-513q0 -19 -15 -34.5t-34.5 -15.5t-35 15.5t-15.5 34.5v850q0 20 15 35t35.5 15z" />
    <glyph glyph-name="uniE81E" unicode="&#xe81e;" horiz-adv-x="686" 
d="M193 800q25 0 51 -11l324 -139l-350 -150v-466q5 -2 19.5 -10t21 -11t18.5 -7.5t21.5 -6t19.5 0.5q26 3 53 27.5t46.5 51t47 49t53.5 22.5q58 0 104 -67t46 -158q0 -11 -6.5 -17.5t-12.5 -6.5l-6 -1h-600q-2 0 -6.5 0.5t-11.5 7t-7 17.5q0 43 41 84.5t109 44.5v721
q0 9 1 14.5t5.5 7.5t7.5 2.5t11 0.5z" />
    <glyph glyph-name="uniE81F" unicode="&#xe81f;" horiz-adv-x="885" 
d="M693.5 775q73.5 0 124 -51t50.5 -124.5t-50.5 -124.5t-123.5 -51q-29 0 -64 14l-412 -413h200q33 0 58.5 12.5t33.5 24.5l8 13l-50 49h200q17 0 25 -3.5t4.5 -11t-8.5 -13t-17 -17.5q-2 -3 -4 -4q-34 -35 -54.5 -53.5t-56 -45t-69.5 -39t-70 -12.5h-350q-19 0 -34.5 15.5
t-15.5 35.5v349q0 75 18.5 106.5t131.5 144.5q12 12 18.5 18t15.5 10t12.5 -3t3.5 -25v-201l-50 51q-2 -2 -5 -4t-12 -10.5t-16 -19t-12 -29t-5 -38.5v-201l412 413q-12 33 -12 63q0 73 51 124t124.5 51zM693.5 675q-31.5 0 -53.5 -22t-22 -53.5t22 -53t53.5 -21.5t53 21.5
t21.5 53t-21.5 53.5t-53 22z" />
    <glyph glyph-name="uniE820" unicode="&#xe820;" horiz-adv-x="986" 
d="M480 50q-7 0 -16 5t-20.5 15.5t-21.5 21.5l-26 28l-28 30l-178 183q-32 -33 -72.5 -33t-70 29t-29.5 71q0 41 29.5 70.5t70.5 29.5q57 0 86 -50h364v100h-300q-21 0 -35.5 14.5t-14.5 35t14.5 35.5t35.5 15h650q20 0 35 -15t15 -35.5t-15 -35t-35 -14.5h-300v-100h150
q50 0 100 -50l50 -50q18 -18 26 -27.5t16 -29t8 -43.5v-150q0 -19 -15.5 -34.5t-34.5 -15.5h-438zM117.5 450q-20.5 0 -35 -14.5t-14.5 -35t14.5 -35.5t35 -15t35.5 15t15 35.5t-15 35t-35.5 14.5z" />
    <glyph glyph-name="uniE821" unicode="&#xe821;" horiz-adv-x="786" 
d="M318 724h150q20 0 35 -14t15 -35v-200h200q20 0 35 -15t15 -36v-148q0 -21 -15 -36t-35 -15h-200v-200q0 -21 -15 -35t-35 -14h-150q-20 0 -35 14t-15 35v200h-200q-20 0 -35 15t-15 36v148q0 21 15 36t35 15h200v200q0 21 15 35t35 14z" />
    <glyph glyph-name="uniE822" unicode="&#xe822;" horiz-adv-x="885" 
d="M618 675q0 19 16 34t34 15t34 -15t16 -34v-200h100q21 0 35.5 -15t14.5 -36v-399q0 -21 -14.5 -35t-35.5 -14h-750q-20 0 -35 14t-15 35v375q0 18 6 31.5t10 18t18 13.5t16 12l200 150v-150l200 150v-150h150v200z" />
    <glyph glyph-name="uniE823" unicode="&#xe823;" horiz-adv-x="786" 
d="M618 825l125 -101q1 -1 7 -5t9 -6.5t6 -9.5t3 -16q0 -19 -28 -9l-72 22l-200 -276v-148v-13v-13q0 -3 -0.5 -11.5t-1 -12.5t-3 -11t-5 -10.5t-6.5 -7.5t-10 -8l76 -314h-50l-50 150l-50 75v-225h-50v249q0 6 -1 14.5t-14 22.5t-35.5 14t-34.5 -12.5t-13 -26.5l-2 -12
v-249h-50v150l-100 -150h-50q10 27 23.5 52.5t20 44.5t6.5 53v50q0 27 -25 76t-25 74v51q0 48 33 76t76 39t100 32.5t91 51.5q168 151 300 350z" />
    <glyph glyph-name="uniE824" unicode="&#xe824;" horiz-adv-x="885" 
d="M118 675q42 0 71 -29.5t29 -70t-30 -70.5t-70.5 -30t-70 29.5t-29.5 71.5q0 40 29.5 69.5t70.5 29.5zM268 576h350q71 0 121.5 -11.5t75 -26t37 -39t14.5 -38.5t2 -35v-101h-825q-25 0 -25 25v50q0 12 4 17.5t8 6t13 0.5h75q62 0 106 44.5t44 107.5zM68 276h750
q20 0 35 -16t15 -35v-150q0 -19 -15 -34.5t-34.5 -15.5t-35 15.5t-15.5 34.5v100h-650v-100q0 -19 -15 -34.5t-34.5 -15.5t-35 15.5t-15.5 34.5v150q0 19 15.5 35t34.5 16z" />
    <glyph glyph-name="uniE825" unicode="&#xe825;" horiz-adv-x="986" 
d="M493.5 724q134.5 0 237.5 -85t129 -215h58q19 0 34.5 -15t15.5 -34v-50q0 -19 -15.5 -34t-34.5 -15h-58q-26 -130 -129 -215t-237.5 -85t-238 85t-129.5 215h-58q-19 0 -34.5 15t-15.5 34v50q0 19 15.5 34t34.5 15h58q26 130 129.5 215t238 85zM493.5 600
q-74.5 0 -138 -52t-87.5 -124h450q-24 72 -87 124t-137.5 52zM268 276q24 -72 87.5 -124t138 -52t137.5 52t87 124h-450z" />
    <glyph glyph-name="uniE826" unicode="&#xe826;" horiz-adv-x="786" 
d="M182 750q11 0 36 -26l75 -74l75 84q16 16 26 16q4 0 8 -1.5t5.5 -3t4.5 -5.5t6 -6l75 -84l75 74q25 26 34 26q16 0 16 -50v-100q0 -72 -60 -112.5t-140 -37.5v-400q46 92 147 163t203 37q-5 -12 -15 -32t-45 -72t-75 -91.5t-105 -72t-134 -32.5q-51 0 -99.5 17t-85 43.5
t-68.5 58t-54 63.5t-38.5 58.5t-23.5 43.5l-7 16q102 34 203 -37t147 -163v400q-80 -3 -140 37.5t-60 112.5v100q0 50 14 50z" />
    <glyph glyph-name="uniE827" unicode="&#xe827;" horiz-adv-x="786" 
d="M394 825q14 -11 34.5 -29t55 -58t34.5 -63v-549h100q20 0 35 -15t15 -36v-99h50q20 0 35 -15t15 -36v-50h-750v50q0 21 15 36t35 15h50v99q0 21 15 35t35 14h100v551q-3 22 29 59.5t64 64.5z" />
    <glyph glyph-name="uniE828" unicode="&#xe828;" horiz-adv-x="885" 
d="M443 800l325 -250h-650zM168 500h550q20 0 35 -15t15 -35v-350l88 -150q12 -20 12 -25q0 -25 -50 -25h-750q-50 0 -50 25q0 4 12 25l88 150v350q2 21 16 35.5t34 14.5zM268 400q-21 0 -35.5 -15t-14.5 -35v-250q0 -19 15 -34.5t34.5 -15.5t35 15.5t15.5 34.5v200l76 -150
q24 -50 49 -50q11 0 23.5 12t19.5 24l7 14l75 150v-200q0 -19 15.5 -34.5t34.5 -15.5t34.5 15.5t15.5 34.5v250q0 20 -15 35t-35 15h-76q-30 0 -49 -50l-50 -125l-49 125q-26 50 -51 50h-75z" />
    <glyph glyph-name="uniE829" unicode="&#xe829;" horiz-adv-x="786" 
d="M68 800h450q21 0 35.5 -15t14.5 -35v-50l50 -50h50v-150q0 -25 50 -75t50 -75v-275q0 -75 -74 -75q-76 0 -76 75v100q0 25 -25 25h-25v-250q0 -19 -15 -34.5t-35 -15.5h-450q-19 0 -34.5 15.5t-15.5 34.5v800q0 20 15 35t35 15zM118 700v-200h350v200h-350zM568 550v-300
h50q19 0 34.5 -15.5t15.5 -34.5v-125q0 -11 7 -17.5t13 -7.5h6q2 0 6 0.5t11 7t7 17.5v250q0 25 -50 75t-50 75v75h-50z" />
    <glyph glyph-name="uniE82A" unicode="&#xe82a;" horiz-adv-x="986" 
d="M493 675q91 0 173.5 -33.5t135 -81t92.5 -95.5t56 -81l18 -34q-6 -13 -18 -35.5t-55.5 -78t-93.5 -98t-133.5 -78t-174.5 -35.5t-173 33.5t-135 81t-92.5 95.5t-56.5 81l-18 34q6 13 18 35.5t56 78t93.5 98t133 78t174.5 35.5zM343 424q-25 0 -25 -24v-25h-76
q-24 0 -24 -25t24 -25h76v-25q0 -24 25 -24t25 24v25h100v-25q0 -24 25 -24t25 24v25h100v-25q0 -24 25 -24t25 24v25h75q11 0 18 7t7 18t-7 18t-18 7h-75v25q0 24 -25 24t-25 -24v-25h-100v25q0 24 -25 24t-25 -24v-25h-100v25q0 24 -25 24z" />
    <glyph glyph-name="uniE82B" unicode="&#xe82b;" horiz-adv-x="885" 
d="M242 775h401l225 -199v-401q0 -19 -15 -34t-35 -15h-178l-98 -176q-9 -18 -18 -21.5t-31 -3.5h-99q-22 0 -31.5 3.5t-19.5 21.5l-97 176h-178q-19 0 -34.5 15t-15.5 34v401zM218 576v-300h450v300h-450zM268 525h350v-200h-350v200zM296 126l28 -51h44v-50h-18l18 -31v31
h50v-51h50v51h50v-31l17 31h-17v50h44l28 49h-72v-49h-50v49h-50v-49h-50v51h-72zM418 25v50h50v-50h-50z" />
    <glyph glyph-name="uniE82C" unicode="&#xe82c;" horiz-adv-x="885" 
d="M318 850h250q20 0 35 -15t15 -35h100q20 0 35 -15t15 -35v-303l100 -47l-100 -200v-100l-160 -46q-14 -4 -15 -4t-16 4l-134 46l-135 -46q-14 -4 -15 -4q-7 0 -16 4l-159 46v100l-100 200l100 47v303q0 20 15 35t35 15h100q0 20 15 35t35 15zM218 700v-206l176 82l49 24
q41 -21 118 -56l107 -50v206h-450zM118 0q9 0 15 -3l160 -47l134 47q10 3 16 3t15 -3l135 -47l159 47q10 3 16 3t16 -3l84 -29v-100l-100 32l-160 -47q-14 -3 -15 -3t-16 3l-134 47l-135 -47q-14 -3 -15 -3q-7 0 -16 3l-159 47l-100 -32v100l84 29q7 3 16 3z" />
    <glyph glyph-name="uniE82D" unicode="&#xe82d;" horiz-adv-x="986" 
d="M368 675h250q119 0 209.5 -55t90.5 -145v-100h-850v100q0 90 91 145t209 55zM394 625q-11 0 -18.5 -7.5t-7.5 -17.5q0 -24 26 -24q24 0 24 24q0 25 -24 25zM593 625q-11 0 -18 -7.5t-7 -17.5q0 -24 25 -24t25 24q0 10 -7 17.5t-18 7.5zM293 525q-11 0 -18 -7t-7 -18
t7 -18t18 -7t18 7t7 18t-7 18t-18 7zM493 525q-11 0 -18 -7t-7 -18t7 -18t18 -7t18 7t7 18t-7 18t-18 7zM694 525q-11 0 -18.5 -7t-7.5 -18t7.5 -18t18.5 -7q24 0 24 25t-24 25zM68 325h850q19 0 34.5 -15t15.5 -34.5t-15.5 -35t-34.5 -15.5h-850q-19 0 -34.5 15.5t-15.5 35
t15.5 34.5t34.5 15zM68 175h850v-51q0 -38 -30.5 -68.5t-69.5 -30.5h-650q-38 0 -69 30.5t-31 68.5v51z" />
    <glyph glyph-name="uniE82E" unicode="&#xe82e;" horiz-adv-x="686" 
d="M318 825q41 0 70.5 -29.5t29.5 -71.5q0 -40 -29 -69.5t-71 -29.5t-71 29.5t-29 69.5q0 42 29.5 71.5t70.5 29.5zM30 625q-12 63 -12 75q0 24 18.5 34t40 0t29.5 -34l37 -126h387q40 0 51 -24l80 -166q7 -15 7 -34q0 -22 -16 -31t-37 -0.5t-34 31.5l-63 125h-75
q25 -123 25 -250q0 -38 38.5 -110t100.5 -147q29 -40 16.5 -66.5t-37.5 -26.5q-8 0 -15 2.5t-15 7.5t-13 10t-13 14.5l-12 14.5l-12 15q-8 11 -10 15q-32 40 -64 95t-49 90l-17 36h-124q-9 0 -14 -1.5t-11.5 -6.5t1.5 -17l75 -150q15 -32 -10 -59q-27 -30 -60 -4
q-17 12 -30 39l-75 148q-34 68 -1 110t81 42h44q-3 27 -3 71t-3.5 74.5t-17.5 53.5h-82q-24 0 -36 1.5t-25.5 13t-19.5 35.5z" />
    <glyph glyph-name="uniE82F" unicode="&#xe82f;" horiz-adv-x="686" 
d="M218 800h250q19 0 34.5 -15.5t15.5 -34.5v-50h-350v50q0 19 15.5 34.5t34.5 15.5zM168 650h350v-25q0 -73 -51 -124t-124 -51t-124 51t-51 124v25zM118 400h375l-341 -500h-134v300q0 43 9 86.5t32.5 78.5t58.5 35zM568 400q34 0 58 -36t33 -79t9 -85v-300h-441z" />
    <glyph glyph-name="uniE830" unicode="&#xe830;" horiz-adv-x="885" 
d="M68.5 700q20.5 0 35 -15t14.5 -35v-100h150v100q0 20 15 35t35 15t35 -15t15 -35v-100h150v100q0 20 14.5 35t35 15t35.5 -15t15 -35v-100h150v100q0 20 15 35t35.5 15t35 -15t14.5 -35v-600q0 -20 -14.5 -35t-35 -15t-35.5 15t-15 35v100h-150v-100q0 -20 -15 -35
t-35.5 -15t-35 15t-14.5 35v100h-150v-100q0 -20 -15 -35t-35 -15t-35 15t-15 35v100h-150v-100q0 -20 -14.5 -35t-35 -15t-35.5 15t-15 35v600q0 20 15 35t35.5 15zM118 450v-200h150v200h-150zM368 450v-200h150v200h-150zM618 450v-200h150v200h-150z" />
    <glyph glyph-name="uniE831" unicode="&#xe831;" horiz-adv-x="686" 
d="M343 800q31 0 53 -22t22 -54v-174h175q31 0 53 -22t22 -53t-22 -53t-53 -22h-175v-424q0 -32 -22 -54t-53 -22t-53 22t-22 54v424h-174q-32 0 -54 22t-22 53t22 53t54 22h174v174q0 32 22 54t53 22z" />
    <glyph glyph-name="uniE832" unicode="&#xe832;" horiz-adv-x="936" 
d="M443 775q96 0 181 -41t145 -112q-79 53 -176 53q-135 0 -230 -95.5t-95 -229.5t95 -229.5t230 -95.5q97 0 176 53q-60 -71 -145 -112t-181 -41q-177 0 -301 124.5t-124 300.5t124 300.5t301 124.5zM694 576l49 -152h175l-150 -99l74 -175l-148 100l-152 -100l76 175
l-150 99h175z" />
    <glyph glyph-name="uniE833" unicode="&#xe833;" horiz-adv-x="836" 
d="M418 800l150 -200h250l-150 -250l150 -250h-250l-150 -200l-150 200h-250l150 250l-150 250h250z" />
    <glyph glyph-name="uniE834" unicode="&#xe834;" horiz-adv-x="585" 
d="M68 800q12 0 12 -25v-199q0 -26 14 -26q12 0 12 26v199q0 25 12 25h50q12 0 12 -25v-199q0 -26 13 -26q12 0 12 26v199q0 25 13 25q20 0 35 -15.5t15 -34.5v-250q0 -25 -25 -49.5t-25 -50.5v-450q0 -19 -15.5 -34.5t-34.5 -15.5h-50q-20 0 -35 15.5t-15 34.5v450
q0 26 -25 50.5t-25 49.5v250q0 19 15.5 34.5t34.5 15.5zM568 800v-850q0 -19 -15 -34.5t-35 -15.5h-50q-19 0 -34.5 15.5t-15.5 34.5v300q-20 0 -35 15t-15 35v200q0 174 26 224q37 76 174 76z" />
    <glyph glyph-name="uniE835" unicode="&#xe835;" horiz-adv-x="1086" 
d="M655 800q36 0 62 -26t26 -62t-26 -61.5t-62 -25.5t-61.5 25.5t-25.5 61.5t25.5 62t61.5 26zM256 700q36 0 61.5 -25.5t25.5 -61.5t-25.5 -62t-61.5 -26t-62 26t-26 62t26 61.5t62 25.5zM718 600h50q26 0 39.5 -4.5t34.5 -19.5l167 -119q21 -16 19.5 -36.5t-19.5 -26.5
t-41 6l-150 100q50 -125 50 -200q0 -28 0.5 -40.5t4.5 -37t15.5 -36t29.5 -11.5h113q17 0 26 -9.5t10 -19.5l1 -8q0 -4 -1 -10.5t-10 -17t-26 -10.5h-138q-28 0 -51.5 16t-36.5 37.5t-22 43.5t-13 38l-2 15l-136 -322q-13 -28 -39 -28q-21 0 -33 14.5t-3 38.5l109 290
q0 3 2 7q10 40 0.5 88.5t-27.5 90.5l-17 41l-106 -70q-19 -13 -37.5 -4t-19 27.5t18.5 35.5l163 117q34 24 75 24zM193 500h75q37 0 68.5 -63t31.5 -137.5t26 -74.5h124q24 0 34 -19t0 -37.5t-34 -18.5h-150q-22 0 -41 12.5t-27 24.5l-7 13l-75 -200q-8 -23 -31 -28
t-38.5 10.5t-5.5 42.5l75 200q17 39 1 107t-51 68l-91 -91q-17 -15 -38 -9t-21 25q0 25 19 44l106 106q25 25 50 25z" />
    <glyph glyph-name="uniE836" unicode="&#xe836;" horiz-adv-x="986" 
d="M468 750q32 0 97 -38l153 -87l80 -312l94 -41q32 -13 31 -43q-1 -27 -31 -29q-18 -1 -41 8l-114 51q-22 9 -28 32l-35 129l-178 105l20 -83q8 -32 -20 -52l-179 -106l463 -271q34 -19 56 -11q20 7 40 31q11 13 26.5 8t15.5 -22q0 -12 -8 -21l-22 -21q-7 -6 -27.5 -16.5
t-42.5 -10.5q-31 0 -62 18l-726 425q-12 9 -12 23t12 22t25 0l169 -99l186 114l-34 142q-8 27 -8 55q0 52 29 76t71 24zM868 650q42 0 71 -29.5t29 -70.5q0 -42 -29 -71t-71 -29q-41 0 -70.5 29t-29.5 71t29 71t71 29z" />
    <glyph glyph-name="uniE837" unicode="&#xe837;" horiz-adv-x="885" 
d="M443 775q175 0 300 -125t125 -300t-125 -300t-300 -125t-300 125t-125 300t125 300t300 125zM443 700q-145 0 -247 -102t-102 -248q0 -56 13 -100h86q24 0 44 -8t29.5 -16.5t26.5 -25.5t25 -26.5t16.5 -29.5t8.5 -44v-86q47 -14 100 -14q25 0 49 3l-24 97q-12 51 25 75
l75 50q32 22 100 -25l65 -43q35 53 47 101l-86 42q-51 24 -51 75v49q0 14 11 26t22 20l36 22q25 15 39 25q-44 83 -127 133t-181 50zM293 525q9 40 23 49.5t52 1.5l125 -26q24 -4 35.5 -12t12.5 -14.5t1 -23.5v-100q0 -34 -9 -47t-40 -28l-50 -25q-1 -2 -11 -6.5t-13 -6
t-11 -4.5t-13.5 -2t-14 2t-17.5 5t-20 12l-75 50q-10 6 -12.5 15.5t-0.5 17t7 21.5l6 20z" />
    <glyph glyph-name="uniE838" unicode="&#xe838;" 
d="M335 586q-11 -5 -16 5l-91 157q-6 10 4 16l61 35q11 5 16 -5l91 -157q6 -10 -4 -16zM276 525l-35 -60q-5 -10 -16 -5l-158 92q-9 5 -4 15l35 61q5 10 16 4l158 -91q12 -6 4 -16zM220 381v-69q0 -11 -11 -11h-182q-12 0 -12 11v1v69q0 4 3.5 8t8.5 4h182q11 0 11 -12v-1z
M279 170q5 -11 -5 -16l-157 -91q-10 -6 -16 4l-35 61q-5 11 5 16l157 91q10 6 16 -4zM340 111l60 -35q10 -5 5 -16l-92 -158q-5 -9 -15 -4l-61 35q-10 5 -4 16l91 158q6 12 16 4zM484 55h69q11 0 11 -11v-182q0 -12 -11 -12h-1h-69q-5 0 -8.5 4t-3.5 8v182q0 11 12 11h1z
M695 114q11 5 16 -5l91 -157q6 -10 -4 -16l-61 -35q-11 -5 -16 5l-91 157q-6 10 4 16zM754 175l35 60q5 10 16 5l158 -92q9 -5 4 -15l-35 -61q-5 -10 -16 -4l-158 91q-12 6 -4 16zM810 319v69q0 11 11 11h182q12 0 12 -11v-1v-69q0 -4 -3.5 -8t-8.5 -4h-182q-11 0 -11 12v1z
M751 530q-5 11 5 16l157 91q10 6 16 -4l35 -61q5 -11 -5 -16l-157 -91q-10 -6 -16 4zM690 589l-60 35q-10 5 -5 16l92 158q5 9 15 4l61 -35q10 -5 4 -16l-91 -158q-6 -12 -16 -4zM546 645h-69q-11 0 -11 11v182q0 12 11 12h1h69q5 0 8.5 -4t3.5 -8v-182q0 -11 -12 -11h-1z
" />
    <glyph glyph-name="uniE839" unicode="&#xe839;" horiz-adv-x="885" 
d="M575 675q19 0 32 -11.5t16 -23.5q8 -38 -25 -56l-152 -77l192 -277l-70 -24l-135 44q-9 3 -15 3t-16 -3l-134 -44l-104 34l225 172l-61 83q-14 18 -8.5 42t26.5 34l200 96q14 8 29 8zM668 525q41 0 70.5 -29.5t29.5 -71.5q0 -40 -29 -69.5t-71 -29.5t-71 29.5t-29 70
t29 70.5t71 30zM118 175q9 0 15 -3l135 -44l134 44q10 3 16 3t15 -3l135 -44l134 44q10 3 16 3t15 -3l135 -44v-103l-150 50l-135 -47q-14 -3 -15.5 -3t-15.5 3l-134 47l-135 -47q-14 -3 -15 -3q-6 0 -16 3l-134 47l-100 -35v104l84 28q7 3 16 3z" />
    <glyph glyph-name="uniE83A" unicode="&#xe83a;" horiz-adv-x="885" 
d="M318 775q124 0 212 -87.5t88 -212.5v-250l224 -225q26 -26 26 -45q0 -15 -7.5 -22.5t-21.5 -7.5q-21 0 -46 25l-225 225h-250q-124 0 -212 87.5t-88 212.5t88 212.5t212 87.5zM568 375l-150 -150h150v150zM93.5 175q31.5 0 53 -21.5t21.5 -53t-21.5 -53.5t-53 -22
t-53.5 22t-22 53.5t22 53t53.5 21.5z" />
    <glyph glyph-name="uniE83B" unicode="&#xe83b;" horiz-adv-x="885" 
d="M68 800q20 0 81.5 -25t118 -25t119 25t81.5 25q18 0 34 -15.5t16 -34.5v-176l-50 26q-20 9 -29 12t-28 1.5t-43 -13.5q-50 -26 -50 -100v-109q-25 9 -50 9q-35 0 -63.5 -10t-44 -25t-25.5 -30t-14 -26l-3 -9h200v-147q-23 -3 -50 -3q-72 0 -123 22.5t-77.5 61.5t-38 80
t-11.5 86v350q0 19 16 34.5t34 15.5zM156 625q-26 0 -44 -18t-18 -44.5t18 -44.5t44 -18t44 18t18 44.5t-18 44.5t-44 18zM418 550q19 0 81.5 -25t118.5 -25t118.5 25t81.5 25q18 0 34 -15.5t16 -34.5v-350q0 -46 -11.5 -87t-38 -79t-77.5 -61t-123 -23t-123 23t-77.5 61
t-38 79t-11.5 87v350q0 19 16 34.5t34 15.5zM505.5 375q-26.5 0 -44.5 -18t-18 -44.5t18 -44.5t44.5 -18t44.5 18t18 44.5t-18 44.5t-44.5 18zM730.5 375q-26.5 0 -44.5 -18t-18 -44.5t18 -44.5t44.5 -18t44.5 18t18 44.5t-18 44.5t-44.5 18zM468 100l4 -10q2 -8 13 -25
t26 -30.5t43.5 -24t63.5 -10.5t63 10t43.5 25t26 30t13.5 26l4 9h-300z" />
    <glyph glyph-name="uniE83C" unicode="&#xe83c;" horiz-adv-x="885" 
d="M493 850q11 0 18 -7t7 -18v-950q0 -11 -7 -18t-18 -7t-18 7t-7 18v950q0 11 7 18t18 7zM218 800q41 0 70.5 -29.5t29.5 -70.5q0 -42 -29.5 -71t-70 -29t-70.5 30t-30 70.5t29 70t71 29.5zM743 800q42 0 70.5 -29.5t28.5 -70.5q0 -42 -29 -71t-70 -29t-70.5 29t-29.5 71
q0 41 29 70.5t71 29.5zM143 550h150l125 -375q3 -10 -5.5 -17.5t-20.5 -7.5h-74v-225q0 -11 -7 -18t-18 -7t-18 7t-7 18v225h-100v-225q0 -11 -7 -18t-18 -7t-18 7t-7 18v225h-75q-11 0 -19 7.5t-5 17.5zM668 550h150q21 0 35.5 -15t14.5 -35v-575q0 -11 -7.5 -18t-18.5 -7
q-24 0 -24 25v275h-150v-275q0 -11 -7 -18t-18 -7t-18 7t-7 18v575q0 20 15 35t35 15z" />
    <glyph glyph-name="uniE83D" unicode="&#xe83d;" horiz-adv-x="986" 
d="M493 800l375 -250h-750zM168 500h650q21 0 35.5 -15t14.5 -35v-350l87 -150q13 -22 13 -25q0 -25 -50 -25h-850q-50 0 -50 25q0 4 12 25l88 150v350q0 20 15 35t35 15zM267.5 400q-20.5 0 -35 -15t-14.5 -35v-300h100v300q-4 22 -17 36t-33.5 14zM493.5 400
q-20.5 0 -35.5 -15t-15 -35v-300h99v300q0 20 -14 35t-34.5 15zM717.5 400q-20.5 0 -35 -15t-14.5 -35v-300h100v300q0 20 -15 35t-35.5 15z" />
    <glyph glyph-name="uniE83E" unicode="&#xe83e;" horiz-adv-x="686" 
d="M343 800l275 -250h-150l200 -200h-150l150 -200h-250v-200q0 -20 -14.5 -35t-35.5 -15h-50q-20 0 -35 15t-15 35v200h-250l150 200h-150l200 200h-150z" />
    <glyph glyph-name="uniE83F" unicode="&#xe83f;" horiz-adv-x="1022" 
d="M402 612q-76 -9 -118 -52.5t-42 -121.5q0 -30 4 -50q20 -126 73 -358q34 -157 38 -174q-159 49 -251 185q-91 134 -91 307q0 215 141 356q140 140 355 140t355 -140q141 -141 141 -356q0 -182 -103 -312q-105 -132 -280 -172q-5 10 -33.5 53t-34.5 55q66 -26 86 -26
q16 0 16 50q0 94 -17 94q-24 0 -97 -56q0 14 -15 12h-5q-26 70 -26 124q0 15 3 30q94 -46 148 -46q30 0 93 18t63 40q0 12 -17 12q-15 0 -75 -7t-75 -7q-26 0 -60 14q-32 13 -32 38q0 5 1.5 7.5t5 3t6.5 0.5t8 -0.5t8 -0.5q5 0 26 -3t25 -3q28 0 127 37q96 36 96 57
q0 11 -17.5 16.5t-35.5 5.5q-12 0 -42 -8q-13 -3 -53 -16t-52 -16q4 17 4 32q0 48 -25 110t-58 92q-28 25 -72 34q-28 35 -88 65q-58 29 -105 29q-3 0 -51 -8l-22 -30l6 -2q4 0 21.5 2t21.5 2q33 0 78 -14q-37 -18 -62 -21q-39 -5 -39 -21q56 6 84 6q42 0 60 -6zM355 500
q-17 0 -36 -12.5t-18 -27.5q-3 6 -3 12q0 16 15 26t33 10q20 0 29 -12q-11 4 -20 4zM331 398q0 13 10.5 23.5t23.5 10.5t23.5 -10.5t10.5 -23.5t-10.5 -23.5t-23.5 -10.5t-23.5 10.5t-10.5 23.5zM380 400q9 0 9 8q0 10 -9 10t-9 -10q0 -8 9 -8zM539 496q4 24 35 24
q25 0 35 -22q-19 10 -33 10q-30 0 -37 -12zM562 418q0 11 9 19.5t20 8.5q12 0 20.5 -8t8.5 -20q0 -11 -9 -20.5t-20 -9.5q-10 0 -19.5 9.5t-9.5 20.5zM597 428q0 -8 7 -8q8 0 8 8q0 6 -8 6q-7 0 -7 -6z" />
    <glyph glyph-name="uniE840" unicode="&#xe840;" 
d="M519 -135q-158 0 -281.5 84t-184.5 223q-65 151 -22 353.5t161 309.5l-6 -157q6 8 38 8.5t40 -8.5q23 45 89 77t131 33q-31 -26 -67.5 -83t-31.5 -91q30 -10 136 -16q8 -3 5 -25.5t-17 -42.5q-12 -16 -36 -28t-43 -16l-18 -5l8 -105l-77 37q-18 -46 15.5 -81.5
t81.5 -27.5q34 6 76 31t66 23q34 -2 50 -18.5t11 -36.5q-4 -13 -19 -19.5t-28 -5.5h-13q-34 -53 -80.5 -75.5t-116.5 -16.5q74 -58 153.5 -52t143.5 46.5t90 92.5q33 76 15.5 162t-58.5 120q48 -21 76.5 -44.5t43.5 -62.5q8 95 -32.5 191.5t-116.5 158.5q148 -43 230 -156
t84 -289q1 -89 -37 -177t-102.5 -157t-158.5 -111.5t-198 -42.5z" />
    <glyph glyph-name="uniE841" unicode="&#xe841;" 
d="M515 181q-70 0 -119.5 49.5t-49.5 119.5t49.5 119.5t119.5 49.5t119.5 -49.5t49.5 -119.5t-49.5 -119.5t-119.5 -49.5zM438 -144q-181 28 -302 168t-121 326q0 149 82 274l188 -370q36 -80 115 -121t166 -25zM982 530q66 -169 5 -344.5t-222 -268.5q-128 -74 -278 -66
l226 347q52 71 48.5 160.5t-61.5 156.5zM126 664q115 143 295.5 177.5t343.5 -58.5q130 -75 196 -208l-414 22q-88 9 -163 -39t-104 -131z" />
    <glyph glyph-name="uniE842" unicode="&#xe842;" horiz-adv-x="881" 
d="M441 -150q-103 0 -185.5 43t-133.5 113.5t-79 160t-28 183.5t28 183.5t79 160t133.5 113.5t185.5 43t185.5 -43t133.5 -113.5t79 -160t28 -183.5t-28 -183.5t-79 -160t-133.5 -113.5t-185.5 -43zM441 -58q49 0 87.5 45t58.5 117t29 159t0 174t-29 159t-58.5 117t-87.5 45
t-87.5 -45t-58.5 -117t-29 -159t0 -174t29 -159t58.5 -117t87.5 -45z" />
    <glyph glyph-name="uniE843" unicode="&#xe843;" horiz-adv-x="993" 
d="M509 -59q-43 0 -89 8q-20 -22 -84.5 -52t-138 -43.5t-122.5 19.5q-77 61 -57 176t92 237t165 224t161 136v13q-98 -31 -206.5 -125.5t-160.5 -175.5q3 82 34 152t81 116t115 78.5t135.5 40t143.5 -0.5q231 138 343 96q45 -16 55 -73.5t-17 -139.5h-20q14 65 12 107.5
t-22.5 62.5t-50 24t-69.5 -7.5t-82 -32t-87 -50.5q148 -42 237.5 -166t68.5 -273h-561q0 -71 27.5 -111t98.5 -40q48 0 80 24.5t41 67.5h301q-40 -128 -157.5 -210t-266.5 -82zM396 -46q-79 19 -145 63.5t-111 107.5q-77 -167 -10 -223q28 -25 118.5 -8t147.5 60zM383 418
h252q0 60 -34.5 94.5t-93.5 34.5q-58 0 -91 -35t-33 -94z" />
    <glyph glyph-name="uniE844" unicode="&#xe844;" horiz-adv-x="1324" 
d="M454 94q18 0 31 11.5t13 29.5q0 11 -84 199q-87 195 -106 231q-6 15 -16 15q-7 0 -16 -15q-16 -31 -52 -114l-57 -127l-57 -126q-95 110 -95 234q0 107 53 190t136 130q172 98 375 98q337 0 581 -226q149 -138 149 -322q0 -15 -1 -19q-11 -153 -120 -256t-269 -147
q-107 -30 -229 -30h-8q-200 0 -315 53q-5 1 -7 6q0 2 3 2q1 0 4 -1h3q50 -12 89 -12q59 0 91 24q20 14 20 40q0 12 -6 24q-9 16 -58 34q-36 13 -114 33q-78 19 -123 36.5t-92 49.5q0 2 4.5 12.5t4.5 11.5q7 18 16 18h179q9 0 17 -21q22 -66 56 -66zM287 395l5 3q5 0 32 -64
q27 -63 27 -69q0 -4 -5 -4h-108q-5 0 -5 5q0 10 54 129zM587 98q47 0 47 45v388q0 45 -47 45t-47 -45v-388q0 -45 47 -45zM725 143q0 -45 47 -45t47 45v181l92 -185q14 -29 41 -29q32 0 46 29l91 185v-181q0 -45 47 -45q48 0 48 45v388q0 45 -47 45q-35 0 -47 -29l-138 -302
l-133 302q-14 29 -48 29q-46 0 -46 -45v-388z" />
    <glyph glyph-name="uniE845" unicode="&#xe845;" horiz-adv-x="1039" 
d="M15 351h501v-501h-501v501zM524 349v501h500v-501h-500z" />
    <glyph glyph-name="uniE846" unicode="&#xe846;" horiz-adv-x="1004" 
d="M209 850h438q107 0 181 -74q81 -79 52 -229q-28 -135 -128 -214q-99 -78 -234 -78h-183l-63 -296h-257zM115 -150l11 49h216l63 295h183q135 0 234 78q100 79 128 214q21 96 -12 170q71 -85 43 -219q-30 -136 -129 -214t-233 -78h-184l-63 -295h-257zM639 605
q-8 28 -31 46t-56 18h-125l-55 -244h83l42 183h125q2 0 17 -3zM497 426q50 2 91 38.5t51 82.5q0 1 1 6t1 6h-114z" />
    <glyph glyph-name="uniE847" unicode="&#xe847;" horiz-adv-x="989" 
d="M15 477q0 181 85.5 279t258.5 98h548l-109 -110l-137 -138l-111 -108q-40 -37 -41 -37q-15 0 -15 16v156h-48q-86 0 -132.5 -17.5t-63.5 -71.5q-12 -38 -12 -96v-262l-223 -223v514zM82 -154l109 110l135 138l112 108q40 37 42 37q15 0 15 -16v-156h48q117 0 161 35
q46 37 46 150v262l224 223v-514q0 -181 -85.5 -279t-258.5 -98h-548z" />
    <glyph glyph-name="uniE848" unicode="&#xe848;" horiz-adv-x="950" 
d="M78 138q-26 0 -44.5 19t-18.5 44v269q0 26 18.5 44.5t44.5 18.5t44.5 -18.5t18.5 -44.5v-269q0 -25 -18.5 -44t-44.5 -19zM251 38q-25 0 -44 19t-19 44v418h574v-418q0 -25 -19 -44t-44 -19h-448zM188 566q0 116 85 189q86 74 202 74t202 -74q85 -73 85 -189h-574z
M289 882q0 -2 48 -91l15 8l-49 89q-6 2 -7 2q-7 0 -7 -8zM304 75q0 27 19 45t47 18q25 0 44 -19t19 -44v-202q0 -27 -19 -45t-47 -18q-25 0 -44 19t-19 44v202zM349 734q-16 0 -28 -11.5t-12 -27.5t11.5 -28t27.5 -12q17 0 28.5 11.5t11.5 28.5q0 16 -11.5 27.5t-27.5 11.5z
M517 75q0 27 19.5 45t46.5 18q25 0 44 -19t19 -44v-202q0 -27 -19 -45t-47 -18q-26 0 -44.5 19t-18.5 44v202zM602 734q-16 0 -28 -11.5t-12 -27.5t11.5 -28t27.5 -12q17 0 28.5 11.5t11.5 28.5q0 16 -11.5 27.5t-27.5 11.5zM598 799l15 -9l48 89v2q0 9 -7 9q-6 0 -18 -18
q-11 -17 -24 -44zM809 201v268q0 26 19 45t44 19t44 -19t19 -45v-268q0 -25 -18.5 -44t-44.5 -19t-45 18.5t-18 44.5z" />
    <glyph glyph-name="uniE849" unicode="&#xe849;" horiz-adv-x="1214" 
d="M332 -150q-76 0 -145.5 17.5t-120.5 60.5t-51 104q0 87 89 155t215 68h54q-42 41 -42 86q0 30 16 58q-7 -1 -29 -1q-103 0 -170 65q-66 65 -66 160q0 92 82 159q83 68 187 68h310l-69 -50h-98q45 -17 72.5 -66.5t27.5 -112.5q0 -93 -88 -162q-36 -28 -48 -46
q-11 -17 -11 -42q0 -19 27 -48q30 -32 54 -49q60 -42 84 -88q24 -45 24 -113q0 -91 -82 -157t-222 -66zM186 -52q60 -49 145 -49q118 0 173 44q53 43 53 117q0 47 -37 88q-4 4 -40 31q-35 25 -51 35q-39 12 -77 12q-90 1 -158 -47q-67 -48 -67 -114q0 -69 59 -117zM193 624
q10 -72 57.5 -132.5t112.5 -61.5q63 -2 95.5 54.5t23.5 130.5q-9 72 -56.5 130.5t-112.5 60.5q-63 2 -96 -53t-24 -129zM748 600v50h200v200h50v-200h201v-50h-201v-201h-50v201h-200z" />
    <glyph glyph-name="uniE84A" unicode="&#xe84a;" horiz-adv-x="1292" 
d="M621 53q-67 0 -113.5 34.5t-71.5 90.5q-62 -128 -203 -128q-95 0 -157 48q-61 48 -61 138h119q5 -40 29 -64t65 -24q47 0 76 32.5t29 81.5q0 48 -28 79t-75 31q-38 0 -65 -24q-28 -25 -51 -25q-44 0 -80 2l28 161q24 132 29 164h330v-98h-243q-13 -67 -24 -134h3
q15 19 48.5 31t67.5 12q114 0 160 -103q22 57 69.5 92.5t113.5 35.5q44 0 87.5 -18t69.5 -43q24 -23 63 -66q2 -3 6 -7l7 -7q8 10 22 25l18 20q4 5 13.5 14.5t18.5 17.5l24 19q54 44 132 44q89 0 144.5 -60.5t55.5 -151.5q0 -94 -55 -156q-56 -63 -147 -63q-116 0 -226 131
q-71 -71 -81 -78q-4 -3 -17 -11l-21 -14q-44 -29 -109 -29zM530 266q0 -42 25.5 -68t67.5 -26q75 0 155 95l-29 29l-19 20q-9 9 -48 32q-34 20 -63 20q-38 0 -63.5 -31t-25.5 -71zM919 266q30 -32 47 -46.5t48 -31.5q29 -16 61 -16q42 0 67 27.5t25 70.5t-25.5 70.5
t-67.5 27.5q-43 0 -86 -33z" />
    <glyph glyph-name="uniE84B" unicode="&#xe84b;" horiz-adv-x="804" 
d="M15 491q0 129 103 240q50 54 131 86.5t177 32.5q158 0 261 -98q102 -98 102 -231q0 -172 -87 -283t-223 -111q-44 0 -84 21t-56 51l-40 -158q-20 -76 -85 -163q-3 -5 -9.5 -12.5t-9.5 -12.5q-3 -4 -8 -3t-6 6q0 5 -2.5 21t-2.5 21q-10 98 7 177q5 24 74 313
q-18 36 -18 75l-1 15q0 59 31 104t80 45q36 0 57 -24t21 -62q0 -24 -9 -57l-20 -70q-17 -56 -22 -77q-10 -45 18 -78t73 -33q58 0 101 49t62 117t19 140q0 96 -63 158q-64 62 -176 62q-126 0 -204 -81q-79 -82 -79 -194q0 -66 38 -113q6 -7 7.5 -14t1.5 -11t-3 -14.5
t-4 -15.5q-5 -20 -6 -23q-4 -24 -28 -14q-57 23 -87.5 80.5t-30.5 138.5z" />
    <glyph glyph-name="uniE84C" unicode="&#xe84c;" horiz-adv-x="1031" 
d="M31 471q33 131 125.5 227t220.5 133q141 41 270.5 2t216.5 -123q88 -86 130.5 -211t6.5 -270q-33 -131 -125.5 -227t-220.5 -133q-141 -41 -271 -2t-217 123q-88 86 -130 211t-6 270zM572 563l-44 11l22 88l-55 14l-22 -90q-13 1 -35 8l-76 19l-14 -59l39 -9
q27 -7 26 -32l-26 -103h1l2 -1q-2 0 -3 1l-36 -144q-4 -18 -25 -13l-40 10l-27 -63l72 -18q3 0 19 -5t20 -5l-23 -91l55 -14l22 90l44 -11l-22 -90l55 -13l22 91q107 -18 151 13q29 20 43 61q31 90 -51 133q60 13 70 80q13 85 -110 126l23 91l-55 13zM472 344q20 0 47 -11
q41 -12 57 -22q14 -9 21 -15t13 -20t1 -31q-7 -27 -43 -38q-22 -7 -92 7q-20 3 -34 9zM486 399l27 110q9 -3 33.5 -8.5t40.5 -12t25 -16.5q18 -18 17 -30q-3 -46 -31 -53q-26 -6 -49 -3q-43 8 -47 9q-13 4 -16 4z" />
    <glyph glyph-name="uniE84D" unicode="&#xe84d;" horiz-adv-x="1155" 
d="M743 242q0 117 -106 117h-30v36l103 178h-124l-7 -12l-152 -511h-7l-110 370l-111 -370h-7l-177 597h77l107 -363l72 244l-35 119h77l107 -363l107 363h290v-36l-109 -188q55 -19 85.5 -66t30.5 -115q0 -79 -42 -135.5t-113 -56.5q-55 0 -92 35t-54 87l60 25
q28 -73 86 -73q34 0 54 37t20 81zM833 230q24 -42 32 -53q7 -12 43 -43q63 -43 128 -13q17 8 39.5 28.5t37.5 41.5q12 19 16 28l11 -59q-18 -35 -39 -56q-22 -26 -55.5 -41t-67.5 -8q-52 9 -94 67q-19 26 -33 58zM860 425q0 62 18 114t52 80q54 45 113 -6q17 -14 37 -50
l44 87l12 -76l-44 -85q-16 34 -45 56t-64 15q-27 -6 -49.5 -32.5t-32.5 -56.5q-19 -54 -19 -106q-1 -39 5 -63q-26 50 -26 104z" />
    <glyph glyph-name="uniE84E" unicode="&#xe84e;" horiz-adv-x="1199" 
d="M276 664q87 0 154 -49.5t93 -122.5l66 64l158 -152l437 446v-405l-267 -206l34 -36l-363 -353l-316 307q-106 1 -182 76q-75 73 -75 177q0 105 77 180q75 74 184 74zM117 257q65 -63 157 -63q34 0 65 9l220 -195l585 460l1 302l-578 -596l-90 146q20 45 20 90
q0 90 -65 152q-67 64 -158 64t-157 -64q-65 -63 -65 -152q0 -90 65 -153zM100 408q0 70 49.5 119.5t119.5 49.5t119.5 -49.5t49.5 -119.5t-49.5 -119.5t-119.5 -49.5t-119.5 49.5t-49.5 119.5z" />
    <glyph glyph-name="uniE84F" unicode="&#xe84f;" horiz-adv-x="729" 
d="M15 649h699l-66 -710l-284 -81l-284 81zM80 842h45v-44h40v44h44v-133h-44v44h-40v-44h-45v133zM169 238l1 2h300l-10 -113l-96 -27l-97 28l-6 68h-88l12 -136l179 -51l179 51l25 267h-319l-8 89h335l8 88h-439zM229 842h122v-45h-39v-88h-44v88h-39v45zM370 842h47
l27 -46l28 46h47v-133h-43v68l-32 -50v1l-30 47v-66h-44v133zM542 709v133h44v-88h62v-45h-106z" />
    <glyph glyph-name="uniE850" unicode="&#xe850;" horiz-adv-x="1116" 
d="M15 -150v1000h257v-371h229l103 149l154 222h286l-328 -477q0 -13 96 -143l193 -256l96 -124h-343l-286 400h-200v-400h-257z" />
    <glyph glyph-name="uniE851" unicode="&#xe851;" horiz-adv-x="519" 
d="M15 -117q101 6 130 27q30 21 30 107v666q0 82 -30 106t-130 28v28h489v-28q-103 -5 -131 -28q-30 -24 -30 -106v-666q0 -86 30 -107t131 -27v-28h-489v28z" />
    <glyph glyph-name="uniE852" unicode="&#xe852;" horiz-adv-x="909" 
d="M15 217q0 146 95 253q106 118 266 118q68 0 125 -21q-22 -46 -27 -86q-45 19 -98 19q-111 0 -191 -83q-80 -86 -80 -202q0 -80 37.5 -144t97.5 -99q62 -36 136 -36q78 0 139 38t95 99q36 66 36 142q0 64 -22 114q45 9 85 34q27 -67 27 -146q0 -148 -101 -257
q-101 -110 -259 -110q-159 0 -260 110t-101 257zM295 -36l16 7q35 18 95 80q62 64 108 207q35 110 35 269q-2 74 -5 112l5 13q5 14 6 35v7q0 31 -7 50t-25 42q-24 28 -63 48l11 -17q10 -15 31 -67q23 -55 44 -119l9 -25q19 -60 28 -167q2 -26 2 -40q0 -100 -37 -206
q-25 -69 -77.5 -129.5t-119.5 -103.5zM570 601q5 41 23 64l18 25q10 12 37.5 25.5t49.5 19.5l21 6q32 7 64 33t46 53l13 23q56 -78 52 -186q0 -34 -6 -59l-11 -45q-10 -27 -30.5 -56t-39.5 -41l-15 -11q-35 -20 -67 -20l-109 53q141 78 198 167q12 20 14 31l2 10
q-36 -81 -110 -125q-59 -37 -108 -51l-18 -5q-25 43 -25 79q0 7 1 10z" />
    <glyph glyph-name="uniE853" unicode="&#xe853;" horiz-adv-x="676" 
d="M332 -150q-76 0 -145.5 17.5t-120.5 60.5t-51 104q0 87 89 155t215 68h54q-42 41 -42 86q0 30 16 58q-7 -1 -29 -1q-103 0 -170 65q-66 65 -66 160q0 92 82 159q83 68 187 68h310l-69 -50h-98q45 -17 72.5 -66.5t27.5 -112.5q0 -93 -88 -162q-36 -28 -48 -46
q-11 -17 -11 -42q0 -19 27 -48q30 -32 54 -49q60 -42 84 -88q24 -45 24 -113q0 -91 -82 -157t-222 -66zM186 -52q60 -49 145 -49q118 0 173 44q53 43 53 117q0 47 -37 88q-4 4 -40 31q-35 25 -51 35q-39 12 -77 12h-4q-86 0 -153 -47q-68 -48 -68 -114q0 -69 59 -117z
M193 624q10 -72 57.5 -132.5t112.5 -61.5h4q52 0 84.5 45t32.5 106q0 100 -62 168q-50 56 -109 57h-4q-53 0 -85.5 -43.5t-32.5 -105.5q0 -11 2 -33z" />
    <glyph glyph-name="uniE854" unicode="&#xe854;" horiz-adv-x="1082" 
d="M88 527q73 73 177 73t177 -73t73 -177t-73 -177t-177 -73t-177 73t-73 177t73 177zM567 350q0 104 73 177t177 73t177 -73t73 -177t-73 -177t-177 -73t-177 73t-73 177z" />
    <glyph glyph-name="uniE855" unicode="&#xe855;" horiz-adv-x="867" 
d="M15 541q0 88 88 88h94q15 0 26 11t11 26q0 29 -1 44v59q0 57 62 75q11 6 53 6h19q65 -3 100.5 -18.5t42.5 -60.5q17 1 48 1q55 0 123.5 -9.5t94.5 -19.5q43 -14 53 -67q6 -35 14.5 -164.5t8.5 -192.5q0 -44 -3 -71q-17 -173 -43 -254q-24 -74 -56 -111q-23 -27 -78 -31
q-26 -2 -59 -2q-107 0 -145 26t-38 106q0 90 42 109q31 14 87 14h28q3 0 4.5 -1.5t1.5 -5t-1 -6.5t-2.5 -6.5t-1.5 -5.5q-2 -10 -2 -13q0 -2 2 -15t1 -16q-1 -2 -7 -2h-20q-20 0 -20 -2q0 -1 -4 -1.5t-8 -1.5t-4 -3t-6 -7t-4 -9q2 -6 -1 -11q0 -21 11 -37q6 -9 40 -9h33
q57 0 73 13t16 64q0 75 -18 102t-57 32q-85 9 -119 20q-53 20 -53 119q0 2 -3 2q-2 0 -2 -2q0 -67 -18 -120l-8 -24q-10 -24 -37 -26h-6q-22 0 -54 8q-131 17 -198 47q-23 10 -37 40q-19 39 -36 128q-19 98 -23 134q-4 29 -4 51zM89 676q-34 0 -68 -16v2l183 180q0 1 1 1
q-14 -28 -14 -54q0 -49 1 -103q0 -10 -10 -10h-93zM589 370q21 3 46 3q45 -1 81 -18q0 86 -61 87h-3q-54 0 -63 -72z" />
    <glyph glyph-name="uniE856" unicode="&#xe856;" 
d="M15 350q0 144 70 256.5t179 176.5q115 67 251 67q144 0 256.5 -70t176.5 -179q67 -115 67 -251q0 -144 -70 -256.5t-179 -176.5q-115 -67 -251 -67q-144 0 -256.5 70t-176.5 179q-67 115 -67 251zM99 370q0 -2 -0.5 -10t-0.5 -10q0 -156 105 -275q47 92 152 179
q102 84 203 107q-9 22 -29 63q-171 -55 -372 -55q-45 0 -58 1zM176 451q167 0 317 45q-78 137 -167 225q-77 -39 -134 -109.5t-81 -158.5q30 -2 65 -2zM515 -67q75 0 147 28q-19 170 -78 331q-93 -20 -186 -101t-138 -170q112 -88 255 -88zM576 526q136 57 205 145
q-115 96 -266 96q-49 0 -102 -14q89 -92 163 -227zM646 374q69 7 161 7q61 0 123 -3q-7 135 -98 242q-64 -97 -220 -165q12 -25 34 -81zM671 304q51 -149 69 -304q75 49 126.5 128t62.5 176q-82 5 -133 5q-47 0 -125 -5z" />
    <glyph glyph-name="uniE857" unicode="&#xe857;" 
d="M15 350q0 206 148 354q144 146 351 146q208 0 357 -146q71 -71 107 -162q37 -87 37 -192q0 -210 -143 -351q-73 -71 -166 -111q-96 -38 -192 -38q-204 0 -352 148q-147 147 -147 352zM105 350q0 -169 123 -288q61 -61 133 -89q71 -31 155 -31q164 0 292 121
q117 114 117 287q0 86 -31 157q-30 77 -88 132q-120 121 -290 121q-171 0 -288 -120q-123 -123 -123 -290zM230 350q0 68 40.5 111.5t106.5 43.5q93 0 133 -72l-67 -35q-10 23 -27 31q-15 9 -29 9q-67 0 -67 -88q0 -38 17 -63t50 -25q44 0 62 42l62 -31q-46 -78 -132 -78
q-69 0 -109 42t-40 113zM519 350q0 68 40.5 111.5t106.5 43.5q93 0 132 -72l-66 -35q-19 40 -56 40q-67 0 -67 -88q0 -40 16.5 -64t50.5 -24q43 0 61 42l63 -31q-46 -78 -131 -78q-70 0 -110 42t-40 113z" />
    <glyph glyph-name="uniE858" unicode="&#xe858;" horiz-adv-x="1026" 
d="M15 534q0 130 93 223t223 93h221q64 -8 138 -57q74 -50 105 -115q22 -45 29 -108q9 -69 26 -85q13 -13 71 -15t65 -7l14 -11l8 -17l3 -14l-2 -256q-1 -130 -93 -223q-91 -92 -222 -92h-363q-131 0 -223 92q-93 93 -93 223v369zM274 170q0 -25 18 -42.5t43 -17.5h356
q25 0 42.5 17.5t17.5 42.5t-17.5 42.5t-42.5 17.5h-356q-25 0 -43 -17.5t-18 -42.5zM274 532q0 -25 18 -43t43 -18h175q25 0 42.5 18t17.5 43t-17.5 42.5t-42.5 17.5h-175q-25 0 -43 -17.5t-18 -42.5z" />
    <glyph glyph-name="uniE859" unicode="&#xe859;" horiz-adv-x="890" 
d="M733 328q-2 -77 38 -132.5t104 -79.5q-69 -148 -150 -225q-41 -39 -91 -41q-31 0 -76 22q-46 20 -91 20h-4q-47 0 -95 -21t-78 -21q-84 2 -172 137q-58 89 -83 184q-20 78 -20 144q0 24 1 36q13 156 140 231q59 34 114 34q39 0 102 -22q60 -21 90 -21q29 0 86 21
q60 22 105 22q112 0 192 -102q-45 -25 -76.5 -67t-35.5 -95v-24zM431 609q-3 15 -3 30q0 64 53 129q25 31 67 54.5t85 27.5q2 -20 2 -30q0 -68 -50 -132q-26 -33 -66.5 -56.5t-83.5 -22.5h-4z" />
    <glyph glyph-name="uniE85A" unicode="&#xe85a;" horiz-adv-x="794" 
d="M207 46q0 2 0.5 10.5t0.5 10.5q-133 69 -180 215q-13 40 -13 56v103q0 87 86 200q87 114 171 160q79 44 187 44q95 0 174 -41q40 -21 66 -57.5t26 -85.5q0 -50 -32 -91q-6 -7 -13 -17t-18 -21q-21 -21 -36 -34q-10 -9 -17 -16h168q2 -96 2 -108q0 -252 -42 -326
q-34 -59 -93.5 -107t-128.5 -71q-39 -15 -56 -15h-84q-2 0 -48 17q-120 52 -120 174zM161 468q0 -84 38 -160q18 -37 51.5 -61.5t77.5 -24.5q13 0 40 15t49 15q14 0 51 -10.5t37 -19.5q0 -21 -26 -21q-130 0 -130 -76q0 -57 41 -87t104 -30q51 0 95.5 18t69.5 48
q42 50 42 164q0 10 -1 55t-1 55q0 45 5 80h-193q-1 -5 -1 -23q0 -7 1 -35t1 -34q0 -34 -8 -56q-3 -1 -17 -1q-46 0 -78.5 31.5t-45.5 75.5q-12 42 -12 89q0 108 55 175q32 38 77 38q11 0 21 -3q-4 -20 -4 -34q0 -36 19 -58.5t53 -22.5t57 23t23 58q0 40 -30.5 69.5
t-70.5 40.5q-41 11 -79 11q-135 0 -223 -85t-88 -219z" />
    <glyph glyph-name="uniE85B" unicode="&#xe85b;" horiz-adv-x="1152" 
d="M15 524q0 13 13 13h176v129q0 14 13 14h98v-514q0 -14 -12 -14h-288v372zM191 235q13 0 13 14v206h-67q-13 0 -13 -14v-206h67zM349 524q0 13 13 13h98v-371q0 -14 -12 -14h-99v372zM349 666q0 14 12 14h99v-69q0 -14 -12 -14h-99v69zM498 524q0 13 13 13h288v-504
q0 -13 -13 -13h-288l1 69q0 14 12 14h176v49h-189v372zM675 235q12 0 12 14v206h-67q-12 0 -12 -14v-206h67zM850 103h176v49h-189v372q0 13 13 13h287v-504q0 -13 -12 -13h-288v69q0 14 13 14zM946 235h67q13 0 13 14v206h-67q-13 0 -13 -14v-206z" />
    <glyph glyph-name="uniE85C" unicode="&#xe85c;" horiz-adv-x="864" 
d="M15 -150l417 1000l417 -1000h-369v135l170 85l-13 55l-157 -79v67l98 52l-14 57l-84 -45v87h-92v-157l-86 59l-16 -64l102 -70v-182h-373z" />
    <glyph glyph-name="uniE85D" unicode="&#xe85d;" horiz-adv-x="1250" 
d="M131 -40q0 8 -4 32h-13q-8 0 -10.5 7t1 13.5t11.5 6.5h8l-6 54q-3 18 -25 195q-20 164 -34.5 250.5t-43.5 191.5q-1 5 1 8.5t7 6t10 3.5t12.5 2t11.5 2q13 3 28 6q0 10 1 49t1 49q1 12 13 12q14 0 14 -14q-2 -80 -2 -91q21 4 59.5 12.5t65.5 12.5q41 7 56 10
q402 69 794 72q14 0 12 -15q0 -6 -2 -33t-2 -33q14 -1 128 -11q5 0 9 -4.5t3 -9.5l-68 -412l-68 -413l76 -12q10 -2 11 -14.5t-11 -12.5h-3q-8 1 -39 6.5t-39 6.5q-4 -43 -19 -43h-4q-297 75 -600 117q-134 2 -149 2q-19 0 -165 -2v-1q1 -1 1 -2q1 -6 -4 -10.5t-11 -4.5
q-10 0 -12 11zM88 501q-3 71 -3 209q-13 -1 -40 -8q19 -72 43 -201zM1010 -43q1 12 28.5 394.5t33.5 471.5q-473 -5 -960 -107q-2 -52 0 -105q2 -271 32 -533q2 -16 9 -60q40 -2 195 -13.5t179 -12.5q346 -19 483 -35zM355 294q-66 0 -108.5 43.5t-42.5 110.5q0 74 51 126
q51 53 129 53q85 0 132 -59.5t47 -153.5q0 -133 -67 -212.5t-191 -88.5q-30 -2 -57 -2v75q16 -2 52 2q67 6 111 46t55 103h-2q-40 -43 -109 -43zM379 556q-37 0 -59 -29.5t-22 -72.5q0 -40 22.5 -66t59.5 -26q56 0 81 42q5 12 5 26q1 54 -20.5 90t-65.5 36h-1zM387 -23
l469 -50q142 -31 209 -48l3 18q-338 54 -681 80zM730 294q-66 0 -108.5 43.5t-42.5 110.5q0 72 52 126q51 53 129 53q84 0 131 -60t47 -153q0 -133 -67 -212.5t-191 -88.5q-30 -2 -57 -2v75q16 -2 52 2q67 6 111 46t55 103h-1q-40 -43 -110 -43zM754 556q-37 0 -59 -30
t-22 -72q0 -40 22.5 -66t59.5 -26q55 0 81 42q5 12 5 26q1 54 -20.5 90t-65.5 36h-1zM1030 -70q29 -5 43 -6q8 46 63 384l70 425q-80 7 -113 9l-58 -802q0 -5 -4 -9q-1 0 -1 -1z" />
    <glyph glyph-name="uniE85E" unicode="&#xe85e;" 
d="M15 350q0 144 70 256.5t179 176.5q115 67 251 67q144 0 256.5 -70t176.5 -179q67 -115 67 -251q0 -144 -70 -256.5t-179 -176.5q-115 -67 -251 -67q-144 0 -256.5 70t-176.5 179q-67 115 -67 251zM144 350q0 -40 12 -58t41 -23q40 -1 85 40q94 83 68 290q-2 16 -2 17
q-4 8 0 9.5t13 -1.5q95 -25 180 -99q72 -62 167 -193q41 -57 88 -77q56 -19 76 13q20 31 20 82q0 115 -61 208q-49 74 -130.5 121.5t-182.5 47.5q-68 0 -125 -22q-79 -28 -140 -89.5t-89 -141.5q-2 -15 -9 -28q-12 -51 -11 -96z" />
    <glyph glyph-name="uniE85F" unicode="&#xe85f;" horiz-adv-x="1066" 
d="M15 730q0 51 36 83t90 32t89 -32.5t35 -85.5q0 -50 -36 -81.5t-90 -31.5h-1q-53 0 -88 32.5t-35 83.5zM28 523h222v-668h-222v668zM373 -145h222v373q0 33 8 54q34 81 114 81q112 0 112 -151v-357h222v383q0 138 -65.5 219.5t-189.5 81.5q-129 0 -201 -111v-2h-1l1 2v95
h-222q2 -42 2 -199q0 -67 -2 -469z" />
    <glyph glyph-name="uniE860" unicode="&#xe860;" horiz-adv-x="1371" 
d="M90 325q0 -5 2.5 -26t2.5 -25l-1 -12q-30 -15 -52 -15q-8 0 -10 1q-17 57 -17 142q0 11 2 105q26 8 48 8h18q18 -25 40 -70q19 -40 31 -61q2 5 9 39.5t9 39.5q19 63 26 77q10 18 20 31q32 -5 46 -5q8 0 11 1q24 -54 45 -163q19 -98 39 -155q-3 0 -7 2q-5 0 -26 -6t-22 -6
q-38 94 -62 203q-15 -26 -15 -89q0 -61 -11 -88l-5 2q-5 0 -22 -2t-21 -2h-18q-28 50 -57 89q-3 -6 -3 -15zM460 206q-45 0 -67.5 29.5t-22.5 78.5q0 67 36 114q20 27 47 27q5 0 27 -5.5t24 -5.5q9 -40 9 -81q0 -28 -6 -55q-6 2 -37.5 4t-37.5 4q-5 -22 -5 -37
q0 -22 10.5 -37.5t29.5 -15.5q5 0 26 5t26 5q17 0 23 -14q-41 -16 -82 -16zM436 343q2 0 8 -2t7 -2l7 3q2 18 2 22q0 15 -5 40q-23 -26 -27 -62zM586 281q0 -21 17 -37t39 -16q26 0 41 23q18 -6 21 -17q-22 -21 -63 -21q-36 0 -70 20q-33 19 -33 55q0 124 78 182
q31 -3 60 -23q0 -5 -6.5 -60.5t-6.5 -71.5v-14q-26 -2 -29 -2q-5 0 -43 5q-5 -13 -5 -23zM620 413l-10 -23q-7 -18 -11.5 -32t-4.5 -27q4 -6 14 -6h9q9 19 9 49q0 14 -6 39zM770 219q0 12 -3.5 61t-3.5 57q-6 1 -32 3q-24 1 -38 10q-2 26 23 26q3 0 17.5 -1t17.5 -1
q3 15 3 31q0 17 -7.5 87t-7.5 86q0 45 10 72q4 -3 27 -6q22 -3 40 -24q-6 -26 -6 -67q0 -8 3 -66t3 -76q0 -25 -1 -34h6q11 0 11 19q0 6 4 6q9 0 18 -8l38 -38q-9 -8 -40 -9q-25 -1 -39 -4q-1 -8 -1 -36q0 -16 1.5 -52t1.5 -52q-4 0 -22.5 -1.5t-22.5 -2.5v20zM1090 384
q0 -2 0.5 -10t0.5 -9q0 -13 -2 -24t-7.5 -23t-8.5 -18t-11 -19l-11 -16q-14 -11 -34 -42q-20 -7 -38 -7q-71 0 -71 142q0 8 2 58q10 -1 20 -5t22.5 -11t16.5 -9l-1 -27q0 -59 9 -116q18 7 29.5 21t16.5 38t6.5 41.5t2.5 50.5v11q2 -1 9 -1q19 -1 49 -25zM1132 260q0 5 1 9
q14 128 41 175q13 23 36.5 40t52.5 17q34 0 76 -24q17 -39 17 -75q0 -68 -48 -120.5t-111 -66.5q-2 -42 -2 -48q0 -73 18 -117q-10 2 -37 2q-12 0 -22 2q-8 19 -16 96q-7 74 -30 100q7 5 24 10zM1198 275q37 9 64.5 46.5t27.5 80.5q0 30 -15 56q-19 -17 -37 -51.5t-26 -64.5
q-8 -36 -14 -67z" />
    <glyph glyph-name="uniE861" unicode="&#xe861;" horiz-adv-x="893" 
d="M15 825q121 21 297 21q138 0 233.5 -23t167.5 -78q165 -125 165 -370q0 -260 -161 -395q-149 -126 -451 -126q-139 0 -251 14v957zM235 30q17 -4 77 -4h4q159 0 244 89t85 252q0 151 -80 230.5t-230 79.5q-65 0 -100 -9v-638z" />
    <glyph glyph-name="uniE862" unicode="&#xe862;" 
d="M15 -16q0 55 39 94t94 39t94 -39t39 -94t-39 -94t-94 -39t-94 39t-39 94zM15 510q189 0 338 -92.5t233 -236.5q89 -152 89 -331h-192q0 194 -137 331q-138 138 -331 138v191zM15 658v192q211 0 394.5 -82t312.5 -211t211 -312.5t82 -394.5h-192q0 171 -66.5 320
t-170.5 252q-104 104 -252 170t-319 66z" />
    <glyph glyph-name="uniE863" unicode="&#xe863;" horiz-adv-x="1016" 
d="M95 770q80 80 193 80q78 0 145 -42q34 7 80 7q195 0 333 -138t138 -332q0 -46 -11 -101q28 -57 28 -121q0 -113 -80 -193t-193 -80q-67 0 -129 32q-48 -8 -86 -8q-194 0 -332 138t-138 333q0 47 9 94q-37 64 -37 138q0 113 80 193zM236 211q0 -41 30 -85
q71 -104 246 -104q104 0 184 45q41 22 66 63t25 95q0 57 -29 97.5t-74 58.5q-83 34 -191 55q-103 19 -103 71q0 33 36 49q35 16 75 16q76 0 104 -42q5 -7 15 -24.5t16.5 -27t21 -18t32.5 -8.5q27 0 47.5 19t20.5 46t-15 54q-29 54 -95 80q-63 25 -138 25q-96 0 -172 -38
q-89 -45 -89 -143q0 -64 38.5 -105t98.5 -58q63 -18 114 -29q58 -12 98 -33t40 -59q0 -28 -23 -48.5t-51 -27.5q-25 -7 -56 -7q-76 0 -103 38q-21 28 -41 70q-18 37 -59 37q-28 0 -48.5 -17.5t-20.5 -44.5z" />
    <glyph glyph-name="uniE864" unicode="&#xe864;" horiz-adv-x="1260" 
d="M15 -37q30 -3 60 -3q176 0 314 108q-84 1 -148.5 51.5t-87.5 123.5q17 -4 47 -4q36 0 67 9q-85 16 -144 85t-59 162v3q52 -29 115 -31q-49 32 -81 87t-32 123t35 127q89 -112 223 -183.5t297 -80.5q-7 31 -7 58q0 104 74 178t179 74q109 0 184 -80q85 18 160 62
q-28 -91 -110 -140q75 9 144 40q-48 -75 -125 -131v-33q0 -212 -120 -396q-131 -202 -346 -280q-117 -42 -252 -42q-208 0 -387 113z" />
    <glyph glyph-name="uniE865" unicode="&#xe865;" horiz-adv-x="893" 
d="M21 285q4 53 38 86.5t87 36.5q112 5 301 5t301 -5q53 -3 87 -36.5t38 -86.5q5 -100 5 -162t-5 -162q-4 -53 -38 -86.5t-87 -36.5q-112 -5 -301 -5t-301 5q-53 3 -87 36.5t-38 86.5q-6 108 -6 162t6 162zM143 264v-326h59v326h61v55h-181v-55h61zM147 867h60l38 -152h4
l36 152h60l-46 -148l-13 -39l-8 -28l-2 -8v-158h-59v151q-2 12 -6 25.5t-9.5 28.5t-7.5 23zM299 -66q32 0 61 35v-31h52v281h-52v-214q-21 -21 -31 -21q-14 0 -14 19v216h-52v-237q0 -48 36 -48zM418 479q-35 0 -55.5 21.5t-20.5 56.5v146q0 33 21.5 52t56.5 19
q33 0 53.5 -20t20.5 -53v-145q0 -36 -20 -56.5t-56 -20.5zM418 726q-9 0 -15.5 -5.5t-6.5 -14.5v-156q0 -23 22 -23q23 0 23 25v153q0 9 -7 15t-16 6zM516 -62v21q19 -25 50 -25q47 0 47 62v156q0 71 -51 71q-25 0 -46 -27v123h-53v-381h53zM516 167q11 11 22 11
q22 0 22 -28v-148q0 -24 -19 -24q-15 0 -25 13v176zM539 767h52v-215q0 -19 14 -19q13 0 31 21v213h52v-281h-52v31q-29 -35 -61 -35q-36 0 -36 48v237zM653 17q0 -39 19.5 -63t56.5 -24q78 0 78 87v21h-54v-11v-12q0 -4 -0.5 -11t-2 -10.5t-4 -7.5t-6.5 -5.5t-10 -1.5
q-23 0 -23 40v53h100v72q0 82 -75 82q-36 0 -57.5 -23t-21.5 -59v-127zM707 116v30q0 31 23 31t23 -31v-30h-46z" />
    <glyph glyph-name="uniE866" unicode="&#xe866;" horiz-adv-x="1176" 
d="M15 578q140 166 278 236q35 19 48 22l17 4q16 2 24 2q23 0 40.5 -8t30 -24t19.5 -29t16 -35q20 -49 39 -159.5t26 -139.5q31 -125 51 -177q20 -53 42 -53q24 0 66 55q44 59 94 152q26 49 26 91t-20 67t-57 25q-34 0 -83 -26q22 130 134 209q86 60 174 60q123 0 163 -91
q18 -37 18 -88q0 -29 -6 -61q-18 -100 -69.5 -207t-113.5 -189q-52 -69 -123.5 -145t-132.5 -127q-46 -38 -90 -68q-42 -24 -78 -24q-68 0 -126 69q-24 29 -38 57q-20 41 -98 298q-80 262 -96 281q-3 6 -16 8.5t-26 0.5q-34 -7 -86 -47z" />
    <glyph glyph-name="uniE867" unicode="&#xe867;" horiz-adv-x="1263" 
d="M120 328q28 16 78 29t91 15l34 1q53 0 104 -10q99 -19 144 -61l-104 -370q-28 22 -70.5 42t-77.5 24l-26 4q-35 3 -65 3q-54 0 -118.5 -13.5t-94.5 -34.5zM246 805q28 16 79 29.5t91 14.5l33 1q54 0 104 -10q99 -19 144 -61l-104 -371q-28 22 -70.5 42t-77.5 24l-26 4
q-35 3 -64 3q-55 0 -119.5 -13t-94.5 -34zM676 292q30 -22 72.5 -42t76.5 -24l25 -4q34 -3 65 -3q54 0 119 13t94 34l-104 -371q-28 -16 -79 -28.5t-91 -14.5l-33 -2q-54 0 -104 10q-100 19 -145 61zM692 396l104 370q30 -22 72.5 -42t76.5 -24l25 -4q34 -3 65 -3
q54 0 118.5 13t94.5 34l-104 -370q-29 -16 -80 -29.5t-91 -14.5l-33 -2q-72 0 -144 20.5t-104 51.5z" />
    <glyph glyph-name="uniE868" unicode="&#xe868;" horiz-adv-x="970" 
d="M15 152l173 286l-130 229h219l130 -229l-173 -286h-219zM377 242l346 608h232l-345 -608l222 -392h-232z" />
    <glyph glyph-name="uniE869" unicode="&#xe869;" horiz-adv-x="1405" 
d="M456 17q8 3 8 17v192q0 12 -11 25l-287 344h-111l-19 10l-2 2q-1 1 -13 15l-6 19v8q1 5 10 7h492q6 0 6 -7v-14q0 -15 -10 -15l-68 -21q-11 -5 -22 -4h-41l228 -291l207 195h-115l-18 7l-23 23l-2 4q-9 9 -7 22l7 6h438q4 0 6 -6v-14q0 -11 -6 -18l-17 -19q-8 -7 -18 -7
h-133q-236 -221 -267 -252q-9 -9 -7 -14v-202q0 -15 9 -15h146q7 0 7 -7v-57h-516v55q0 9 10 9q30 3 142 3h3zM1205 750l185 -7l-83 -567l-61 3zM1218 -13l4 110l110 -4l-4 -110z" />
    <glyph glyph-name="uniE86A" unicode="&#xe86a;" horiz-adv-x="1027" 
d="M763 849q103 0 176 -72.5t73 -175.5v-502q0 -103 -73 -175.5t-176 -72.5h-499q-103 0 -176 72.5t-73 175.5v502q0 103 73 175.5t176 72.5h499zM920 99v324h-187q22 -47 22 -100q0 -98 -69 -167t-167 -69t-167.5 69t-69.5 167q0 53 22 100h-197v-324q0 -65 46 -110.5
t111 -45.5h499q65 0 111 45.5t46 110.5zM420 323q0 -40 29 -69t70 -29t69.5 28.5t28.5 69.5t-28.5 69.5t-69.5 28.5t-70 -29t-29 -69zM920 515v86q0 65 -46 110.5t-111 45.5h-499q-65 0 -111 -45.5t-46 -110.5v-86h275q64 44 137 44t137 -44h264zM820 701q11 0 19 -8t8 -19
v-86q0 -11 -8 -19t-19 -8h-86q-11 0 -19 8t-8 19v86q0 11 8 19t19 8h86z" />
    <glyph glyph-name="uniE86B" unicode="&#xe86b;" horiz-adv-x="1029" 
d="M618 339q0 -41 -29 -69.5t-69 -28.5q-41 0 -70 29t-29 69t29 69t70 29q40 0 69 -28.5t29 -69.5zM764 849q104 0 177 -72.5t73 -175.5v-69h-357q-62 43 -137 43q-76 0 -138 -43h-367v69q0 103 73 175.5t177 72.5h499zM866 613v85q0 11 -8.5 19.5t-19.5 8.5h-86
q-11 0 -19.5 -8.5t-8.5 -19.5v-85q0 -11 8.5 -19.5t19.5 -8.5h86q11 0 19.5 8.5t8.5 19.5zM757 339q0 51 -23 100h280v-340q0 -103 -73 -175.5t-177 -72.5h-499q-104 0 -177 72.5t-73 175.5v340h290q-23 -49 -23 -100q0 -97 70 -166.5t168 -69.5t167.5 69t69.5 167z" />
    <glyph glyph-name="uniE86C" unicode="&#xe86c;" horiz-adv-x="1233" 
d="M652 426q-3 0 -3 -2l-2 -276q0 -3 2 -3h564q3 0 3 3q2 137 -77 228.5t-218.5 132t-332.5 36.5q-2 0 -2 -2v-56q0 -3 2 -3q42 3 87.5 0t89 -7.5t84.5 -21.5t75.5 -42t61.5 -69t41 -103l-245 2v170q0 2 -2 2q-58 17 -128 11zM655 421q69 4 121 -10v-171q0 -3 3 -3l252 -2
q3 0 3 4q-16 72 -53 122t-77.5 75.5t-101 38t-104.5 14.5t-106 1v49q291 4 455.5 -93t162.5 -295h-557zM652 424q75 3 127 -11v-173l252 -2q-15 60 -42 105t-61.5 70.5t-76.5 43t-86 23t-89.5 8.5t-87.5 -1v56q298 4 464 -95t161 -300h-564zM452 468l4 -229h-241
q23 96 76 154t161 75zM452 528q-102 -13 -180 -44t-124 -69.5t-76 -87t-41.5 -92t-12.5 -88.5q0 -3 2 -3h569q3 0 3 4v495q0 3 -3 3h-135q-4 0 -4 -3zM456 640h130v-490h-562q2 58 21.5 110.5t63 108t131.5 96t210 57.5l2 -48q-111 -18 -165.5 -78t-77.5 -159q0 -4 2 -4h249
q2 0 2 2zM454 643h135v-495l-569 -1q2 45 13 87.5t40.5 91.5t76 86.5t124.5 68t180 44.5l1 -53q-112 -17 -166.5 -77t-77.5 -160h249z" />
    <glyph glyph-name="uniE86D" unicode="&#xe86d;" horiz-adv-x="1251" 
d="M1238 -50h-1224v900h1224v-900zM1130 58v684h-1008v-684h1008zM1022 562q0 -30 -21.5 -51t-51 -21t-50.5 21t-21 51t21 51t50.5 21t51 -21t21.5 -51zM1060 136q2 -1 0.5 -3.5t-2.5 -2.5h-861q-3 0 -3 4v1q42 81 251 521q2 7 6 1l280 -347l137 110h6l1 -2q34 -43 92 -140
q60 -100 93 -142z" />
    <glyph glyph-name="uniE86E" unicode="&#xe86e;" horiz-adv-x="1088" 
d="M1075 432q0 -124 -76.5 -217.5t-188.5 -144.5q-124 -56 -266 -56q-110 0 -211 35l2 -3l-321 -96q40 54 63 113q24 59 28 96l4 34q-95 107 -95 239q0 125 75.5 218t187.5 144q123 56 267 56q147 0 269 -57.5t191 -150.5q71 -95 71 -210zM850 432q0 26 -19.5 45t-45.5 19
q-25 0 -44.5 -19t-19.5 -45t19 -45t45 -19q27 0 46 18.5t19 45.5zM625 432q0 26 -19.5 45t-45.5 19q-25 0 -44.5 -19t-19.5 -45t19 -45t45 -19q27 0 46 18.5t19 45.5zM400 432q0 26 -19.5 45t-45.5 19q-25 0 -44.5 -19t-19.5 -45t19 -45t45 -19q27 0 46 18.5t19 45.5z" />
    <glyph glyph-name="uniE86F" unicode="&#xe86f;" horiz-adv-x="1050" 
d="M1037 760v-479q0 -36 -27 -63t-63 -27h-151v-241l-241 241h-451q-37 0 -63.5 27t-26.5 63v479q0 36 26.5 63t63.5 27h843q36 0 63 -27t27 -63z" />
    <glyph glyph-name="uniE870" unicode="&#xe870;" horiz-adv-x="1251" 
d="M1238 -50h-1224v900h1224v-900zM770 310v69h-287v-69h287zM158 379l285 122v86l-285 121v-89l188 -76l-188 -75v-89z" />
    <glyph glyph-name="uniF0CA" unicode="&#xf0ca;" 
d="M15 64q0 44 31.5 75.5t75.5 31.5t75.5 -31.5t31.5 -75.5t-31.5 -75.5t-75.5 -31.5t-75.5 31.5t-31.5 75.5zM15 350q0 44 31.5 75.5t75.5 31.5t75.5 -31.5t31.5 -75.5t-31.5 -75.5t-75.5 -31.5t-75.5 31.5t-31.5 75.5zM15 636q0 44 31.5 75.5t75.5 31.5t75.5 -31.5
t31.5 -75.5t-31.5 -75.5t-75.5 -31.5t-75.5 31.5t-31.5 75.5zM319 -7q-7 0 -12.5 5.5t-5.5 12.5v107q0 8 5.5 13t12.5 5h678q7 0 12.5 -5t5.5 -13v-107q0 -7 -5.5 -12.5t-12.5 -5.5h-678zM319 279q-18 0 -18 17v108q0 17 18 17h678q18 0 18 -17v-108q0 -17 -18 -17h-678z
M301 582v107q0 7 5.5 12.5t12.5 5.5h678q7 0 12.5 -5.5t5.5 -12.5v-107q0 -8 -5.5 -13t-12.5 -5h-678q-7 0 -12.5 5t-5.5 13z" />
    <glyph glyph-name="uniF0CB" unicode="&#xf0cb;" horiz-adv-x="1022" 
d="M117 493q41 0 69 -23.5t28 -62.5q0 -27 -18.5 -50.5t-42.5 -36.5q-25 -15 -42 -28q-20 -15 -20 -30h71v34h58v-89h-202q-3 19 -3 30q0 36 17 60t52 48.5t44 32.5q13 12 13 25q0 29 -30 29q-26 0 -45 -32l-48 33q13 27 38.5 43.5t60.5 16.5zM219 -54q0 -44 -30 -70
t-76 -26q-59 0 -96 37l32 49q26 -25 59 -25q17 0 28.5 8.5t11.5 23.5q0 35 -58 31l-15 31q59 73 63 76v1q-5 0 -27 -1t-27 -1v-29h-60v85h186v-49l-53 -65q27 -6 44.5 -26t17.5 -50zM94 620v135v7h-1q-5 -10 -28 -30l-39 42l75 71h60v-225h60v-56h-187v56h60zM310 -7
q-8 0 -13 5.5t-5 12.5v107q0 8 5 13t13 5h679q7 0 12.5 -5t5.5 -13v-107q0 -7 -5.5 -12.5t-12.5 -5.5h-679zM310 279q-18 0 -18 17v108q0 17 18 17h679q18 0 18 -17v-108q0 -17 -18 -17h-679zM292 582v107q0 7 5 12.5t13 5.5h679q7 0 12.5 -5.5t5.5 -12.5v-107
q0 -8 -5.5 -13t-12.5 -5h-679q-8 0 -13 5t-5 13z" />
    <glyph glyph-name="uniF0CC" unicode="&#xf0cc;" 
d="M33 279q-18 0 -18 17v36q0 8 5.5 13t12.5 5h964q7 0 12.5 -5t5.5 -13v-36q0 -17 -18 -17h-964zM285 386q-23 28 -39.5 70t-16.5 79q0 101 75 173q74 71 219 71q72 0 192 -38q6 -21 12 -66q8 -74 8 -102q0 -10 -3 -25l-7 -2l-46 4l-8 1q-29 83 -58 114q-49 51 -117 51
q-59 0 -99 -31t-40 -83q0 -41 37 -78q38 -38 156 -72q30 -9 77 -29.5t72 -36.5h-414zM246 79v38l1 20v25l57 1q10 -23 29 -71q14 -36 52 -67q53 -44 132 -44q68 0 120 37.5t52 97.5q0 46 -45 87q-18 15 -77 40h230q4 -20 4 -51q0 -112 -63 -177q-22 -20 -61 -45
q-46 -28 -87.5 -38.5t-110.5 -10.5q-66 0 -109 13l-78 23q-31 9 -40 15q-5 5 -5 12v8q0 69 -1 87z" />
    <glyph glyph-name="uniF0CD" unicode="&#xf0cd;" horiz-adv-x="887" 
d="M15 -25q0 7 5.5 12.5t12.5 5.5h821q8 0 13 -5.5t5 -12.5v-36q0 -7 -5 -12.5t-13 -5.5h-821q-7 0 -12.5 5.5t-5.5 12.5v36zM15 777h22q23 0 86 -3t69 -3q16 0 176 5q37 0 48 1l-1 -8l1 -36v-5q-37 -5 -69 -5q-33 0 -44 -14q-7 -7 -7 -73v-33l1 -127l8 -157q6 -123 82 -164
q50 -26 98 -26q104 0 162 44q48 36 66 99q12 40 12 128q0 38 -2.5 74.5t-7 81.5t-6.5 73l-2 33q-3 38 -13 49q-19 19 -43 19l-56 -1l-8 2l1 48h47l114 -6q42 -2 110 6l10 -2q3 -21 3 -28q0 -1 -0.5 -3.5t-1 -6t-0.5 -7.5q-34 -8 -47 -8q-41 -6 -44 -9q-8 -8 -8 -23
q0 -2 0.5 -15.5t0.5 -16.5q6 -13 13 -221q3 -109 -9 -170q-9 -49 -28 -78t-57 -59q-90 -68 -244 -68q-182 0 -258 94q-35 42 -47 109q-9 45 -9 132v186q0 105 -9 119q-14 20 -82 22q-24 2 -25 2z" />
    <glyph glyph-name="uniF0E5" unicode="&#xf0e5;" 
d="M111 -150q-18 0 -24 21v1q-5 7 11 27l25 28q17 19 30 35.5t21 32.5q21 42 30 75q-87 50 -138 123t-51 157q0 97 67 179q65 81 180.5 129.5t252.5 48.5t252.5 -48.5t180.5 -129.5q67 -82 67 -179t-67 -179q-65 -81 -180.5 -129.5t-252.5 -48.5q-44 0 -81 4
q-111 -97 -257 -135q-27 -8 -63 -12h-3zM86 350q0 -63 40 -119q39 -55 113 -98l48 -28l-15 -54q-14 -51 -39 -96q81 33 154 96l24 21l31 -3q43 -5 73 -5q115 0 214 39.5t156 104.5q59 67 59 142t-59 142q-57 65 -156 104.5t-214 39.5q-114 0 -213.5 -39.5t-156.5 -104.5
q-59 -67 -59 -142z" />
    <glyph glyph-name="uniF0F4" unicode="&#xf0f4;" horiz-adv-x="1066" 
d="M158 -79q-58 0 -100.5 42.5t-42.5 100.5h1000q0 -58 -42.5 -100.5t-100.5 -42.5h-714zM283 136q-51 0 -88 37t-37 88v410q0 14 11 25t25 11h642q89 0 152 -63t63 -151q0 -89 -63 -152q-62 -62 -152 -62h-35v-18q0 -51 -37 -88t-88 -37h-393zM801 386h35q44 0 76 31.5
t32 75.5t-32 75.5t-76 31.5h-35v-214z" />
    <glyph glyph-name="uniF0F5" unicode="&#xf0f5;" horiz-adv-x="816" 
d="M86 356q-30 10 -50.5 38t-20.5 63v357q0 14 11 25t25 11t24.5 -11t10.5 -25v-232q0 -14 11 -25t25 -11t25 11t11 25v232q0 14 11 25t25 11t24.5 -11t10.5 -25v-232q0 -14 11 -25t25 -11t25 11t11 25v232q0 14 10.5 25t24.5 11t25 -11t11 -25v-357q0 -35 -20.5 -63
t-50.5 -38v-435q0 -28 -21.5 -49.5t-50.5 -21.5h-71q-29 0 -50.5 21.5t-21.5 49.5v435zM444 225v446q0 73 52.5 126t125.5 53h143q14 0 25 -11t11 -25v-893q0 -28 -21.5 -49.5t-50.5 -21.5h-71q-29 0 -50.5 21.5t-21.5 49.5v286h-125q-17 0 -17 18z" />
    <glyph glyph-name="uniF300" unicode="&#xf300;" horiz-adv-x="950" 
d="M635 286q28 0 46 -27.5t18 -62.5t-18 -62.5t-46 -27.5q-30 0 -48 27.5t-18 62.5t18 62.5t48 27.5zM475 -40q-8 0 -43.5 1t-42.5 1q-110 0 -180 29q-37 15 -74.5 44.5t-59.5 61.5q-60 84 -60 229q0 114 74 194q-8 5 -1 80t33 140q93 -11 228 -104q47 12 126 12
q84 0 126 -12q63 43 119 68q57 25 83 30l26 6q26 -65 33 -140t-1 -80q74 -80 74 -194q0 -203 -124 -294q-37 -26 -67 -39.5t-76 -21.5q-53 -9 -107 -9q-7 0 -42.5 -1t-43.5 -1zM477 356h-4q-21 0 -85 4.5t-78 4.5q-77 3 -119 -35q-52 -46 -52 -120q0 -124 84 -164
q83 -40 250 -40h4q167 0 251 40q85 40 85 164q0 55 -34 99.5t-85 52.5q-37 6 -113 0q-77 -6 -104 -6zM317 286q28 0 46 -27.5t18 -62.5t-18 -62.5t-46 -27.5q-30 0 -48 27.5t-18 62.5t18 62.5t48 27.5z" />
    <glyph glyph-name="uniF301" unicode="&#xf301;" horiz-adv-x="990" 
d="M578 358q-9 0 -41 -2t-42 -2t-42 2t-41 2q-38 0 -61 -18q-26 -26 -26 -60q0 -65 43 -84q45 -20 127 -20t127 20q43 19 43 84q0 34 -26 60q-23 18 -61 18zM447 272q0 -17 -9 -31.5t-23 -14.5t-23 14.5t-9 31.5q0 46 32 46t32 -46zM609 272q0 -17 -10 -31.5t-24 -14.5
t-23 14.5t-9 31.5q0 46 32 46q15 0 24.5 -14t9.5 -32zM835 690q140 -140 140 -340q0 -197 -140 -339q-139 -141 -340 -141q-198 0 -339 141t-141 339q0 200 141 340q142 140 339 140q200 0 340 -140zM539 154q188 0 188 184q0 55 -38 98q4 4 1 41q-3 35 -17 71
q-44 -6 -114 -52q-19 6 -64 6q-40 0 -64 -6q-52 34 -100 50l-14 2q-14 -36 -17 -71q-3 -37 1 -41q-38 -43 -38 -98q0 -184 188 -184h88z" />
    <glyph glyph-name="uniF303" unicode="&#xf303;" horiz-adv-x="930" 
d="M211 550q82 0 139 -58.5t57 -141.5t-58 -141q-59 -59 -138 -59t-138 59q-58 58 -58 141t57 141.5t139 58.5zM719 150q-79 0 -138 59q-58 58 -58 141t57 141.5t139 58.5t139 -58.5t57 -141.5t-58 -141q-59 -59 -138 -59z" />
    <glyph glyph-name="uniF304" unicode="&#xf304;" horiz-adv-x="990" 
d="M835 690q140 -140 140 -340q0 -197 -140 -339q-139 -141 -340 -141q-198 0 -339 141t-141 339q0 200 141 340q142 140 339 140q200 0 340 -140zM367 250q40 0 70 30t30 70q0 41 -30 71.5t-70 30.5t-70 -30.5t-30 -71.5q0 -40 30 -70t70 -30zM623 250q41 0 70.5 29.5
t29.5 70.5q0 42 -29 72t-71 30q-40 0 -69 -30.5t-29 -71.5q0 -40 29 -70t69 -30z" />
    <glyph glyph-name="uniF306" unicode="&#xf306;" horiz-adv-x="931" 
d="M911 558q-31 -186 -171 -351q-141 -167 -245 -237q-33 -19 -61.5 -19.5t-54.5 16.5t-44.5 39t-29.5 46q-14 28 -78.5 238.5t-73.5 223.5q-27 20 -82 -16l-20 -14l-36 50q6 6 21 24l25 28q31 35 100 89q71 56 124 67q58 12 89 -42q25 -40 38 -130q21 -126 25 -142
q28 -106 38 -134q11 -28 18 -39q8 -11 18 -11q41 0 126 166q42 76 6 124t-112 2q23 127 140 188q104 54 182 8q80 -47 58 -174z" />
    <glyph glyph-name="uniF307" unicode="&#xf307;" horiz-adv-x="990" 
d="M835 690q140 -140 140 -340q0 -197 -140 -339q-139 -141 -340 -141q-198 0 -339 141t-141 339q0 200 141 340q142 140 339 140q200 0 340 -140zM715 444q13 82 -48 94q-61 14 -110 -40q-28 -28 -34 -66q38 24 56 -1t-2 -63q-43 -84 -64 -84q-14 0 -36 94q-2 8 -5 24
l-6 35q-4 19 -5 26q-3 16 -7 27t-11 24.5t-18 19t-26 2.5q-26 -6 -59.5 -31.5t-56.5 -50.5l-20 -24l18 -24q7 7 27 17t25 -1q5 -7 37 -113.5t39 -120.5q35 -71 96 -42q53 35 124 120q69 83 86 178z" />
    <glyph glyph-name="uniF308" unicode="&#xf308;" horiz-adv-x="1132" 
d="M456 239q0 51 -22 87.5t-52.5 36.5t-52 -36.5t-21.5 -87.5t21.5 -87t52.5 -36t52.5 36t21.5 87zM856 239q0 51 -22 87.5t-52.5 36.5t-53 -36.5t-22.5 -87.5t22 -87t53.5 -36t53 36t21.5 87zM933 252q0 -36 -4.5 -67t-14.5 -55t-21 -43t-29.5 -32.5t-35 -23.5t-42.5 -16
l-46 -11q-21 -4 -52.5 -5.5t-54.5 -2t-58 -0.5q-65 0 -114 5.5t-97 21.5t-78 43.5t-49 74.5t-19 111q0 79 61 143q23 24 58.5 33.5t65.5 8.5t84.5 -5.5t87.5 -4.5t87 4.5t85 5.5t66.5 -8.5t57.5 -32.5q62 -67 62 -144zM724 -84q156 15 239.5 64.5t120.5 136.5q6 12 19 59
q16 52 16 174q0 146 -102 248q31 101 -15 216q-3 1 -9 2t-27 -1t-45.5 -9t-65.5 -27t-85 -50q-91 23 -198 23q-115 0 -218 -28q-47 32 -89 53t-68.5 28t-46.5 10t-28 1l-9 -2q-21 -54 -24 -108.5t2.5 -79.5t12.5 -43q-90 -98 -90 -233q0 -115 27 -193q2 -8 22 -48
q87 -163 364 -193h297z" />
    <glyph glyph-name="uniF309" unicode="&#xf309;" horiz-adv-x="950" 
d="M935 636q-37 -56 -94 -98v-24q0 -130 -60 -250q-60 -121 -186 -203q-127 -83 -290 -83q-159 0 -290 84q18 -2 46 -2q131 0 234 80q-64 2 -111.5 39t-64.5 93q9 -4 34 -4q26 0 50 6q-63 13 -106.5 64.5t-43.5 121.5v2q36 -20 84 -24q-84 58 -84 158q0 47 26 94
q155 -189 390 -196q-6 18 -6 42q0 78 55.5 133t134.5 55q82 0 136 -58q58 12 120 44q-19 -66 -82 -104q55 8 108 30z" />
    <glyph glyph-name="uniF30A" unicode="&#xf30a;" horiz-adv-x="990" 
d="M835 690q140 -140 140 -340q0 -197 -140 -339q-139 -141 -340 -141q-198 0 -339 141t-141 339q0 200 141 340q142 140 339 140q200 0 340 -140zM691 438q29 22 46 48q-33 -13 -54 -14q30 18 42 52q-29 -16 -60 -22q-28 28 -70 28q-39 0 -66.5 -28t-27.5 -66q0 -2 1 -11
t1 -11q-121 6 -194 100q-14 -25 -14 -48q0 -49 44 -78q-26 0 -44 12v-2q0 -35 22 -61t54 -31q-15 -4 -24 -4q-10 0 -18 2q19 -66 88 -66q-49 -40 -118 -40h-22q67 -42 144 -42q122 0 196 83t74 187v12z" />
    <glyph glyph-name="uniF30C" unicode="&#xf30c;" horiz-adv-x="530" 
d="M515 644h-142q-16 0 -26 -16.5t-10 -35.5v-102h178v-148h-178v-442h-170v442h-152v148h152v86q0 92 58.5 158t147.5 66h142v-156z" />
    <glyph glyph-name="uniF30D" unicode="&#xf30d;" horiz-adv-x="990" 
d="M835 690q140 -140 140 -340q0 -197 -140 -339q-139 -141 -340 -141t-340 141q-140 142 -140 339q0 200 140 340t340 140t340 -140zM609 500v78h-72q-44 0 -74 -33.5t-30 -80.5v-44h-76v-74h76v-222h86v222h90v74h-90v52q0 28 18 28h72z" />
    <glyph glyph-name="uniF30E" unicode="&#xf30e;" horiz-adv-x="890" 
d="M767 770q44 0 76 -31.5t32 -74.5v-646q0 -44 -32.5 -76t-75.5 -32h-162v310h114v134h-114v70q0 30 28 30h86v152h-96q-74 0 -124 -54.5t-50 -131.5v-66h-104v-134h104v-310h-326q-43 0 -75.5 32t-32.5 76v646q0 43 32 74.5t76 31.5h644z" />
    <glyph glyph-name="uniF30F" unicode="&#xf30f;" horiz-adv-x="926" 
d="M291 282q-32 45 -32 86l2 14h-14q-63 0 -110 30q-74 44 -74 160q0 53 23.5 98.5t57.5 68.5q75 51 151 51h230v-4q0 -22 -78 -36q-27 0 -38 -6q39 -20 53.5 -54.5t14.5 -97.5q0 -102 -68 -158q-38 -38 -38 -54q0 -17 50 -64q104 -90 104 -178q0 -140 -116 -194
q-67 -34 -150 -34h-4l-4 2q-2 -2 -4 -2q-57 0 -129 26q-47 16 -75 58t-28 102t32 101t83 57q89 28 159 28h2zM271 236q-59 -2 -109.5 -43t-46.5 -97q4 -54 58 -82t119.5 -22t103.5 40q41 37 37 88q-4 54 -44 85t-102 31h-16zM251 728q-10 0 -20 -2q-40 -12 -58 -62
q-15 -59 -1 -109t46 -82q33 -33 71 -33q10 0 18 2q42 12 63 66t3 112q-30 108 -122 108zM761 446h150v-94h-150v-150h-94v150h-150v94h150v150h94v-150z" />
    </font>
</defs>
</svg>
